SplineFontDB: 3.2
FontName: Agave-Heavy
FullName: Agave Heavy
FamilyName: Agave-Heavy
Weight: Heavy
Copyright: (c) 2013-2021 type agaric <agaric@protonmail.com>
Version: 37 ; ttfautohint (v1.8.3)
ItalicAngle: 0
UnderlinePosition: -384
UnderlineWidth: 128
Ascent: 1536
Descent: 512
InvalidEm: 0
sfntRevision: 0x00250000
LayerCount: 2
Layer: 0 1 "+gMxmbwAA" 1
Layer: 1 1 "+Uk1mbwAA" 0
HasVMetrics: 1
XUID: [1021 327 1617118019 8083068]
StyleMap: 0x0020
FSType: 0
OS2Version: 4
OS2_WeightWidthSlopeOnly: 0
OS2_UseTypoMetrics: 1
CreationTime: 1552578602
ModificationTime: 1648220893
PfmFamily: 17
TTFWeight: 800
TTFWidth: 5
LineGap: 0
VLineGap: 0
Panose: 2 11 9 9 4 4 4 2 2 3
OS2TypoAscent: 1536
OS2TypoAOffset: 0
OS2TypoDescent: -512
OS2TypoDOffset: 0
OS2TypoLinegap: 0
OS2WinAscent: 1536
OS2WinAOffset: 0
OS2WinDescent: 512
OS2WinDOffset: 0
HheadAscent: 1536
HheadAOffset: 0
HheadDescent: -512
HheadDOffset: 0
OS2SubXSize: 1403
OS2SubYSize: 1224
OS2SubXOff: 0
OS2SubYOff: 120
OS2SupXSize: 1403
OS2SupYSize: 1224
OS2SupXOff: 0
OS2SupYOff: 648
OS2StrikeYSize: 128
OS2StrikeYPos: 512
OS2CapHeight: 1280
OS2XHeight: 1024
OS2FamilyClass: 2057
OS2Vendor: 'agrc'
OS2CodePages: 00000097.00000000
OS2UnicodeRanges: c00002ff.00000001.00000000.00000000
MarkAttachClasses: 1
DEI: 91125
TtTable: prep
SVTCA[y-axis]
MPPEM
PUSHW_1
 200
GT
IF
PUSHB_2
 1
 1
INSTCTRL
EIF
PUSHB_1
 1
PUSHW_2
 2048
 2048
MUL
WCVTF
PUSHB_2
 0
 7
WS
PUSHB_7
 0
 0
 63
 47
 33
 5
 0
LOOPCALL
PUSHB_2
 0
 7
WS
NPUSHB
 12
 76
 4
 68
 4
 52
 8
 38
 7
 24
 7
 5
 10
LOOPCALL
PUSHB_2
 0
 7
WS
NPUSHB
 12
 80
 2
 72
 2
 60
 6
 45
 5
 31
 5
 5
 10
LOOPCALL
PUSHB_2
 0
 12
WS
PUSHW_7
 4928
 4416
 3392
 2496
 1600
 5
 11
LOOPCALL
PUSHB_2
 0
 17
WS
PUSHW_7
 64
 64
 64
 64
 64
 5
 11
LOOPCALL
PUSHW_2
 3
 0
WCVTP
PUSHB_2
 36
 1
GETINFO
LTEQ
IF
PUSHB_1
 64
GETINFO
IF
PUSHW_2
 3
 100
WCVTP
PUSHB_2
 40
 1
GETINFO
LTEQ
IF
PUSHW_1
 2048
GETINFO
IF
PUSHW_2
 3
 0
WCVTP
EIF
ELSE
PUSHB_2
 39
 1
GETINFO
LTEQ
IF
PUSHW_3
 2176
 1
 1088
GETINFO
MUL
EQ
IF

StartChar: .notdef
Encoding: 65536 -1 0
Width: 1024
VWidth: 0
Flags: W
LayerCount: 2
Fore
SplineSet
320 1285 m 2,0,-1
 433 1285 l 1,1,-1
 438 1285 l 1,2,-1
 438 1280 l 1,3,-1
 438 1152 l 1,4,-1
 438 1147 l 1,5,-1
 433 1147 l 1,6,-1
 320 1147 l 2,7,8
 269.071067812 1147 269.071067812 1147 233.035533906 1110.96446609 c 128,-1,9
 197 1074.92893219 197 1074.92893219 197 1024 c 2,10,-1
 197 768 l 1,11,-1
 197 763 l 1,12,-1
 192 763 l 1,13,-1
 64 763 l 1,14,-1
 59 763 l 1,15,-1
 59 768 l 1,16,-1
 59 1024 l 2,17,18
 59 1132.07106781 59 1132.07106781 135.464466094 1208.53553391 c 128,-1,19
 211.928932188 1285 211.928932188 1285 320 1285 c 2,0,-1
591 1285 m 1,20,-1
 704 1285 l 2,21,22
 739.945356116 1285 739.945356116 1285 772.488680557 1276.48431409 c 128,-1,23
 805.032004997 1267.96862819 805.032004997 1267.96862819 834.067606345 1250.96824415 c 128,-1,24
 863.103207694 1233.96786012 863.103207694 1233.96786012 888.535533906 1208.53553391 c 0,25,26
 926.69241608 1170.37865173 926.69241608 1170.37865173 945.84620804 1124.15416318 c 128,-1,27
 965 1077.92967463 965 1077.92967463 965 1024 c 2,28,-1
 965 768 l 1,29,-1
 965 763 l 1,30,-1
 960 763 l 1,31,-1
 832 763 l 1,32,-1
 827 763 l 1,33,-1
 827 768 l 1,34,-1
 827 1024 l 2,35,36
 827 1049.57023484 827 1049.57023484 818.028750141 1071.22083337 c 128,-1,37
 809.057500282 1092.87143191 809.057500282 1092.87143191 790.964466094 1110.96446609 c 128,-1,38
 772.871410288 1129.0575219 772.871410288 1129.0575219 751.220806778 1138.02876095 c 128,-1,39
 729.570203267 1147 729.570203267 1147 704 1147 c 2,40,-1
 591 1147 l 1,41,-1
 586 1147 l 1,42,-1
 586 1152 l 1,43,-1
 586 1280 l 1,44,-1
 586 1285 l 1,45,-1
 591 1285 l 1,20,-1
64 517 m 1,46,-1
 192 517 l 1,47,-1
 197 517 l 1,48,-1
 197 512 l 1,49,-1
 197 256 l 2,50,51
 197 230.429765158 197 230.429765158 205.971249859 208.779166626 c 128,-1,52
 214.942499718 187.128568093 214.942499718 187.128568093 233.035533906 169.035533906 c 0,53,54
 269.071067812 133 269.071067812 133 320 133 c 2,55,-1
 433 133 l 1,56,-1
 438 133 l 1,57,-1
 438 128 l 1,58,-1
 438 0 l 1,59,-1
 438 -5 l 1,60,-1
 433 -5 l 1,61,-1
 320 -5 l 2,62,63
 211.928932188 -5 211.928932188 -5 135.464466094 71.4644660941 c 128,-1,64
 59 147.928932188 59 147.928932188 59 256 c 2,65,-1
 59 512 l 1,66,-1
 59 517 l 1,67,-1
 64 517 l 1,46,-1
832 517 m 1,68,-1
 960 517 l 1,69,-1
 965 517 l 1,70,-1
 965 512 l 1,71,-1
 965 256 l 2,72,73
 965 147.928932188 965 147.928932188 888.535533906 71.4644660941 c 128,-1,74
 812.071067812 -5 812.071067812 -5 704 -5 c 2,75,-1
 591 -5 l 1,76,-1
 586 -5 l 1,77,-1
 586 0 l 1,78,-1
 586 128 l 1,79,-1
 586 133 l 1,80,-1
 591 133 l 1,81,-1
 704 133 l 2,82,83
 729.570234842 133 729.570234842 133 751.220833374 141.971249859 c 128,-1,84
 772.871431907 150.942499718 772.871431907 150.942499718 790.964466094 169.035533906 c 0,85,86
 827 205.071067812 827 205.071067812 827 256 c 2,87,-1
 827 512 l 1,88,-1
 827 517 l 1,89,-1
 832 517 l 1,68,-1
EndSplineSet
EndChar

StartChar: exclam
Encoding: 33 33 4
Width: 1024
VWidth: 0
GlyphClass: 2
Flags: W
LayerCount: 2
Fore
SplineSet
384 1285 m 1,0,-1
 640 1285 l 1,1,-1
 645 1285 l 1,2,-1
 645 1280 l 1,3,-1
 645 896 l 1,4,-1
 644.988578211 895.662231684 l 1,5,-1
 618.988578211 511.662231684 l 1,6,-1
 618.672906274 507 l 1,7,-1
 614 507 l 1,8,-1
 410 507 l 1,9,-1
 405.327093726 507 l 1,10,-1
 405.011421789 511.662231684 l 1,11,-1
 379.011421789 895.662231684 l 1,12,-1
 379 896 l 1,13,-1
 379 1280 l 1,14,-1
 379 1285 l 1,15,-1
 384 1285 l 1,0,-1
341 261 m 1,16,-1
 683 261 l 1,17,-1
 688 261 l 1,18,-1
 688 256 l 1,19,-1
 688 0 l 1,20,-1
 688 -5 l 1,21,-1
 683 -5 l 1,22,-1
 341 -5 l 1,23,-1
 336 -5 l 1,24,-1
 336 0 l 1,25,-1
 336 256 l 1,26,-1
 336 261 l 1,27,-1
 341 261 l 1,16,-1
EndSplineSet
EndChar

StartChar: quotedbl
Encoding: 34 34 5
Width: 1024
VWidth: 0
GlyphClass: 2
Flags: W
LayerCount: 2
Fore
SplineSet
163 1285 m 1,0,-1
 419 1285 l 1,1,-1
 424.353465769 1285 l 1,2,-1
 423.988358275 1279.65899895 l 1,3,-1
 388.988358275 767.658998946 l 1,4,-1
 388.669872019 763 l 1,5,-1
 384 763 l 1,6,-1
 198 763 l 1,7,-1
 193.330127981 763 l 1,8,-1
 193.011641725 767.658998946 l 1,9,-1
 158.011641725 1279.65899895 l 1,10,-1
 157.646534231 1285 l 1,11,-1
 163 1285 l 1,0,-1
605 1285 m 1,12,-1
 861 1285 l 1,13,-1
 866.353465769 1285 l 1,14,-1
 865.988358275 1279.65899895 l 1,15,-1
 830.988358275 767.658998946 l 1,16,-1
 830.669872019 763 l 1,17,-1
 826 763 l 1,18,-1
 640 763 l 1,19,-1
 635.330127981 763 l 1,20,-1
 635.011641725 767.658998946 l 1,21,-1
 600.011641725 1279.65899895 l 1,22,-1
 599.646534231 1285 l 1,23,-1
 605 1285 l 1,12,-1
EndSplineSet
EndChar

StartChar: numbersign
Encoding: 35 35 6
Width: 1024
VWidth: 0
GlyphClass: 2
Flags: W
LayerCount: 2
Fore
SplineSet
206 1285 m 1,0,-1
 410 1285 l 1,1,-1
 415 1285 l 1,2,-1
 415 1280 l 1,3,-1
 415 982 l 1,4,-1
 609 982 l 1,5,-1
 609 1280 l 1,6,-1
 609 1285 l 1,7,-1
 614 1285 l 1,8,-1
 818 1285 l 1,9,-1
 823 1285 l 1,10,-1
 823 1280 l 1,11,-1
 823 982 l 1,12,-1
 960 982 l 1,13,-1
 965 982 l 1,14,-1
 965 977 l 1,15,-1
 965 791 l 1,16,-1
 965 786 l 1,17,-1
 960 786 l 1,18,-1
 823 786 l 1,19,-1
 823 494 l 1,20,-1
 960 494 l 1,21,-1
 965 494 l 1,22,-1
 965 489 l 1,23,-1
 965 303 l 1,24,-1
 965 298 l 1,25,-1
 960 298 l 1,26,-1
 823 298 l 1,27,-1
 823 0 l 1,28,-1
 823 -5 l 1,29,-1
 818 -5 l 1,30,-1
 614 -5 l 1,31,-1
 609 -5 l 1,32,-1
 609 0 l 1,33,-1
 609 298 l 1,34,-1
 415 298 l 1,35,-1
 415 0 l 1,36,-1
 415 -5 l 1,37,-1
 410 -5 l 1,38,-1
 206 -5 l 1,39,-1
 201 -5 l 1,40,-1
 201 0 l 1,41,-1
 201 298 l 1,42,-1
 64 298 l 1,43,-1
 59 298 l 1,44,-1
 59 303 l 1,45,-1
 59 489 l 1,46,-1
 59 494 l 1,47,-1
 64 494 l 1,48,-1
 201 494 l 1,49,-1
 201 786 l 1,50,-1
 64 786 l 1,51,-1
 59 786 l 1,52,-1
 59 791 l 1,53,-1
 59 977 l 1,54,-1
 59 982 l 1,55,-1
 64 982 l 1,56,-1
 201 982 l 1,57,-1
 201 1280 l 1,58,-1
 201 1285 l 1,59,-1
 206 1285 l 1,0,-1
609 786 m 1,60,-1
 415 786 l 1,61,-1
 415 494 l 1,62,-1
 609 494 l 1,63,-1
 609 786 l 1,60,-1
EndSplineSet
EndChar

StartChar: dollar
Encoding: 36 36 7
Width: 1024
VWidth: 0
GlyphClass: 2
Flags: W
LayerCount: 2
Fore
SplineSet
385.152586771 1437 m 1,0,-1
 390.289019865 1437 l 1,1,-1
 653.274394237 1437 l 1,2,-1
 658.41082733 1437 l 1,3,-1
 658.41082733 1432 l 1,4,-1
 658.41082733 1223 l 1,5,-1
 697.447718839 1223 l 2,6,7
 757.169921875 1223 757.169921875 1223 810.375976562 1218.98535156 c 128,-1,8
 863.600585938 1214.96875 863.600585938 1214.96875 887.822265625 1210.93164062 c 2,9,-1
 911.822265625 1206.93164062 l 1,10,-1
 916 1206.23535156 l 1,11,-1
 916 1202 l 1,12,-1
 916 1024 l 1,13,-1
 916 1019 l 1,14,-1
 911 1019 l 1,15,-1
 658.41082733 1019 l 1,16,-1
 658.41082733 706.11328125 l 1,17,18
 710.989041864 691.536132812 710.989041864 691.536132812 747.782226562 677.62890625 c 0,19,20
 786.202148438 663.03125 786.202148438 663.03125 829.586914062 636.91015625 c 0,21,22
 873.276367188 610.60546875 873.276367188 610.60546875 900.30078125 579.126953125 c 0,23,24
 907.096679688 571.2109375 907.096679688 571.2109375 913.333984375 562.198242188 c 128,-1,25
 919.572265625 553.185546875 919.572265625 553.185546875 925.241210938 543.096679688 c 128,-1,26
 930.91015625 533.0078125 930.91015625 533.0078125 936.016601562 521.857421875 c 128,-1,27
 941.124023438 510.70703125 941.124023438 510.70703125 945.6875 498.461914062 c 0,28,29
 954.85546875 473.866210938 954.85546875 473.866210938 959.427734375 446.16796875 c 128,-1,30
 964 418.470703125 964 418.470703125 964 387.6953125 c 0,31,32
 964 264.043945312 964 264.043945312 884.903320312 190.873046875 c 0,33,34
 846.171875 155.043945312 846.171875 155.043945312 789.711914062 129.284179688 c 128,-1,35
 733.251953125 103.524414062 733.251953125 103.524414062 658.41082733 87.9189453125 c 1,36,-1
 658.41082733 -152 l 1,37,-1
 658.41082733 -157 l 1,38,-1
 653.274394237 -157 l 1,39,-1
 390.289019865 -157 l 1,40,-1
 385.152586771 -157 l 1,41,-1
 385.152586771 -152 l 1,42,-1
 385.152586771 57 l 1,43,-1
 338 57 l 2,44,45
 272.845703125 57 272.845703125 57 213.662109375 61.01171875 c 0,46,47
 193.923828125 62.349609375 193.923828125 62.349609375 177.802734375 63.6826171875 c 128,-1,48
 161.680664062 65.0166015625 161.680664062 65.0166015625 149.03515625 66.359375 c 128,-1,49
 136.389648438 67.7021484375 136.389648438 67.7021484375 127.267578125 69.0537109375 c 2,50,-1
 100.267578125 73.0537109375 l 1,51,-1
 96 73.6865234375 l 1,52,-1
 96 78 l 1,53,-1
 96 256 l 1,54,-1
 96 261 l 1,55,-1
 101 261 l 1,56,-1
 385.152586771 261 l 1,57,-1
 385.152586771 582.969726562 l 1,58,59
 325.565429688 601.658203125 325.565429688 601.658203125 283.805664062 621.965820312 c 0,60,61
 262.010742188 632.564453125 262.010742188 632.564453125 240.62890625 646.674804688 c 128,-1,62
 219.247070312 660.784179688 219.247070312 660.784179688 198.276367188 678.395507812 c 0,63,64
 155.831054688 714.040039062 155.831054688 714.040039062 133.8671875 767.956054688 c 0,65,66
 112 821.630859375 112 821.630859375 112 892.3046875 c 0,67,68
 112 1122.38769531 112 1122.38769531 385.152586771 1188.97265625 c 1,69,-1
 385.152586771 1432 l 1,70,-1
 385.152586771 1437 l 1,0,-1
473.499235975 758.208984375 m 1,71,-1
 473.499235975 1000.72558594 l 1,72,73
 410.481622462 986.198242188 410.481622462 986.198242188 379.839588791 959.768554688 c 128,-1,74
 349.197555119 933.338867188 349.197555119 933.338867188 349.197555119 895 c 0,75,76
 349.197555119 843.092773438 349.197555119 843.092773438 382.593399111 811.061523438 c 0,77,78
 414.616852386 780.34765625 414.616852386 780.34765625 473.499235975 758.208984375 c 1,71,-1
685.940904858 476.159179688 m 0,79,80
 645.437320932 509.015625 645.437320932 509.015625 570.064178127 533.135742188 c 1,81,-1
 570.064178127 275.959960938 l 1,82,83
 727 303.958007812 727 303.958007812 727 385 c 0,84,85
 727 442.658203125 727 442.658203125 685.940904858 476.159179688 c 0,79,80
EndSplineSet
EndChar

StartChar: percent
Encoding: 37 37 8
Width: 1024
VWidth: 0
GlyphClass: 2
Flags: W
LayerCount: 2
Fore
SplineSet
99.1015625 1280 m 1,0,-1
 104.1015625 1280 l 1,1,-1
 394.058892319 1280 l 1,2,-1
 399.177746623 1280 l 1,3,-1
 399.177746623 1275 l 1,4,-1
 399.177746623 955 l 1,5,-1
 399.177746623 950 l 1,6,-1
 394.058892319 950 l 1,7,-1
 104.1015625 950 l 1,8,-1
 99.1015625 950 l 1,9,-1
 99.1015625 955 l 1,10,-1
 99.1015625 1275 l 1,11,-1
 99.1015625 1280 l 1,0,-1
986.203125 1280 m 1,12,-1
 982.571289062 1272.81445312 l 1,13,-1
 331.065991318 2.7587890625 l 1,14,-1
 329.649308398 0 l 1,15,-1
 326.490015507 0 l 1,16,-1
 72.1015625 0 l 1,17,-1
 64 0 l 1,18,-1
 67.6318359375 7.185546875 l 1,19,-1
 719.137133682 1277.24121094 l 1,20,-1
 720.553816602 1280 l 1,21,-1
 723.713109493 1280 l 1,22,-1
 978.1015625 1280 l 1,23,-1
 986.203125 1280 l 1,12,-1
651.025378377 330 m 1,24,-1
 656.144232681 330 l 1,25,-1
 946.1015625 330 l 1,26,-1
 951.1015625 330 l 1,27,-1
 951.1015625 325 l 1,28,-1
 951.1015625 5 l 1,29,-1
 951.1015625 0 l 1,30,-1
 946.1015625 0 l 1,31,-1
 656.144232681 0 l 1,32,-1
 651.025378377 0 l 1,33,-1
 651.025378377 5 l 1,34,-1
 651.025378377 325 l 1,35,-1
 651.025378377 330 l 1,24,-1
EndSplineSet
EndChar

StartChar: ampersand
Encoding: 38 38 9
Width: 1024
VWidth: 0
GlyphClass: 2
Flags: W
LayerCount: 2
Fore
SplineSet
525 1289 m 0,0,1
 539.591603436 1289 539.591603436 1289 553.436816001 1288.49653829 c 128,-1,2
 567.282028565 1287.99307658 567.282028565 1287.99307658 580.383482494 1286.98527243 c 128,-1,3
 593.514656762 1285.9751821 593.514656762 1285.9751821 603.075372437 1284.96906809 c 128,-1,4
 612.636088112 1283.96295409 612.636088112 1283.96295409 618.821994937 1282.93196962 c 2,5,-1
 630.821994937 1280.93196962 l 1,6,-1
 635 1280.23563544 l 1,7,-1
 635 1276 l 1,8,-1
 635 1094 l 1,9,-1
 635 1089 l 1,10,-1
 630 1089 l 1,11,-1
 525 1089 l 2,12,13
 443.857675888 1089 443.857675888 1089 401.76469811 1052.71295019 c 0,14,15
 360 1016.7089001 360 1016.7089001 360 931 c 0,16,17
 360 856.216551812 360 856.216551812 381.941088216 813.797114594 c 0,18,19
 403.04304404 773 403.04304404 773 438 773 c 2,20,-1
 568 773 l 1,21,-1
 568 969 l 1,22,-1
 568 974 l 1,23,-1
 573 974 l 1,24,-1
 800 974 l 1,25,-1
 805 974 l 1,26,-1
 805 969 l 1,27,-1
 805 773 l 1,28,-1
 960 773 l 1,29,-1
 965 773 l 1,30,-1
 965 768 l 1,31,-1
 965 582 l 1,32,-1
 965 577 l 1,33,-1
 960 577 l 1,34,-1
 805 577 l 1,35,-1
 805 332 l 2,36,37
 805 251.266208673 805 251.266208673 843.795808143 217.260006474 c 0,38,39
 882.881167642 183 882.881167642 183 960 183 c 2,40,-1
 965 183 l 1,41,-1
 965 178 l 1,42,-1
 965 -8 l 1,43,-1
 965 -13 l 1,44,-1
 960 -13 l 2,45,46
 826.839328586 -13 826.839328586 -13 739.012321381 24.8210780564 c 128,-1,47
 651.185314177 62.6421561129 651.185314177 62.6421561129 609.625028779 138.003713186 c 1,48,-1
 516.233881355 -10.6597459792 l 1,49,-1
 514.763721778 -13 l 1,50,-1
 512 -13 l 2,51,52
 290.256631357 -13 290.256631357 -13 174.89120892 78.5839537772 c 0,53,54
 59 170.585308227 59 170.585308227 59 384 c 0,55,56
 59 419.792342342 59 419.792342342 62.9113412211 453.101846623 c 128,-1,57
 66.8226824422 486.411350904 66.8226824422 486.411350904 74.653996614 517.231361516 c 0,58,59
 90.342358033 578.972654842 90.342358033 578.972654842 113.243711558 616.12373945 c 0,60,61
 135.940648101 652.943214285 135.940648101 652.943214285 158.183068573 679.229711207 c 0,62,63
 163.766086081 685.827822807 163.766086081 685.827822807 168.96576676 691.410711375 c 128,-1,64
 174.165447439 696.993599944 174.165447439 696.993599944 179.055852253 701.633009723 c 128,-1,65
 183.946257066 706.272419502 183.946257066 706.272419502 188.508812266 709.919131188 c 128,-1,66
 193.071367466 713.565842874 193.071367466 713.565842874 197.287665962 716.201029434 c 2,67,-1
 205.83304128 721.897946313 l 2,68,69
 203.915530643 723.33607929 203.915530643 723.33607929 202.333811049 724.630213504 c 0,70,71
 196.491528998 729.410262455 196.491528998 729.410262455 181.203716988 747.246043133 c 128,-1,72
 165.848508987 765.160452467 165.848508987 765.160452467 154.09107679 787.141738748 c 128,-1,73
 142.299317548 809.187201679 142.299317548 809.187201679 132.649287499 847.787321875 c 128,-1,74
 123 886.384471872 123 886.384471872 123 931 c 0,75,76
 123 1123.39758824 123 1123.39758824 226.369503418 1206.3987166 c 0,77,78
 329.241040409 1289 329.241040409 1289 525 1289 c 0,0,1
399 577 m 2,79,80
 351.963700931 577 351.963700931 577 324.38631121 526.599942923 c 0,81,82
 296 474.721512092 296 474.721512092 296 384 c 0,83,84
 296 361.424416439 296 361.424416439 299.587834278 341.338639699 c 128,-1,85
 303.175668556 321.252862958 303.175668556 321.252862958 310.357640821 303.62435262 c 128,-1,86
 317.539613085 285.995842281 317.539613085 285.995842281 328.272852895 270.796435444 c 128,-1,87
 339.006092705 255.597028607 339.006092705 255.597028607 353.341339088 242.71960389 c 0,88,89
 410.915992475 191 410.915992475 191 512 191 c 2,90,-1
 587.073895365 191 l 1,91,92
 568 250.785485606 568 250.785485606 568 332 c 2,93,-1
 568 577 l 1,94,-1
 399 577 l 2,79,80
EndSplineSet
EndChar

StartChar: quotesingle
Encoding: 39 39 10
Width: 1024
VWidth: 0
GlyphClass: 2
Flags: W
LayerCount: 2
Fore
SplineSet
384 1285 m 1,0,-1
 640 1285 l 1,1,-1
 645.353465769 1285 l 1,2,-1
 644.988358275 1279.65899895 l 1,3,-1
 609.988358275 767.658998946 l 1,4,-1
 609.669872019 763 l 1,5,-1
 605 763 l 1,6,-1
 419 763 l 1,7,-1
 414.330127981 763 l 1,8,-1
 414.011641725 767.658998946 l 1,9,-1
 379.011641725 1279.65899895 l 1,10,-1
 378.646534231 1285 l 1,11,-1
 384 1285 l 1,0,-1
EndSplineSet
EndChar

StartChar: parenleft
Encoding: 40 40 11
Width: 1024
VWidth: 0
GlyphClass: 2
Flags: W
LayerCount: 2
Fore
SplineSet
627 1452 m 1,0,-1
 854 1452 l 1,1,-1
 869.602325267 1452 l 1,2,-1
 885.204650534 1452 l 1,3,-1
 900.806975801 1452 l 1,4,-1
 888.110841503 1442.93133264 l 1,5,-1
 875.414707204 1433.86266529 l 1,6,-1
 862.718572906 1424.79399793 l 2,7,8
 861.921057772 1424.22434427 861.921057772 1424.22434427 861.016803911 1423.56039137 c 128,-1,9
 860.11255005 1422.89643848 860.11255005 1422.89643848 859.105648542 1422.14098577 c 128,-1,10
 858.094456343 1421.38231385 858.094456343 1421.38231385 856.984160766 1420.53439359 c 128,-1,11
 855.87386519 1419.68647333 855.87386519 1419.68647333 854.666081578 1418.75046712 c 0,12,13
 849.784226098 1414.96713458 849.784226098 1414.96713458 843.425056606 1409.8308823 c 0,14,15
 837.416061226 1404.97746295 837.416061226 1404.97746295 825.024048338 1393.19566935 c 128,-1,16
 812.531386222 1381.31818279 812.531386222 1381.31818279 794.106601718 1362.89339828 c 0,17,18
 757.331116442 1326.11791301 757.331116442 1326.11791301 724.434588336 1282.91343843 c 0,19,20
 708.071821486 1261.42204316 708.071821486 1261.42204316 689.624276606 1232.52110319 c 0,21,22
 680.369981001 1218.02281394 680.369981001 1218.02281394 670.606435132 1201.67796515 c 128,-1,23
 660.839267701 1185.32705362 660.839267701 1185.32705362 650.56175107 1167.1249977 c 0,24,25
 646.473463253 1159.88429518 646.473463253 1159.88429518 642.503323729 1152.56960429 c 128,-1,26
 638.533180977 1145.25490509 638.533180977 1145.25490509 634.680961357 1137.8657758 c 128,-1,27
 630.828744495 1130.47664838 630.828744495 1130.47664838 627.094585466 1123.01327459 c 128,-1,28
 623.360420083 1115.54988382 623.360420083 1115.54988382 619.744158944 1108.01193565 c 128,-1,29
 616.127903637 1100.47399425 616.127903637 1100.47399425 612.629625869 1092.86153744 c 128,-1,30
 609.131341667 1085.24906026 609.131341667 1085.24906026 605.750957012 1077.56189744 c 128,-1,31
 602.370578484 1069.87474106 602.370578484 1069.87474106 599.108111805 1062.11280033 c 128,-1,32
 595.845641156 1054.35084151 595.845641156 1054.35084151 592.701079472 1046.51407017 c 128,-1,33
 589.55652201 1038.67729953 589.55652201 1038.67729953 586.529825052 1030.76547801 c 128,-1,34
 583.503128319 1022.85364595 583.503128319 1022.85364595 580.594359411 1014.8668691 c 0,35,36
 575.765304561 1001.60743036 575.765304561 1001.60743036 571.173813865 987.44819617 c 128,-1,37
 566.582546162 973.289097634 566.582546162 973.289097634 562.228458324 958.225691952 c 128,-1,38
 557.874609284 943.162624782 557.874609284 943.162624782 553.760816126 927.197428249 c 128,-1,39
 549.647148473 911.232287528 549.647148473 911.232287528 545.775293742 894.371016479 c 128,-1,40
 541.90359418 877.51004125 541.90359418 877.51004125 538.273487855 859.743734114 c 128,-1,41
 534.643479462 841.977559819 534.643479462 841.977559819 531.259092424 823.322465534 c 0,42,43
 521.132826718 767.504513105 521.132826718 767.504513105 516.067596888 709.439679261 c 0,44,45
 513.534101393 680.397167881 513.534101393 680.397167881 512.267050697 650.78747838 c 128,-1,46
 511 621.17778888 511 621.17778888 511 591 c 0,47,48
 511 470.259449132 511 470.259449132 530.279620306 359.061800853 c 0,49,50
 536.707711626 321.976658623 536.707711626 321.976658623 544.50509954 288.209880585 c 0,51,52
 546.452961285 279.774617912 546.452961285 279.774617912 548.484530358 271.552264662 c 128,-1,53
 550.516086649 263.329910918 550.516086649 263.329910918 552.630615052 255.322961179 c 128,-1,54
 554.745139622 247.315971129 554.745139622 247.315971129 556.942422818 239.524172364 c 128,-1,55
 559.139689634 231.732374935 559.139689634 231.732374935 561.420032755 224.154177345 c 0,56,57
 564.45965422 214.052614339 564.45965422 214.052614339 567.647962676 204.323901368 c 128,-1,58
 570.836243133 194.59513457 570.836243133 194.59513457 574.1700301 185.247023698 c 128,-1,59
 577.503783785 175.898855785 577.503783785 175.898855785 580.984836507 166.924421433 c 0,60,61
 612.474719756 85.7395661815 612.474719756 85.7395661815 650.298823405 14.4383376512 c 0,62,63
 669.356172681 -21.3319819375 669.356172681 -21.3319819375 687.832326487 -50.202653432 c 0,64,65
 706.223396773 -78.7604961622 706.223396773 -78.7604961622 724.664450404 -101.569167758 c 0,66,67
 762.309704931 -148.130403621 762.309704931 -148.130403621 793.92299989 -181.719529515 c 0,68,69
 801.737533196 -190.022471152 801.737533196 -190.022471152 808.756875293 -197.165559382 c 128,-1,70
 815.77621739 -204.308647612 815.77621739 -204.308647612 821.989815744 -210.282392668 c 128,-1,71
 828.137437634 -216.19270804 828.137437634 -216.19270804 833.482422333 -220.94634224 c 128,-1,72
 838.827407032 -225.699976441 838.827407032 -225.699976441 843.148737476 -229.111553107 c 2,73,-1
 863 -244 l 1,74,-1
 875 -253 l 1,75,-1
 887 -262 l 1,76,-1
 899 -271 l 1,77,-1
 884 -271 l 1,78,-1
 869 -271 l 1,79,-1
 854 -271 l 1,80,-1
 627 -271 l 1,81,-1
 625.566018868 -271 l 1,82,-1
 624.132037736 -271 l 1,83,-1
 622.698056604 -271 l 1,84,-1
 621.482043036 -270.23999152 l 1,85,-1
 620.266029468 -269.47998304 l 1,86,-1
 619.0500159 -268.71997456 l 2,87,88
 616.139073863 -266.900635787 616.139073863 -266.900635787 612.586658656 -264.474461235 c 128,-1,89
 609.063840842 -262.06850066 609.063840842 -262.06850066 604.92991371 -259.082977425 c 128,-1,90
 600.812686549 -256.109514912 600.812686549 -256.109514912 596 -252.5 c 2,91,-1
 593.216451056 -250.356682008 l 2,92,93
 592.484847989 -249.780318933 592.484847989 -249.780318933 591.712019357 -249.159461478 c 128,-1,94
 590.939190725 -248.538604024 590.939190725 -248.538604024 590.124251393 -247.872607104 c 0,95,96
 588.506199945 -246.550278878 588.506199945 -246.550278878 586.723521708 -245.051221622 c 128,-1,97
 584.940623157 -243.552056298 584.940623157 -243.552056298 582.987387459 -241.871981916 c 0,98,99
 581.690500198 -240.756495264 581.690500198 -240.756495264 580.317783742 -239.561144091 c 128,-1,100
 578.945067287 -238.365792918 578.945067287 -238.365792918 577.498605027 -237.092430072 c 128,-1,101
 576.052142768 -235.819067227 576.052142768 -235.819067227 574.529070314 -234.465208712 c 0,102,103
 573.389601085 -233.452334956 573.389601085 -233.452334956 572.204003028 -232.391448487 c 128,-1,104
 571.018404971 -231.330562018 571.018404971 -231.330562018 569.786986448 -230.221940886 c 128,-1,105
 568.555567924 -229.113319754 568.555567924 -229.113319754 567.278430083 -227.957069078 c 128,-1,106
 566.001292241 -226.800818402 566.001292241 -226.800818402 564.677697405 -225.596273628 c 0,107,108
 562.034306021 -223.190640735 562.034306021 -223.190640735 559.222514162 -220.608657247 c 128,-1,109
 556.410722303 -218.026673759 556.410722303 -218.026673759 553.429742206 -215.267647425 c 0,110,111
 547.470325859 -209.751949195 547.470325859 -209.751949195 540.740883067 -203.443058062 c 0,112,113
 520.389500977 -184.363637353 520.389500977 -184.363637353 500.942720631 -163.645559061 c 128,-1,114
 481.496089364 -142.927906316 481.496089364 -142.927906316 462.955203006 -120.57693387 c 0,115,116
 425.768685413 -75.7493510192 425.768685413 -75.7493510192 380.207230439 -1.33230789458 c 0,117,118
 357.362226622 35.98119834 357.362226622 35.98119834 337.818693803 75.3218237106 c 128,-1,119
 318.27551485 114.661643201 318.27551485 114.661643201 302.037686699 156.017864716 c 128,-1,120
 285.761848993 197.470388873 285.761848993 197.470388873 272.071341611 246.771139669 c 128,-1,121
 258.397385036 296.012289523 258.397385036 296.012289523 247.276447693 353.133467692 c 0,122,123
 225 467.553403571 225 467.553403571 225 591 c 0,124,125
 225 632.12154939 225 632.12154939 227.416861722 672.194565344 c 128,-1,126
 229.83394286 712.267467785 229.83394286 712.267467785 234.67114416 751.30192773 c 128,-1,127
 239.50853802 790.336206005 239.50853802 790.336206005 246.766643698 828.315708093 c 0,128,129
 252.201432556 856.753556771 252.201432556 856.753556771 258.435051836 883.332610645 c 128,-1,130
 264.669004557 909.911988955 264.669004557 909.911988955 271.705886698 934.637452441 c 0,131,132
 274.053432777 942.885615672 274.053432777 942.885615672 276.490661217 950.92653041 c 128,-1,133
 278.927889657 958.967445148 278.927889657 958.967445148 281.456007926 966.804732856 c 128,-1,134
 283.984126195 974.642020565 283.984126195 974.642020565 286.602153406 982.272293774 c 0,135,136
 290.530442883 993.721342825 290.530442883 993.721342825 294.662677375 1004.70702198 c 128,-1,137
 298.794911867 1015.69270114 298.794911867 1015.69270114 303.13156987 1026.21547424 c 0,138,139
 320.314821281 1067.91012839 320.314821281 1067.91012839 339.412194801 1106.86465653 c 128,-1,140
 358.509988339 1145.81909768 358.509988339 1145.81909768 379.526895185 1182.02984405 c 0,141,142
 421.74980045 1254.77533144 421.74980045 1254.77533144 463.696464143 1302.86053128 c 0,143,144
 505.06879579 1350.28735049 505.06879579 1350.28735049 539.472254525 1384.184876 c 0,145,146
 548.143603384 1392.72870503 548.143603384 1392.72870503 556.071492881 1400.11290738 c 0,147,148
 558.71740077 1402.57736141 558.71740077 1402.57736141 561.281605713 1404.91351524 c 128,-1,149
 563.845810656 1407.24966906 563.845810656 1407.24966906 566.33270707 1409.46138925 c 128,-1,150
 568.819603484 1411.67310944 568.819603484 1411.67310944 571.225750167 1413.75719678 c 0,151,152
 578.457991811 1420.02141304 578.457991811 1420.02141304 585.027682219 1425.17626299 c 128,-1,153
 591.633583805 1430.35952572 591.633583805 1430.35952572 597.414664514 1434.30117165 c 2,154,-1
 618.281427094 1449.20600207 l 1,155,-1
 619.585292796 1450.13733471 l 1,156,-1
 620.889158497 1451.06866736 l 1,157,-1
 622.193024199 1452 l 1,158,-1
 623.795349466 1452 l 1,159,-1
 625.397674733 1452 l 1,160,-1
 627 1452 l 1,0,-1
EndSplineSet
EndChar

StartChar: parenright
Encoding: 41 41 12
Width: 1024
VWidth: 0
GlyphClass: 2
Flags: W
LayerCount: 2
Fore
SplineSet
406.40990224 1448.80752572 m 2,0,1
 410.022562295 1446.54961319 410.022562295 1446.54961319 413.258959558 1444.29843843 c 128,-1,2
 416.448660817 1442.0797445 416.448660817 1442.0797445 419.521938317 1439.81694432 c 128,-1,3
 422.55774753 1437.58168935 422.55774753 1437.58168935 428 1433.5 c 0,4,5
 442.658560997 1422.50607925 442.658560997 1422.50607925 483.259116933 1384.44305806 c 128,-1,6
 523.953514646 1346.29206021 523.953514646 1346.29206021 561.044796994 1301.57693387 c 0,7,8
 573.46890044 1286.59993246 573.46890044 1286.59993246 586.809402655 1268.34728742 c 128,-1,9
 600.149904869 1250.09464238 600.149904869 1250.09464238 614.381958774 1228.60945992 c 128,-1,10
 628.614012679 1207.12427747 628.614012679 1207.12427747 643.792769561 1182.33230789 c 0,11,12
 666.633178348 1145.02630688 666.633178348 1145.02630688 686.174489433 1105.8167934 c 128,-1,13
 705.713762821 1066.61136855 705.713762821 1066.61136855 721.950779849 1025.5114192 c 0,14,15
 754.459146716 943.224615568 754.459146716 943.224615568 776.723552307 828.866532308 c 0,16,17
 782.295797083 800.245456864 782.295797083 800.245456864 786.473492587 771.063862185 c 128,-1,18
 790.651275231 741.882601799 790.651275231 741.882601799 793.43466113 712.147525615 c 128,-1,19
 796.21816084 682.412877377 796.21816084 682.412877377 797.609091457 652.126308532 c 128,-1,20
 799.000179867 621.839982874 799.000179867 621.839982874 799 591 c 0,21,22
 799 529.314653341 799 529.314653341 793.561590292 469.998050008 c 0,23,24
 791.74817665 450.219191216 791.74817665 450.219191216 789.329814883 430.704156381 c 128,-1,25
 786.911453117 411.189121546 786.911453117 411.189121546 783.887167794 391.932560073 c 128,-1,26
 780.862882471 372.675998601 780.862882471 372.675998601 777.233356302 353.684291907 c 0,27,28
 755.447888295 239.690563958 755.447888295 239.690563958 720.86843013 155.784525765 c 0,29,30
 686.682208131 72.8326635606 686.682208131 72.8326635606 644.426526122 -0.111053612667 c 0,31,32
 601.961969158 -73.1057418867 601.961969158 -73.1057418867 560.303535857 -120.86053128 c 0,33,34
 518.967771152 -168.245432284 518.967771152 -168.245432284 484.606601718 -202.606601718 c 0,35,36
 467.132193229 -220.081010207 467.132193229 -220.081010207 452.645723054 -232.745437273 c 128,-1,37
 438.15925288 -245.40986434 438.15925288 -245.40986434 426.585335486 -253.301171654 c 2,38,-1
 405.718572906 -268.206002068 l 1,39,-1
 404.414707204 -269.137334712 l 1,40,-1
 403.110841503 -270.068667356 l 1,41,-1
 401.806975801 -271 l 1,42,-1
 400.204650534 -271 l 1,43,-1
 398.602325267 -271 l 1,44,-1
 397 -271 l 1,45,-1
 170 -271 l 1,46,-1
 154.397674733 -271 l 1,47,-1
 138.795349466 -271 l 1,48,-1
 123.193024199 -271 l 1,49,-1
 135.889158497 -261.931332644 l 1,50,-1
 148.585292796 -252.862665288 l 1,51,-1
 161.281427094 -243.793997932 l 2,52,53
 164.564166413 -241.449184133 164.564166413 -241.449184133 169.408861182 -237.692901221 c 128,-1,54
 174.253555951 -233.936618308 174.253555951 -233.936618308 180.574943394 -228.830882297 c 2,55,-1
 182.646562451 -227.111327922 l 2,56,57
 183.216563015 -226.627565291 183.216563015 -226.627565291 183.834451793 -226.093250414 c 128,-1,58
 184.452340572 -225.558935536 184.452340572 -225.558935536 185.116842197 -224.975093397 c 0,59,60
 186.4512593 -223.802652417 186.4512593 -223.802652417 187.976754713 -222.426147809 c 128,-1,61
 189.505200476 -221.046981002 189.505200476 -221.046981002 191.201507683 -219.4839766 c 128,-1,62
 192.90883792 -217.910772378 192.90883792 -217.910772378 194.799996887 -216.138050547 c 128,-1,63
 196.691155853 -214.365328716 196.691155853 -214.365328716 198.764307445 -212.394724978 c 0,64,65
 202.917364668 -208.44709755 202.917364668 -208.44709755 207.786124917 -203.71882898 c 0,66,67
 217.553424901 -194.233371663 217.553424901 -194.233371663 229.893398282 -181.893398282 c 0,68,69
 266.668883558 -145.117913006 266.668883558 -145.117913006 299.565411664 -101.913438426 c 0,70,71
 305.011479752 -94.7603937729 305.011479752 -94.7603937729 310.692070207 -86.7813346253 c 128,-1,72
 316.372660663 -78.8022754776 316.372660663 -78.8022754776 322.297501257 -69.9818025733 c 128,-1,73
 328.222341851 -61.161329669 328.222341851 -61.161329669 334.375723394 -51.5211031939 c 0,74,75
 352.900086163 -22.4998160913 352.900086163 -22.4998160913 373.43824893 13.8750023047 c 0,76,77
 380.250703472 25.9404338415 380.250703472 25.9404338415 386.73732373 38.2351879751 c 128,-1,78
 393.223943989 50.5299421087 393.223943989 50.5299421087 399.373874908 63.0326535346 c 128,-1,79
 405.523805827 75.5353649606 405.523805827 75.5353649606 411.348331374 88.2577626437 c 128,-1,80
 417.17285692 100.980160327 417.17285692 100.980160327 422.676599441 113.935724387 c 128,-1,81
 428.180341962 126.891288448 428.180341962 126.891288448 433.358076193 140.054579398 c 128,-1,82
 438.535810424 153.217870348 438.535810424 153.217870348 443.407636116 166.637213732 c 0,83,84
 451.031924059 187.780428394 451.031924059 187.780428394 457.498898545 209.028059437 c 128,-1,85
 463.965873032 230.275690479 463.965873032 230.275690479 470.229037363 254.639300222 c 0,86,87
 473.316323255 266.648793294 473.316323255 266.648793294 476.267030016 279.15495142 c 128,-1,88
 479.217688214 291.661058012 479.217688214 291.661058012 482.032018772 304.665998196 c 128,-1,89
 484.846296807 317.670838726 484.846296807 317.670838726 487.523834264 331.174964334 c 128,-1,90
 490.201335527 344.679040335 490.201335527 344.679040335 492.740907576 358.677534466 c 0,91,92
 513 470.349604901 513 470.349604901 513 591 c 0,93,94
 513 651.386205515 513 651.386205515 508.177852861 709.367765491 c 128,-1,95
 503.356301264 767.350017843 503.356301264 767.350017843 493.720379694 822.938199147 c 128,-1,96
 484.094144883 878.474169212 484.094144883 878.474169212 471.412362173 926.516720491 c 128,-1,97
 458.730579463 974.55927177 458.730579463 974.55927177 443.015163493 1015.07557857 c 0,98,99
 427.166780909 1055.93468992 427.166780909 1055.93468992 409.849910062 1094.03092232 c 128,-1,100
 392.533322675 1132.12741179 392.533322675 1132.12741179 373.754463673 1167.46041426 c 0,101,102
 336.430232189 1237.68890245 336.430232189 1237.68890245 299.335549596 1283.56916776 c 0,103,104
 280.516741747 1306.84506168 280.516741747 1306.84506168 263.207876589 1326.75109276 c 128,-1,105
 245.917005683 1346.63642958 245.917005683 1346.63642958 230.153342871 1363.13901409 c 0,106,107
 224.912975277 1368.62502391 224.912975277 1368.62502391 220.017803928 1373.61433191 c 128,-1,108
 215.122770083 1378.60354928 215.122770083 1378.60354928 210.576392388 1383.09314663 c 128,-1,109
 206.035769813 1387.57713469 206.035769813 1387.57713469 201.893726207 1391.5167523 c 128,-1,110
 197.756862295 1395.4515668 197.756862295 1395.4515668 194.018210788 1398.84399667 c 128,-1,111
 190.348965756 1402.17344752 190.348965756 1402.17344752 187.010432618 1405.02909099 c 128,-1,112
 183.67189948 1407.88473446 183.67189948 1407.88473446 180.851262524 1410.11155311 c 2,113,-1
 161 1425 l 1,114,-1
 149 1434 l 1,115,-1
 137 1443 l 1,116,-1
 125 1452 l 1,117,-1
 140 1452 l 1,118,-1
 155 1452 l 1,119,-1
 170 1452 l 1,120,-1
 397 1452 l 1,121,-1
 398.433981132 1452 l 1,122,-1
 399.867962264 1452 l 1,123,-1
 401.301943396 1452 l 1,124,-1
 402.517956964 1451.23999152 l 1,125,-1
 403.733970532 1450.47998304 l 1,126,-1
 406.40990224 1448.80752572 l 2,0,1
EndSplineSet
EndChar

StartChar: asterisk
Encoding: 42 42 13
Width: 1024
VWidth: 0
GlyphClass: 2
Flags: W
LayerCount: 2
Fore
SplineSet
384 1285 m 1,0,-1
 640 1285 l 1,1,-1
 645.910600416 1285 l 1,2,-1
 644.930825862 1279.17117172 l 1,3,-1
 587.589445233 938.038551365 l 1,4,-1
 895.702504303 1097.44089107 l 1,5,-1
 900.933958812 1100.14738489 l 1,6,-1
 902.755026522 1094.54587282 l 1,7,-1
 981.755026522 851.54587282 l 1,8,-1
 983.579370056 845.934284481 l 1,9,-1
 977.744449577 845.055731113 l 1,10,-1
 635.637782873 793.545352319 l 1,11,-1
 882.507363654 550.563481472 l 1,12,-1
 886.70885189 546.428158404 l 1,13,-1
 881.94319134 542.958017227 l 1,14,-1
 675.94319134 392.958017227 l 1,15,-1
 671.181066822 389.490450831 l 1,16,-1
 668.533461159 394.752772646 l 1,17,-1
 512 705.875179918 l 1,18,-1
 355.466538841 394.752772646 l 1,19,-1
 352.818933178 389.490450831 l 1,20,-1
 348.05680866 392.958017227 l 1,21,-1
 142.05680866 542.958017227 l 1,22,-1
 137.29114811 546.428158404 l 1,23,-1
 141.492636346 550.563481472 l 1,24,-1
 388.362217127 793.545352319 l 1,25,-1
 46.2555504233 845.055731113 l 1,26,-1
 40.4206299438 845.934284481 l 1,27,-1
 42.244973478 851.54587282 l 1,28,-1
 121.244973478 1094.54587282 l 1,29,-1
 123.066041188 1100.14738489 l 1,30,-1
 128.297495697 1097.44089107 l 1,31,-1
 436.410554767 938.038551365 l 1,32,-1
 379.069174138 1279.17117172 l 1,33,-1
 378.089399584 1285 l 1,34,-1
 384 1285 l 1,0,-1
EndSplineSet
EndChar

StartChar: plus
Encoding: 43 43 14
Width: 1024
VWidth: 0
GlyphClass: 2
Flags: W
LayerCount: 2
Fore
SplineSet
398 1093 m 1,0,-1
 626 1093 l 1,1,-1
 631 1093 l 1,2,-1
 631 1088 l 1,3,-1
 631 747 l 1,4,-1
 960 747 l 1,5,-1
 965 747 l 1,6,-1
 965 742 l 1,7,-1
 965 538 l 1,8,-1
 965 533 l 1,9,-1
 960 533 l 1,10,-1
 631 533 l 1,11,-1
 631 192 l 1,12,-1
 631 187 l 1,13,-1
 626 187 l 1,14,-1
 398 187 l 1,15,-1
 393 187 l 1,16,-1
 393 192 l 1,17,-1
 393 533 l 1,18,-1
 64 533 l 1,19,-1
 59 533 l 1,20,-1
 59 538 l 1,21,-1
 59 742 l 1,22,-1
 59 747 l 1,23,-1
 64 747 l 1,24,-1
 393 747 l 1,25,-1
 393 1088 l 1,26,-1
 393 1093 l 1,27,-1
 398 1093 l 1,0,-1
EndSplineSet
EndChar

StartChar: comma
Encoding: 44 44 15
Width: 1024
VWidth: 0
GlyphClass: 2
Flags: W
LayerCount: 2
Fore
SplineSet
341 421 m 1,0,-1
 683 421 l 1,1,-1
 688 421 l 1,2,-1
 688 416 l 1,3,-1
 688 160 l 1,4,-1
 686.969418673 145.44784237 l 2,5,6
 685.912369006 135.934395367 685.912369006 135.934395367 676.251545139 106.443459351 c 128,-1,7
 666.631918025 77.0782818445 666.631918025 77.0782818445 650.45789434 45.235672716 c 0,8,9
 645.03312052 34.5556492576 645.03312052 34.5556492576 637.501213323 22.0768446995 c 128,-1,10
 629.969306126 9.59804014137 629.969306126 9.59804014137 620.372908015 -4.62604363497 c 128,-1,11
 610.776509904 -18.8501274113 610.776509904 -18.8501274113 599.040037651 -34.9458607872 c 0,12,13
 563.810735492 -83.2603323203 563.810735492 -83.2603323203 515.535533906 -131.535533906 c 2,14,-1
 387.535533906 -259.535533906 l 1,15,-1
 384.169605593 -262.901462219 l 1,16,-1
 380.642402876 -259.704934757 l 1,17,-1
 252.642402876 -143.704934757 l 1,18,-1
 248.750780348 -140.178151841 l 1,19,-1
 252.464466094 -136.464466094 l 1,20,-1
 380.464466094 -8.46446609407 l 2,21,22
 408.844396784 19.915464596 408.844396784 19.915464596 430.987602723 44.7956485192 c 128,-1,23
 453.130808663 69.6758324424 453.130808663 69.6758324424 468.988833894 90.9850538466 c 0,24,25
 500.317596098 133.083078059 500.317596098 133.083078059 503.097096622 146.980580676 c 0,26,-1
 503.192380262 147.373605639 l 1,27,-1
 505.371350079 155 l 1,28,-1
 341 155 l 1,29,-1
 336 155 l 1,30,-1
 336 160 l 1,31,-1
 336 416 l 1,32,-1
 336 421 l 1,33,-1
 341 421 l 1,0,-1
EndSplineSet
EndChar

StartChar: hyphen
Encoding: 45 45 16
Width: 1024
VWidth: 0
GlyphClass: 2
Flags: W
LayerCount: 2
Fore
SplineSet
192 747 m 1,0,-1
 832 747 l 1,1,-1
 837 747 l 1,2,-1
 837 742 l 1,3,-1
 837 538 l 1,4,-1
 837 533 l 1,5,-1
 832 533 l 1,6,-1
 192 533 l 1,7,-1
 187 533 l 1,8,-1
 187 538 l 1,9,-1
 187 742 l 1,10,-1
 187 747 l 1,11,-1
 192 747 l 1,0,-1
EndSplineSet
EndChar

StartChar: period
Encoding: 46 46 17
Width: 1024
VWidth: 0
GlyphClass: 2
Flags: W
LayerCount: 2
Fore
SplineSet
683 -5 m 1,0,-1
 341 -5 l 1,1,-1
 336 -5 l 1,2,-1
 336 0 l 1,3,-1
 336 320 l 1,4,-1
 336 325 l 1,5,-1
 341 325 l 1,6,-1
 683 325 l 1,7,-1
 688 325 l 1,8,-1
 688 320 l 1,9,-1
 688 0 l 1,10,-1
 688 -5 l 1,11,-1
 683 -5 l 1,0,-1
EndSplineSet
EndChar

StartChar: slash
Encoding: 47 47 18
Width: 1024
VWidth: 0
GlyphClass: 2
Flags: W
LayerCount: 2
Fore
SplineSet
900.794475963 1435.5811976 m 1,0,-1
 399.794475963 -257.418802397 l 1,1,-1
 398.73471223 -261 l 1,2,-1
 395 -261 l 1,3,-1
 128 -261 l 1,4,-1
 121.306043824 -261 l 1,5,-1
 123.205524037 -254.581197603 l 1,6,-1
 624.205524037 1438.4188024 l 1,7,-1
 625.26528777 1442 l 1,8,-1
 629 1442 l 1,9,-1
 896 1442 l 1,10,-1
 902.693956176 1442 l 1,11,-1
 900.794475963 1435.5811976 l 1,0,-1
EndSplineSet
EndChar

StartChar: zero
Encoding: 48 48 19
Width: 1024
VWidth: 0
GlyphClass: 2
Flags: W
LayerCount: 2
Fore
SplineSet
196.825195312 1119.09960938 m 0,0,1
 314.307617188 1296 314.307617188 1296 522 1296 c 0,2,3
 563.534828618 1296 563.534828618 1296 601.654517883 1288.89648438 c 128,-1,4
 639.773205053 1281.79296875 639.773205053 1281.79296875 674.394581089 1267.609375 c 128,-1,5
 709.01695922 1253.42675781 709.01695922 1253.42675781 739.592773438 1232.18847656 c 0,6,7
 769.934570312 1210.95019531 769.934570312 1210.95019531 796.836914062 1182.66894531 c 128,-1,8
 823.739257812 1154.38769531 823.739257812 1154.38769531 847.174804688 1119.09960938 c 0,9,10
 905.665039062 1031.02636719 905.665039062 1031.02636719 934.833007812 911.245117188 c 128,-1,11
 964 791.463867188 964 791.463867188 964 640 c 0,12,13
 964 336.811523438 964 336.811523438 847.174804688 160.900390625 c 0,14,15
 729.692382812 -16 729.692382812 -16 522 -16 c 128,-1,16
 314.307617188 -16 314.307617188 -16 196.825195312 160.900390625 c 0,17,18
 80 336.811523438 80 336.811523438 80 640 c 128,-1,19
 80 943.188476562 80 943.188476562 196.825195312 1119.09960938 c 0,0,1
593.920349593 1079.30761719 m 128,-1,21
 562.013648589 1110 562.013648589 1110 522 1110 c 0,22,23
 441.418544352 1110 441.418544352 1110 394.434323772 985.932617188 c 0,24,25
 346.529177996 859.432617188 346.529177996 859.432617188 346.529177996 640 c 128,-1,26
 346.529177996 420.567382812 346.529177996 420.567382812 394.434323772 294.067382812 c 0,27,28
 441.418544352 170 441.418544352 170 522 170 c 128,-1,29
 602.581455648 170 602.581455648 170 649.565676228 294.067382812 c 0,30,31
 697.470822004 420.567382812 697.470822004 420.567382812 697.470822004 640 c 0,32,33
 697.470822004 683.934570312 697.470822004 683.934570312 695.542791453 724.180664062 c 128,-1,34
 693.614760903 764.427734375 693.614760903 764.427734375 689.77272913 800.87890625 c 128,-1,35
 685.929695262 837.329101562 685.929695262 837.329101562 680.173662267 870.068359375 c 128,-1,36
 674.417629271 902.807617188 674.417629271 902.807617188 666.766634857 931.760742188 c 128,-1,37
 659.115640442 960.71484375 659.115640442 960.71484375 649.565676228 985.932617188 c 0,38,20
 625.828052692 1048.61621094 625.828052692 1048.61621094 593.920349593 1079.30761719 c 128,-1,21
421.437774524 773 m 1,39,-1
 426.568500314 773 l 1,40,-1
 617.431499686 773 l 1,41,-1
 622.562225476 773 l 1,42,-1
 622.562225476 768 l 1,43,-1
 622.562225476 512 l 1,44,-1
 622.562225476 507 l 1,45,-1
 617.431499686 507 l 1,46,-1
 426.568500314 507 l 1,47,-1
 421.437774524 507 l 1,48,-1
 421.437774524 512 l 1,49,-1
 421.437774524 768 l 1,50,-1
 421.437774524 773 l 1,39,-1
EndSplineSet
EndChar

StartChar: one
Encoding: 49 49 20
Width: 1024
VWidth: 0
GlyphClass: 2
Flags: W
LayerCount: 2
Fore
SplineSet
479.987304688 1280 m 1,0,-1
 482.05859375 1280 l 1,1,-1
 738.05859375 1280 l 1,2,-1
 743.05859375 1280 l 1,3,-1
 743.05859375 1275 l 1,4,-1
 743.05859375 5 l 1,5,-1
 743.05859375 0 l 1,6,-1
 738.05859375 0 l 1,7,-1
 482.05859375 0 l 1,8,-1
 477.05859375 0 l 1,9,-1
 477.05859375 5 l 1,10,-1
 477.05859375 976.301757812 l 1,11,-1
 277.594726562 778.391601562 l 1,12,-1
 274.046875 774.87109375 l 1,13,-1
 270.510742188 778.404296875 l 1,14,-1
 126.510742188 922.274414062 l 1,15,-1
 123 925.782226562 l 1,16,-1
 126.5234375 929.278320312 l 1,17,-1
 478.5234375 1278.53515625 l 1,18,-1
 479.987304688 1280 l 1,0,-1
EndSplineSet
EndChar

StartChar: two
Encoding: 50 50 21
Width: 1024
VWidth: 0
GlyphClass: 2
Flags: W
LayerCount: 2
Fore
SplineSet
232.543945312 1201.20996094 m 0,0,1
 336.994140625 1296 336.994140625 1296 522 1296 c 0,2,3
 566.380709932 1296 566.380709932 1296 606.215512427 1289.76464844 c 128,-1,4
 646.049304271 1283.52929688 646.049304271 1283.52929688 680.961914062 1271.0546875 c 0,5,6
 715.057617188 1258.57910156 715.057617188 1258.57910156 744.723632812 1239.81640625 c 128,-1,7
 774.389648438 1221.05371094 774.389648438 1221.05371094 799.526367188 1196.04492188 c 0,8,9
 849.775390625 1146.04980469 849.775390625 1146.04980469 874.887695312 1078.1953125 c 128,-1,10
 900 1010.34179688 900 1010.34179688 900 925 c 0,11,12
 900 888.541992188 900 888.541992188 893.916992188 855.591796875 c 0,13,14
 890.858398438 839.02734375 890.858398438 839.02734375 885.272460938 821.506835938 c 128,-1,15
 879.686523438 803.986328125 879.686523438 803.986328125 871.579101562 785.4921875 c 0,16,17
 855.521484375 748.860351562 855.521484375 748.860351562 841.456054688 721.231445312 c 0,18,19
 836.702148438 711.89453125 836.702148438 711.89453125 830.01171875 700.705078125 c 128,-1,20
 823.3203125 689.514648438 823.3203125 689.514648438 814.732421875 676.524414062 c 128,-1,21
 806.14453125 663.534179688 806.14453125 663.534179688 795.581054688 648.611328125 c 0,22,23
 764.015625 604.01953125 764.015625 604.01953125 742.946289062 576.930664062 c 128,-1,24
 721.951171875 549.935546875 721.951171875 549.935546875 677.953125 492.938476562 c 2,25,-1
 432.167290256 186 l 1,26,-1
 911 186 l 1,27,-1
 916 186 l 1,28,-1
 916 181.26171875 l 1,29,-1
 916 5 l 1,30,-1
 916 0 l 1,31,-1
 911 0 l 1,32,-1
 133 0 l 1,33,-1
 128 0 l 1,34,-1
 128 5 l 1,35,-1
 128 191 l 1,36,-1
 128 192.7109375 l 1,37,-1
 129.048828125 194.063476562 l 1,38,-1
 484.79895357 648.069335938 l 2,39,40
 499.266420213 666.043945312 499.266420213 666.043945312 511.681255018 681.6953125 c 128,-1,41
 524.096089823 697.346679688 524.096089823 697.346679688 534.422920012 710.631835938 c 128,-1,42
 544.750760852 723.916992188 544.750760852 723.916992188 553.003735536 734.849609375 c 128,-1,43
 561.25671022 745.783203125 561.25671022 745.783203125 567.427744192 754.35546875 c 0,44,45
 575.57561119 765.672851562 575.57561119 765.672851562 583.284855727 778.654296875 c 128,-1,46
 590.994100264 791.635742188 590.994100264 791.635742188 598.285946008 806.330078125 c 128,-1,47
 605.577791752 821.024414062 605.577791752 821.024414062 612.413833972 837.373046875 c 0,48,49
 632.734990226 885.971679688 632.734990226 885.971679688 632.734990226 935 c 0,50,51
 632.734990226 1016.578125 632.734990226 1016.578125 602.461955241 1063.87011719 c 0,52,53
 572.931748617 1110 572.931748617 1110 522 1110 c 0,54,55
 463.609648252 1110 463.609648252 1110 429.452682124 1063.6015625 c 0,56,57
 394.706506562 1016.40332031 394.706506562 1016.40332031 394.706506562 935 c 2,58,-1
 394.706506562 930 l 1,59,-1
 389.531974309 930 l 1,60,-1
 133 930 l 1,61,-1
 128 930 l 1,62,-1
 128 935 l 2,63,64
 128 1103.04101562 128 1103.04101562 232.543945312 1201.20996094 c 0,0,1
EndSplineSet
EndChar

StartChar: three
Encoding: 51 51 22
Width: 1024
VWidth: 0
GlyphClass: 2
Flags: W
LayerCount: 2
Fore
SplineSet
796.081054688 723.418945312 m 0,0,1
 772.436523438 705.055664062 772.436523438 705.055664062 754.836914062 698.891601562 c 1,2,-1
 749.936523438 696.764648438 l 2,3,4
 751.432617188 696.140625 751.432617188 696.140625 752.986328125 695.481445312 c 128,-1,5
 754.541015625 694.822265625 754.541015625 694.822265625 756.163085938 694.124023438 c 128,-1,6
 757.78515625 693.424804688 757.78515625 693.424804688 759.513671875 692.669921875 c 0,7,8
 772.528320312 686.987304688 772.528320312 686.987304688 805.98046875 662.341796875 c 128,-1,9
 839.5078125 637.640625 839.5078125 637.640625 864.916015625 605.872070312 c 0,10,11
 869.208007812 600.504882812 869.208007812 600.504882812 873.354492188 594.400390625 c 128,-1,12
 877.501953125 588.295898438 877.501953125 588.295898438 881.49609375 581.463867188 c 128,-1,13
 885.491210938 574.630859375 885.491210938 574.630859375 889.342773438 567.07421875 c 128,-1,14
 893.193359375 559.516601562 893.193359375 559.516601562 896.909179688 551.213867188 c 128,-1,15
 900.624023438 542.912109375 900.624023438 542.912109375 904.196289062 533.900390625 c 128,-1,16
 907.767578125 524.888671875 907.767578125 524.888671875 911.21875 515.1171875 c 0,17,18
 921.616210938 485.674804688 921.616210938 485.674804688 926.807617188 453.377929688 c 128,-1,19
 932 421.08203125 932 421.08203125 932 385.959960938 c 0,20,21
 932 173.7890625 932 173.7890625 781.1015625 82.5322265625 c 0,22,23
 629.590417652 -8 629.590417652 -8 335 -8 c 0,24,25
 278.821289062 -8 278.821289062 -8 228.10546875 -3.984375 c 128,-1,26
 177.373046875 0.0341796875 177.373046875 0.0341796875 154.124023438 4.0771484375 c 2,27,-1
 132.10546875 8.0810546875 l 1,28,-1
 128 8.8271484375 l 1,29,-1
 128 13 l 1,30,-1
 128 191 l 1,31,-1
 128 196 l 1,32,-1
 133 196 l 1,33,-1
 335 196 l 2,34,35
 497.685599564 196 497.685599564 196 582.269407791 240.302734375 c 0,36,37
 665.330864851 283.80859375 665.330864851 283.80859375 665.330864851 386.5 c 0,38,39
 665.330864851 474.942382812 665.330864851 474.942382812 599.07983689 525.7734375 c 0,40,41
 532.315305454 577 532.315305454 577 415.33033589 577 c 2,42,-1
 261 577 l 1,43,-1
 256 577 l 1,44,-1
 256 582 l 1,45,-1
 256 768 l 1,46,-1
 256 773 l 1,47,-1
 261 773 l 1,48,-1
 402.933615446 773 l 2,49,50
 509.616232375 773 509.616232375 773 571.227569798 819.186523438 c 0,51,52
 632.272943666 864.94921875 632.272943666 864.94921875 632.272943666 943.262695312 c 0,53,54
 632.272943666 1018.8515625 632.272943666 1018.8515625 559.339308591 1050.99316406 c 0,55,56
 484.441447058 1084 484.441447058 1084 342 1084 c 2,57,-1
 165 1084 l 1,58,-1
 160 1084 l 1,59,-1
 160 1089 l 1,60,-1
 160 1267 l 1,61,-1
 160 1270.95996094 l 1,62,-1
 163.854492188 1271.8671875 l 2,63,64
 198.23046875 1279.95507812 198.23046875 1279.95507812 242.73046875 1283.97753906 c 128,-1,65
 287.231445312 1288 287.231445312 1288 342 1288 c 0,66,67
 475.709870281 1288 475.709870281 1288 576.371684182 1270.5546875 c 0,68,69
 677.385585927 1253.04882812 677.385585927 1253.04882812 750.869140625 1213.97460938 c 0,70,71
 824.665039062 1174.58105469 824.665039062 1174.58105469 862.376953125 1106.81542969 c 0,72,73
 871.803710938 1089.87597656 871.803710938 1089.87597656 878.868164062 1071.18261719 c 128,-1,74
 885.932617188 1052.48828125 885.932617188 1052.48828125 890.624023438 1032.08398438 c 128,-1,75
 895.315429688 1011.67871094 895.315429688 1011.67871094 897.658203125 989.580078125 c 128,-1,76
 900 967.481445312 900 967.481445312 900 943.657226562 c 0,77,78
 900 887.22265625 900 887.22265625 883.206054688 840.762695312 c 128,-1,79
 866.381835938 794.216796875 866.381835938 794.216796875 842.745117188 767.702148438 c 0,80,81
 831.104492188 754.643554688 831.104492188 754.643554688 819.442382812 743.573242188 c 128,-1,82
 807.779296875 732.50390625 807.779296875 732.50390625 796.081054688 723.418945312 c 0,0,1
EndSplineSet
EndChar

StartChar: four
Encoding: 52 52 23
Width: 1024
VWidth: 0
GlyphClass: 2
Flags: W
LayerCount: 2
Fore
SplineSet
581.590367373 1280 m 1,0,-1
 584.471723605 1280 l 1,1,-1
 815 1280 l 1,2,-1
 820 1280 l 1,3,-1
 820 1275 l 1,4,-1
 820 447 l 1,5,-1
 975 447 l 1,6,-1
 980 447 l 1,7,-1
 980 442 l 1,8,-1
 980 256 l 1,9,-1
 980 251 l 1,10,-1
 975 251 l 1,11,-1
 820 251 l 1,12,-1
 820 5 l 1,13,-1
 820 0 l 1,14,-1
 815 0 l 1,15,-1
 584.471723605 0 l 1,16,-1
 579.351090523 0 l 1,17,-1
 579.351090523 5 l 1,18,-1
 579.351090523 251 l 1,19,-1
 69 251 l 1,20,-1
 64 251 l 1,21,-1
 64 255.975585938 l 1,22,-1
 64 441.07421875 l 1,23,-1
 64 442.466796875 l 1,24,-1
 64.7265625 443.657226562 l 1,25,-1
 580.095182518 1277.59570312 l 1,26,-1
 581.590367373 1280 l 1,0,-1
579.351090523 447 m 1,27,-1
 579.351090523 869.120117188 l 1,28,-1
 317.053661742 447 l 1,29,-1
 579.351090523 447 l 1,27,-1
EndSplineSet
EndChar

StartChar: five
Encoding: 53 53 24
Width: 1024
VWidth: 0
GlyphClass: 2
Flags: W
LayerCount: 2
Fore
SplineSet
879 1094 m 1,0,-1
 427.727056334 1094 l 1,1,-1
 427.727056334 831 l 1,2,-1
 521.735519704 831 l 2,3,4
 713.915039062 831 713.915039062 831 822.83984375 733.799804688 c 0,5,6
 932 636.390625 932 636.390625 932 469.15625 c 0,7,8
 932 337.920898438 932 337.920898438 892.102539062 244.540039062 c 0,9,10
 852.043945312 150.78515625 852.043945312 150.78515625 773.375976562 95.7919921875 c 0,11,12
 695.0859375 41.0625 695.0859375 41.0625 586.96962919 16.4873046875 c 128,-1,13
 478.947262526 -8 478.947262526 -8 335 -8 c 0,14,15
 318.95703125 -8 318.95703125 -8 303.760742188 -7.7490234375 c 128,-1,16
 288.563476562 -7.4990234375 288.563476562 -7.4990234375 274.201171875 -6.9970703125 c 128,-1,17
 259.83984375 -6.4951171875 259.83984375 -6.4951171875 246.314453125 -5.7421875 c 128,-1,18
 232.790039062 -4.9892578125 232.790039062 -4.9892578125 220.10546875 -3.984375 c 0,19,20
 169.284179688 0.041015625 169.284179688 0.041015625 149.942382812 4.11328125 c 2,21,-1
 131.915039062 8.119140625 l 1,22,-1
 128 8.9892578125 l 1,23,-1
 128 13 l 1,24,-1
 128 191 l 1,25,-1
 128 196 l 1,26,-1
 133 196 l 1,27,-1
 335 196 l 2,28,29
 497.226573864 196 497.226573864 196 581.567249798 259.216796875 c 0,30,31
 665.330864851 322 665.330864851 322 665.330864851 468.891601562 c 0,32,33
 665.330864851 546.209960938 665.330864851 546.209960938 626.744458311 590.814453125 c 0,34,35
 588.521236941 635 588.521236941 635 521.735519704 635 c 2,36,-1
 165 635 l 1,37,-1
 160 635 l 1,38,-1
 160 639.9609375 l 1,39,-1
 160 1275 l 1,40,-1
 160 1280 l 1,41,-1
 165 1280 l 1,42,-1
 879 1280 l 1,43,-1
 884 1280 l 1,44,-1
 884 1275 l 1,45,-1
 884 1098.73828125 l 1,46,-1
 884 1094 l 1,47,-1
 879 1094 l 1,0,-1
EndSplineSet
EndChar

StartChar: six
Encoding: 54 54 25
Width: 1024
VWidth: 0
GlyphClass: 2
Flags: W
LayerCount: 2
Fore
SplineSet
823.03515625 92.1298828125 m 128,-1,1
 714.071289062 -16 714.071289062 -16 522 -16 c 128,-1,2
 329.928710938 -16 329.928710938 -16 220.96484375 92.1279296875 c 0,3,4
 166.467773438 146.20703125 166.467773438 146.20703125 139.233398438 219.739257812 c 128,-1,5
 112 293.271484375 112 293.271484375 112 385.892578125 c 0,6,7
 112 546.803710938 112 546.803710938 154.499023438 633.158203125 c 2,8,-1
 471.976134196 1277.17773438 l 1,9,-1
 473.384235764 1280 l 1,10,-1
 476.618437578 1280 l 1,11,-1
 767 1280 l 1,12,-1
 774.973632812 1280 l 1,13,-1
 771.500976562 1272.87695312 l 1,14,-1
 530.19881743 787.748046875 l 1,15,16
 623.994698941 786.451171875 623.994698941 786.451171875 697.387695312 759.181640625 c 0,17,18
 768.884765625 731.912109375 768.884765625 731.912109375 822.551757812 678.163085938 c 0,19,20
 932 568.546875 932 568.546875 932 385.899414062 c 0,21,0
 932 200.260742188 932 200.260742188 823.03515625 92.1298828125 c 128,-1,1
395.537773663 226.309570312 m 0,22,23
 441.949728005 170 441.949728005 170 522 170 c 0,24,25
 562.227588369 170 562.227588369 170 593.712457415 184.041992188 c 128,-1,26
 625.197326461 198.083007812 625.197326461 198.083007812 648.462226337 226.309570312 c 0,27,28
 664.008755456 245.171875 664.008755456 245.171875 674.394259942 268.59765625 c 128,-1,29
 684.779764428 292.024414062 684.779764428 292.024414062 689.912109375 320.288085938 c 128,-1,30
 695 348.551757812 695 348.551757812 695 381.5 c 0,31,32
 695 479.89453125 695 479.89453125 648.462226337 536.690429688 c 0,33,34
 632.951957344 555.508789062 632.951957344 555.508789062 613.832798567 568.001953125 c 128,-1,35
 594.713639789 580.495117188 594.713639789 580.495117188 571.777095501 586.748046875 c 128,-1,36
 548.840551212 593 548.840551212 593 522 593 c 0,37,38
 423.388572281 593 423.388572281 593 386.259210253 547.827148438 c 0,39,40
 349 502.161132812 349 502.161132812 349 381.5 c 0,41,42
 349 283.10546875 349 283.10546875 395.537773663 226.309570312 c 0,22,23
EndSplineSet
EndChar

StartChar: seven
Encoding: 55 55 26
Width: 1024
VWidth: 0
GlyphClass: 2
Flags: W
LayerCount: 2
Fore
SplineSet
948 1280 m 1,0,-1
 948 1275 l 1,1,-1
 948 1090.45117188 l 1,2,-1
 948 1089.54003906 l 1,3,-1
 947.673828125 1088.6875 l 1,4,-1
 526.807183184 3.22265625 l 1,5,-1
 525.546628463 -0 l 1,6,-1
 522 0 l 1,7,-1
 243 0 l 1,8,-1
 235.749023438 0 l 1,9,-1
 238.326171875 6.77734375 l 1,10,-1
 660.593722805 1094 l 1,11,-1
 101 1094 l 1,12,-1
 96 1094 l 1,13,-1
 96 1098.73828125 l 1,14,-1
 96 1275 l 1,15,-1
 96 1280 l 1,16,-1
 101 1280 l 1,17,-1
 943 1280 l 1,18,-1
 948 1280 l 1,0,-1
EndSplineSet
EndChar

StartChar: eight
Encoding: 56 56 27
Width: 1024
VWidth: 0
GlyphClass: 2
Flags: W
LayerCount: 2
Fore
SplineSet
117.518554688 905.056640625 m 128,-1,1
 112 927.216796875 112 927.216796875 112 949.639648438 c 0,2,3
 112 1110.71386719 112 1110.71386719 221.249023438 1203.50390625 c 0,4,5
 330.267182271 1296 330.267182271 1296 522 1296 c 128,-1,6
 713.732817729 1296 713.732817729 1296 822.750976562 1203.50390625 c 0,7,8
 932 1110.71386719 932 1110.71386719 932 949.639648438 c 0,9,10
 932 934.705078125 932 934.705078125 929.658203125 919.924804688 c 128,-1,11
 927.317382812 905.14453125 927.317382812 905.14453125 922.65234375 890.576171875 c 128,-1,12
 917.987304688 876.006835938 917.987304688 876.006835938 911.00390625 861.638671875 c 0,13,14
 890.134765625 818.702148438 890.134765625 818.702148438 860.03515625 788.830078125 c 0,15,16
 830.298828125 759.318359375 830.298828125 759.318359375 800.532226562 736.787109375 c 0,17,18
 794.588867188 732.288085938 794.588867188 732.288085938 788.982421875 728.245117188 c 128,-1,19
 783.375976562 724.202148438 783.375976562 724.202148438 778.086914062 720.6015625 c 128,-1,20
 772.797851562 717.000976562 772.797851562 717.000976562 767.848632812 713.860351562 c 128,-1,21
 762.900390625 710.719726562 762.900390625 710.719726562 758.2734375 708.030273438 c 128,-1,22
 753.647460938 705.33984375 753.647460938 705.33984375 749.365234375 703.11328125 c 2,23,-1
 737.256835938 696.50390625 l 1,24,25
 744.809570312 692.186523438 744.809570312 692.186523438 754.552734375 686.4453125 c 0,26,27
 762.873046875 681.54296875 762.873046875 681.54296875 776.897460938 671.1015625 c 128,-1,28
 790.922851562 660.66015625 790.922851562 660.66015625 811.153320312 644.34765625 c 0,29,30
 851.500976562 611.8125 851.500976562 611.8125 882.29296875 576.244140625 c 128,-1,31
 913.256835938 540.4765625 913.256835938 540.4765625 938.551757812 485.248046875 c 0,32,33
 964 429.686523438 964 429.686523438 964 373.03515625 c 0,34,35
 964 193.172851562 964 193.172851562 846.337890625 88.48046875 c 0,36,37
 728.913085938 -16 728.913085938 -16 522 -16 c 128,-1,38
 315.086914062 -16 315.086914062 -16 197.662109375 88.48046875 c 0,39,40
 80 193.172851562 80 193.172851562 80 373.03515625 c 0,41,42
 80 387.192382812 80 387.192382812 81.5302734375 401.26171875 c 128,-1,43
 83.060546875 415.33203125 83.060546875 415.33203125 86.1162109375 429.29296875 c 128,-1,44
 89.1728515625 443.25390625 89.1728515625 443.25390625 93.75 457.106445312 c 128,-1,45
 98.3271484375 470.958007812 98.3271484375 470.958007812 104.423828125 484.69921875 c 0,46,47
 128.7578125 539.5390625 128.7578125 539.5390625 163.318359375 576.864257812 c 0,48,49
 197.509765625 613.791015625 197.509765625 613.791015625 231.723632812 643.251953125 c 128,-1,50
 266.076171875 672.833007812 266.076171875 672.833007812 290.48046875 686.9609375 c 2,51,-1
 306.629882812 696.309570312 l 2,52,53
 304.189453125 697.600585938 304.189453125 697.600585938 302.047851562 698.75 c 128,-1,54
 299.907226562 699.899414062 299.907226562 699.899414062 297.841796875 701.026367188 c 128,-1,55
 295.776367188 702.153320312 295.776367188 702.153320312 293.072265625 703.64453125 c 0,56,57
 286.055664062 707.512695312 286.055664062 707.512695312 274.034179688 715.591796875 c 128,-1,58
 262.01171875 723.671875 262.01171875 723.671875 244.56640625 736.217773438 c 128,-1,59
 227.13671875 748.751953125 227.13671875 748.751953125 211.711914062 762.052734375 c 128,-1,60
 196.286132812 775.353515625 196.286132812 775.353515625 182.868164062 789.423828125 c 0,61,62
 155.859375 817.74609375 155.859375 817.74609375 134.028320312 861.079101562 c 0,63,0
 123.036132812 882.895507812 123.036132812 882.895507812 117.518554688 905.056640625 c 128,-1,1
395.653873242 1068.80957031 m 128,-1,65
 349.60761347 1027.79589844 349.60761347 1027.79589844 349.60761347 957 c 0,66,67
 349.60761347 951.901367188 349.60761347 951.901367188 350.095633677 946.848632812 c 128,-1,68
 350.584655979 941.795898438 350.584655979 941.795898438 351.563702677 936.770507812 c 128,-1,69
 352.543751471 931.745117188 352.543751471 931.745117188 354.01983723 926.755859375 c 128,-1,70
 355.494920895 921.765625 355.494920895 921.765625 357.46704362 916.801757812 c 128,-1,71
 359.439166345 911.837890625 359.439166345 911.837890625 361.914340701 906.897460938 c 128,-1,72
 364.389515056 901.95703125 364.389515056 901.95703125 367.365736852 897.041015625 c 0,73,74
 385.390417473 867.278320312 385.390417473 867.278320312 410.371640756 846.828125 c 0,75,76
 435.780758553 826.028320312 435.780758553 826.028320312 461.678898652 809.698242188 c 128,-1,77
 487.508896298 793.41015625 487.508896298 793.41015625 505.612742415 785.569335938 c 2,78,-1
 522.025052372 778.4609375 l 2,79,80
 525.576476629 779.983398438 525.576476629 779.983398438 529.613916904 781.803710938 c 128,-1,81
 533.651357179 783.625 533.651357179 783.625 538.77005783 786.010742188 c 0,82,83
 550.352270462 791.409179688 550.352270462 791.409179688 580.929191559 809.287109375 c 128,-1,84
 611.326737673 827.061523438 611.326737673 827.061523438 634.587364045 846.7734375 c 0,85,86
 657.570410136 866.249023438 657.570410136 866.249023438 676.133215707 896.5625 c 0,87,88
 680.724814451 904.060546875 680.724814451 904.060546875 684.156989418 911.584960938 c 128,-1,89
 687.58816229 919.109375 687.58816229 919.109375 689.859911384 926.659179688 c 128,-1,90
 692.132662574 934.208984375 692.132662574 934.208984375 693.262023504 941.783203125 c 128,-1,91
 694.39238653 949.357421875 694.39238653 949.357421875 694.39238653 957 c 0,92,93
 694.39238653 1027.79589844 694.39238653 1027.79589844 648.346126758 1068.80957031 c 128,-1,94
 602.100450105 1110 602.100450105 1110 522 1110 c 128,-1,64
 441.899549895 1110 441.899549895 1110 395.653873242 1068.80957031 c 128,-1,65
538.175815566 563.528320312 m 2,95,-1
 521.863715096 571.4765625 l 1,96,97
 517.704019246 569.607421875 517.704019246 569.607421875 514.042364552 567.7890625 c 128,-1,98
 510.379707762 565.971679688 510.379707762 565.971679688 504.947351414 563.103515625 c 0,99,100
 492.87411229 556.73046875 492.87411229 556.73046875 461.802156322 535.881835938 c 0,101,102
 446.334821837 525.50390625 446.334821837 525.50390625 432.789505334 514.647460938 c 128,-1,103
 419.24418883 503.791992188 419.24418883 503.791992188 407.620890308 492.46484375 c 0,104,105
 404.750890569 489.666992188 404.750890569 489.666992188 401.940014429 486.676757812 c 128,-1,106
 399.130140383 483.686523438 399.130140383 483.686523438 396.374379461 480.498046875 c 128,-1,107
 393.618618539 477.309570312 393.618618539 477.309570312 390.921981215 473.924804688 c 128,-1,108
 388.225343891 470.540039062 388.225343891 470.540039062 385.586828069 466.958984375 c 128,-1,109
 382.948312248 463.376953125 382.948312248 463.376953125 380.366915835 459.596679688 c 128,-1,110
 377.786521517 455.81640625 377.786521517 455.81640625 375.266252892 451.841796875 c 128,-1,111
 372.745984267 447.866210938 372.745984267 447.866210938 370.28283505 443.688476562 c 128,-1,112
 367.819685833 439.51171875 367.819685833 439.51171875 365.418666499 435.140625 c 0,113,114
 346.529177996 400.74609375 346.529177996 400.74609375 346.529177996 366 c 0,115,116
 346.529177996 274.87109375 346.529177996 274.87109375 393.497365058 222.282226562 c 0,117,118
 440.191980218 170 440.191980218 170 522 170 c 128,-1,119
 603.808019782 170 603.808019782 170 650.502634942 222.282226562 c 0,120,121
 697.470822004 274.87109375 697.470822004 274.87109375 697.470822004 366 c 0,122,123
 697.470822004 374.69140625 697.470822004 374.69140625 696.358496686 383.346679688 c 128,-1,124
 695.245169274 392.001953125 695.245169274 392.001953125 693.012501879 400.653320312 c 128,-1,125
 690.77883239 409.3046875 690.77883239 409.3046875 687.414799875 417.951171875 c 128,-1,126
 684.05076736 426.59765625 684.05076736 426.59765625 679.55436763 435.239257812 c 0,127,128
 661.501628353 469.936523438 661.501628353 469.936523438 635.500272482 493.326171875 c 0,129,130
 609.03695087 517.131835938 609.03695087 517.131835938 582.593671156 535.962890625 c 128,-1,131
 556.261623974 554.715820312 556.261623974 554.715820312 538.175815566 563.528320312 c 2,95,-1
EndSplineSet
EndChar

StartChar: nine
Encoding: 57 57 28
Width: 1024
VWidth: 0
GlyphClass: 2
Flags: W
LayerCount: 2
Fore
SplineSet
220.96484375 1187.87011719 m 128,-1,1
 329.928710938 1296 329.928710938 1296 522 1296 c 0,2,3
 570.099057437 1296 570.099057437 1296 613.24961487 1289.25390625 c 128,-1,4
 656.399165077 1282.50683594 656.399165077 1282.50683594 694.341796875 1269.01074219 c 0,5,6
 731.376953125 1255.51464844 731.376953125 1255.51464844 763.575195312 1235.21875 c 128,-1,7
 795.7734375 1214.92382812 795.7734375 1214.92382812 823.03515625 1187.87207031 c 0,8,9
 877.532226562 1133.79296875 877.532226562 1133.79296875 904.766601562 1060.26074219 c 128,-1,10
 932 986.728515625 932 986.728515625 932 894.107421875 c 0,11,12
 932 733.196289062 932 733.196289062 889.500976562 646.841796875 c 2,13,-1
 572.023865804 2.822265625 l 1,14,-1
 570.615764236 0 l 1,15,-1
 567.381562422 0 l 1,16,-1
 277 0 l 1,17,-1
 269.026367188 0 l 1,18,-1
 272.499023438 7.123046875 l 1,19,-1
 513.80118257 492.251953125 l 1,20,21
 328.291015625 494.830078125 328.291015625 494.830078125 221.448242188 601.836914062 c 0,22,23
 166.721679688 656.647460938 166.721679688 656.647460938 139.360351562 729.8046875 c 128,-1,24
 112 802.961914062 112 802.961914062 112 894.100585938 c 0,25,0
 112 1079.73925781 112 1079.73925781 220.96484375 1187.87011719 c 128,-1,1
648.462226337 1053.69042969 m 0,26,27
 602.050271995 1110 602.050271995 1110 522 1110 c 128,-1,28
 441.949728005 1110 441.949728005 1110 395.537773663 1053.69042969 c 0,29,30
 349 996.89453125 349 996.89453125 349 898.5 c 0,31,32
 349 849.129882812 349 849.129882812 360.460130444 810.380859375 c 0,33,34
 372.19431018 771.630859375 372.19431018 771.630859375 395.537773663 743.309570312 c 128,-1,35
 418.803680765 715.083007812 418.803680765 715.083007812 450.287542585 701.041015625 c 128,-1,36
 481.772411631 687 481.772411631 687 522 687 c 0,37,38
 620.611427719 687 620.611427719 687 657.740789747 732.172851562 c 0,39,40
 695 777.838867188 695 777.838867188 695 898.5 c 0,41,42
 695 996.89453125 695 996.89453125 648.462226337 1053.69042969 c 0,26,27
EndSplineSet
EndChar

StartChar: colon
Encoding: 58 58 29
Width: 1024
VWidth: 0
GlyphClass: 2
Flags: W
LayerCount: 2
Fore
SplineSet
341 1189 m 1,0,-1
 683 1189 l 1,1,-1
 688 1189 l 1,2,-1
 688 1184 l 1,3,-1
 688 864 l 1,4,-1
 688 859 l 1,5,-1
 683 859 l 1,6,-1
 341 859 l 1,7,-1
 336 859 l 1,8,-1
 336 864 l 1,9,-1
 336 1184 l 1,10,-1
 336 1189 l 1,11,-1
 341 1189 l 1,0,-1
341 421 m 1,12,-1
 683 421 l 1,13,-1
 688 421 l 1,14,-1
 688 416 l 1,15,-1
 688 96 l 1,16,-1
 688 91 l 1,17,-1
 683 91 l 1,18,-1
 341 91 l 1,19,-1
 336 91 l 1,20,-1
 336 96 l 1,21,-1
 336 416 l 1,22,-1
 336 421 l 1,23,-1
 341 421 l 1,12,-1
EndSplineSet
EndChar

StartChar: semicolon
Encoding: 59 59 30
Width: 1024
VWidth: 0
GlyphClass: 2
Flags: W
LayerCount: 2
Fore
SplineSet
341 1189 m 1,0,-1
 683 1189 l 1,1,-1
 688 1189 l 1,2,-1
 688 1184 l 1,3,-1
 688 864 l 1,4,-1
 688 859 l 1,5,-1
 683 859 l 1,6,-1
 341 859 l 1,7,-1
 336 859 l 1,8,-1
 336 864 l 1,9,-1
 336 1184 l 1,10,-1
 336 1189 l 1,11,-1
 341 1189 l 1,0,-1
341 421 m 1,12,-1
 683 421 l 1,13,-1
 688 421 l 1,14,-1
 688 416 l 1,15,-1
 688 160 l 1,16,-1
 686.969418673 145.44784237 l 2,17,18
 685.912369006 135.934395367 685.912369006 135.934395367 676.251545139 106.443459351 c 128,-1,19
 666.631918025 77.0782818445 666.631918025 77.0782818445 650.45789434 45.235672716 c 0,20,21
 645.03312052 34.5556492576 645.03312052 34.5556492576 637.501213323 22.0768446995 c 128,-1,22
 629.969306126 9.59804014137 629.969306126 9.59804014137 620.372908015 -4.62604363497 c 128,-1,23
 610.776509904 -18.8501274113 610.776509904 -18.8501274113 599.040037651 -34.9458607872 c 0,24,25
 563.810735492 -83.2603323203 563.810735492 -83.2603323203 515.535533906 -131.535533906 c 2,26,-1
 387.535533906 -259.535533906 l 1,27,-1
 384.169605593 -262.901462219 l 1,28,-1
 380.642402876 -259.704934757 l 1,29,-1
 252.642402876 -143.704934757 l 1,30,-1
 248.750780348 -140.178151841 l 1,31,-1
 252.464466094 -136.464466094 l 1,32,-1
 380.464466094 -8.46446609407 l 2,33,34
 408.844396784 19.915464596 408.844396784 19.915464596 430.987602723 44.7956485192 c 128,-1,35
 453.130808663 69.6758324424 453.130808663 69.6758324424 468.988833894 90.9850538466 c 0,36,37
 500.317596098 133.083078059 500.317596098 133.083078059 503.097096622 146.980580676 c 0,38,-1
 503.192380262 147.373605639 l 1,39,-1
 505.371350079 155 l 1,40,-1
 341 155 l 1,41,-1
 336 155 l 1,42,-1
 336 160 l 1,43,-1
 336 416 l 1,44,-1
 336 421 l 1,45,-1
 341 421 l 1,12,-1
EndSplineSet
EndChar

StartChar: less
Encoding: 60 60 31
Width: 1024
VWidth: 0
GlyphClass: 2
Flags: W
LayerCount: 2
Fore
SplineSet
930.922726546 1019.94319466 m 1,0,-1
 403.55365687 640 l 1,1,-1
 930.922726546 260.056805336 l 1,2,-1
 934.985874571 257.129509198 l 1,3,-1
 932.052234366 253.07093929 l 1,4,-1
 799.052234366 69.0709392899 l 1,5,-1
 796.126629932 65.0234865396 l 1,6,-1
 792.075725768 67.9443101428 l 1,7,-1
 93.0757257682 571.944310143 l 1,8,-1
 91 573.440970783 l 1,9,-1
 91 576 l 1,10,-1
 91 704 l 1,11,-1
 91 706.559029217 l 1,12,-1
 93.0757257682 708.055689857 l 1,13,-1
 792.075725768 1212.05568986 l 1,14,-1
 796.126629932 1214.97651346 l 1,15,-1
 799.052234366 1210.92906071 l 1,16,-1
 932.052234366 1026.92906071 l 1,17,-1
 934.985874571 1022.8704908 l 1,18,-1
 930.922726546 1019.94319466 l 1,0,-1
EndSplineSet
EndChar

StartChar: equal
Encoding: 61 61 32
Width: 1024
VWidth: 0
GlyphClass: 2
Flags: W
LayerCount: 2
Fore
SplineSet
96 951 m 1,0,-1
 928 951 l 1,1,-1
 933 951 l 1,2,-1
 933 946 l 1,3,-1
 933 742 l 1,4,-1
 933 737 l 1,5,-1
 928 737 l 1,6,-1
 96 737 l 1,7,-1
 91 737 l 1,8,-1
 91 742 l 1,9,-1
 91 946 l 1,10,-1
 91 951 l 1,11,-1
 96 951 l 1,0,-1
96 543 m 1,12,-1
 928 543 l 1,13,-1
 933 543 l 1,14,-1
 933 538 l 1,15,-1
 933 334 l 1,16,-1
 933 329 l 1,17,-1
 928 329 l 1,18,-1
 96 329 l 1,19,-1
 91 329 l 1,20,-1
 91 334 l 1,21,-1
 91 538 l 1,22,-1
 91 543 l 1,23,-1
 96 543 l 1,12,-1
EndSplineSet
EndChar

StartChar: greater
Encoding: 62 62 33
Width: 1024
VWidth: 0
GlyphClass: 2
Flags: W
LayerCount: 2
Fore
SplineSet
91.9477656341 1026.92906071 m 1,0,-1
 224.947765634 1210.92906071 l 1,1,-1
 227.873370068 1214.97651346 l 1,2,-1
 231.924274232 1212.05568986 l 1,3,-1
 930.924274232 708.055689857 l 1,4,-1
 933 706.559029217 l 1,5,-1
 933 704 l 1,6,-1
 933 576 l 1,7,-1
 933 573.440970783 l 1,8,-1
 930.924274232 571.944310143 l 1,9,-1
 231.924274232 67.9443101428 l 1,10,-1
 227.873370068 65.0234865396 l 1,11,-1
 224.947765634 69.0709392899 l 1,12,-1
 91.9477656341 253.07093929 l 1,13,-1
 89.0141254287 257.129509198 l 1,14,-1
 93.0772734538 260.056805336 l 1,15,-1
 620.44634313 640 l 1,16,-1
 93.0772734538 1019.94319466 l 1,17,-1
 89.0141254287 1022.8704908 l 1,18,-1
 91.9477656341 1026.92906071 l 1,0,-1
EndSplineSet
EndChar

StartChar: question
Encoding: 63 63 34
Width: 1024
VWidth: 0
GlyphClass: 2
Flags: W
LayerCount: 2
Fore
SplineSet
159.115306191 1276.92110931 m 2,0,1
 248.554135641 1293 248.554135641 1293 392 1293 c 0,2,3
 630.403783627 1293 630.403783627 1293 757.102432252 1215.76934964 c 0,4,5
 885 1137.80788404 885 1137.80788404 885 964 c 0,6,7
 885 828.948049454 885 828.948049454 807.558565963 750.487649179 c 0,8,9
 731.726259931 673.657549647 731.726259931 673.657549647 602 672.027556825 c 1,10,-1
 602 512 l 1,11,-1
 602 507 l 1,12,-1
 597 507 l 1,13,-1
 341 507 l 1,14,-1
 336 507 l 1,15,-1
 336 512 l 1,16,-1
 336 834 l 1,17,-1
 336 839 l 1,18,-1
 341 839 l 2,19,20
 368.655869885 839 368.655869885 839 393.6831483 840.201343017 c 128,-1,21
 418.710426716 841.402686034 418.710426716 841.402686034 440.953631727 843.786970356 c 128,-1,22
 463.196836739 846.171254678 463.196836739 846.171254678 482.773604002 849.735347987 c 128,-1,23
 502.350371265 853.299441296 502.350371265 853.299441296 519.160649878 858.018664084 c 128,-1,24
 535.970928491 862.737886871 535.970928491 862.737886871 550.076923077 868.615384615 c 0,25,26
 567.538436528 875.89101522 567.538436528 875.89101522 580.493904024 885.428137555 c 128,-1,27
 593.44937152 894.96525989 593.44937152 894.96525989 602.004293741 906.869021519 c 128,-1,28
 610.559215961 918.772783148 610.559215961 918.772783148 614.779607981 933.005131782 c 128,-1,29
 619 947.237480416 619 947.237480416 619 964 c 0,30,31
 619 1030.93312517 619 1030.93312517 562.733766618 1059.54307435 c 0,32,33
 504.801812838 1089 504.801812838 1089 392 1089 c 2,34,-1
 160 1089 l 1,35,-1
 155 1089 l 1,36,-1
 155 1094 l 1,37,-1
 155 1272 l 1,38,-1
 155 1276.18127899 l 1,39,-1
 159.115306191 1276.92110931 l 2,0,1
341 261 m 1,40,-1
 683 261 l 1,41,-1
 688 261 l 1,42,-1
 688 256 l 1,43,-1
 688 0 l 1,44,-1
 688 -5 l 1,45,-1
 683 -5 l 1,46,-1
 341 -5 l 1,47,-1
 336 -5 l 1,48,-1
 336 0 l 1,49,-1
 336 256 l 1,50,-1
 336 261 l 1,51,-1
 341 261 l 1,40,-1
EndSplineSet
EndChar

StartChar: at
Encoding: 64 64 35
Width: 1024
VWidth: 0
GlyphClass: 2
Flags: W
LayerCount: 2
Fore
SplineSet
563 1301 m 0,0,1
 590.866592521 1301 590.866592521 1301 616.841313637 1299.38077755 c 128,-1,2
 642.816034754 1297.7615551 642.816034754 1297.7615551 666.966739185 1294.51139014 c 128,-1,3
 691.117443616 1291.26122519 691.117443616 1291.26122519 713.372685191 1286.3810428 c 128,-1,4
 735.627926765 1281.50086041 735.627926765 1281.50086041 756.042957328 1274.97192148 c 128,-1,5
 776.45798789 1268.44298255 776.45798789 1268.44298255 794.974804335 1260.27369913 c 128,-1,6
 813.49162078 1252.10441572 813.49162078 1252.10441572 830.152031886 1242.26856172 c 128,-1,7
 846.812442993 1232.43270772 846.812442993 1232.43270772 861.571048529 1220.94571425 c 0,8,9
 896.151139869 1194.0311604 896.151139869 1194.0311604 919.171749835 1155.20427202 c 128,-1,10
 942.192359801 1116.37738364 942.192359801 1116.37738364 953.5961799 1066.12115874 c 128,-1,11
 965 1015.86493383 965 1015.86493383 965 954 c 2,12,-1
 965 512 l 2,13,14
 965 404.789821256 965 404.789821256 918.865431471 362.802180235 c 0,15,16
 872.934640842 321 872.934640842 321 756 321 c 2,17,-1
 659 321 l 2,18,19
 521.693530748 321 521.693530748 321 441.696430681 414.754563136 c 0,20,21
 362 508.156749412 362 508.156749412 362 670 c 0,22,23
 362 736.855935549 362 736.855935549 382.000481639 789.850800287 c 128,-1,24
 402.000963277 842.845665025 402.000963277 842.845665025 442.02213066 881.592272937 c 0,25,26
 468.702051574 907.422514841 468.702051574 907.422514841 501.813909982 924.643877394 c 128,-1,27
 534.92576839 941.865239947 534.92576839 941.865239947 574.20679285 950.432619974 c 128,-1,28
 613.487817311 959 613.487817311 959 659 959 c 2,29,-1
 750.977364811 959 l 1,30,31
 750.709322468 984.848216612 750.709322468 984.848216612 748.043860497 1004.8391814 c 0,32,33
 747.075240737 1012.10382959 747.075240737 1012.10382959 745.569415644 1018.65736542 c 128,-1,34
 744.06359055 1025.21090125 744.06359055 1025.21090125 742.056265652 1030.96633993 c 128,-1,35
 740.048940753 1036.72177861 740.048940753 1036.72177861 737.527864045 1041.76393202 c 0,36,37
 733.570768884 1049.67812234 733.570768884 1049.67812234 729.86759178 1056.46725197 c 128,-1,38
 726.164414677 1063.25638159 726.164414677 1063.25638159 722.729007222 1068.90026527 c 0,39,40
 719.665256335 1073.93357029 719.665256335 1073.93357029 714.486754965 1078.21163242 c 128,-1,41
 709.308253595 1082.48969455 709.308253595 1082.48969455 701.877830619 1085.97270532 c 0,42,43
 686.080711096 1093.3776051 686.080711096 1093.3776051 675.291284685 1097.30103288 c 0,44,45
 664.96221024 1101.05705995 664.96221024 1101.05705995 642.674604313 1102.51059947 c 0,46,47
 619.748018787 1104.00581157 619.748018787 1104.00581157 605.821542347 1104.50318573 c 128,-1,48
 591.910742739 1105 591.910742739 1105 563 1105 c 0,49,50
 490.045892283 1105 490.045892283 1105 435.00409417 1080.91921333 c 0,51,52
 416.734209539 1072.9261388 416.734209539 1072.9261388 400.051734855 1061.78994724 c 128,-1,53
 383.36926017 1050.65375567 383.36926017 1050.65375567 368.212223763 1036.31371933 c 128,-1,54
 353.055187356 1021.97368299 353.055187356 1021.97368299 339.450734072 1004.43541189 c 0,55,56
 319.103937112 978.20520376 319.103937112 978.20520376 303.686109864 942.313327186 c 128,-1,57
 288.268282615 906.421450612 288.268282615 906.421450612 277.874621165 860.887314734 c 128,-1,58
 267.450707643 815.220645971 267.450707643 815.220645971 262.225353821 759.982482052 c 128,-1,59
 257 704.744318133 257 704.744318133 257 640 c 0,60,61
 257 518.261931617 257 518.261931617 280.894113966 431.733738578 c 128,-1,62
 304.788227932 345.205545539 304.788227932 345.205545539 352.173343318 293.892130432 c 0,63,64
 447.188564243 191 447.188564243 191 631 191 c 2,65,-1
 896 191 l 1,66,-1
 901 191 l 1,67,-1
 901 186 l 1,68,-1
 901 8 l 1,69,-1
 901 3.72972901541 l 1,70,-1
 896.782323602 3.06158225937 l 2,71,72
 795.39358559 -13 795.39358559 -13 631 -13 c 0,73,74
 519.425307461 -13 519.425307461 -13 430.865601306 7.63038609307 c 0,75,76
 342.009672987 28.3297784854 342.009672987 28.3297784854 268.273040648 76.3090940487 c 128,-1,77
 194.393410722 124.381455987 194.393410722 124.381455987 145.318141047 199.259187037 c 128,-1,78
 96.3423535621 273.985130829 96.3423535621 273.985130829 69.6390680909 384.828957313 c 0,79,80
 43 495.406221086 43 495.406221086 43 640 c 0,81,82
 43 785.521180902 43 785.521180902 66.6074839802 897.531158085 c 0,83,84
 90.2659563589 1009.78305895 90.2659563589 1009.78305895 133.142893138 1085.95267605 c 0,85,86
 176.169933567 1162.38894787 176.169933567 1162.38894787 241.53506952 1210.52606349 c 128,-1,87
 306.792189702 1258.58363262 306.792189702 1258.58363262 385.700132633 1279.82807879 c 0,88,89
 464.338697117 1301 464.338697117 1301 563 1301 c 0,0,1
659 763 m 2,90,91
 639.408920576 763 639.408920576 763 624.314255018 756.914411423 c 128,-1,92
 609.219589461 750.828822847 609.219589461 750.828822847 598.209368383 738.647301654 c 128,-1,93
 587.15809421 726.420360016 587.15809421 726.420360016 581.579047105 709.327586858 c 128,-1,94
 576 692.234813699 576 692.234813699 576 670 c 0,95,96
 576 598.290295797 576 598.290295797 598.875634059 556.919468244 c 0,97,98
 620.948751794 517 620.948751794 517 659 517 c 2,99,-1
 751 517 l 1,100,-1
 751 763 l 1,101,-1
 659 763 l 2,90,91
EndSplineSet
EndChar

StartChar: A
Encoding: 65 65 36
Width: 1024
VWidth: 0
GlyphClass: 2
Flags: W
LayerCount: 2
Fore
SplineSet
389.013076256 1280 m 1,0,-1
 392.902745602 1280 l 1,1,-1
 654.218348148 1280 l 1,2,-1
 658.108017494 1280 l 1,3,-1
 659.139746806 1276.32617188 l 1,4,-1
 1013.38183594 6.2763671875 l 1,5,-1
 1015.12109375 -0 l 1,6,-1
 1008.56054688 0 l 1,7,-1
 773.560546875 0 l 1,8,-1
 769.758789062 0 l 1,9,-1
 768.729336486 3.6640625 l 1,10,-1
 697.292797693 256 l 1,11,-1
 349.828296057 256 l 1,12,-1
 278.391757264 3.6640625 l 1,13,-1
 277.362304688 -0 l 1,14,-1
 273.560546875 0 l 1,15,-1
 38.560546875 0 l 1,16,-1
 32 0 l 1,17,-1
 33.7392578125 6.2763671875 l 1,18,-1
 387.981346944 1276.32617188 l 1,19,-1
 389.013076256 1280 l 1,0,-1
552.212716537 767.169921875 m 1,20,-1
 523.560546875 933.884765625 l 1,21,-1
 494.908377213 767.169921875 l 1,22,-1
 494.794737462 766.668945312 l 1,23,-1
 404.710314389 447 l 1,24,-1
 642.410779361 447 l 1,25,-1
 552.326356288 766.668945312 l 1,26,-1
 552.212716537 767.169921875 l 1,20,-1
EndSplineSet
EndChar

StartChar: B
Encoding: 66 66 37
Width: 1024
VWidth: 0
GlyphClass: 2
Flags: W
LayerCount: 2
Fore
SplineSet
96 1280 m 1,0,-1
 101 1280 l 1,1,-1
 357.415848068 1280 l 2,2,3
 487.338512248 1280 487.338512248 1280 584.893622265 1262.05175781 c 0,4,5
 682.806878104 1244.03808594 682.806878104 1244.03808594 754.967773438 1203.94335938 c 0,6,7
 826.743164062 1163.53417969 826.743164062 1163.53417969 863.42578125 1094.27734375 c 0,8,9
 900 1025.22460938 900 1025.22460938 900 928.744140625 c 0,10,11
 900 876.012695312 900 876.012695312 878.502929688 831.827148438 c 128,-1,12
 857.030273438 787.694335938 857.030273438 787.694335938 826.694335938 762.6953125 c 0,13,14
 796.866210938 738.114257812 796.866210938 738.114257812 766.99609375 721.03515625 c 128,-1,15
 736.963867188 703.862304688 736.963867188 703.862304688 715.295820628 697.741210938 c 2,16,-1
 711.641128097 696.732421875 l 1,17,18
 722.594726562 693.083984375 722.594726562 693.083984375 747.428710938 682.778320312 c 0,19,20
 756.693359375 678.934570312 756.693359375 678.934570312 765.677734375 674.755859375 c 128,-1,21
 774.662109375 670.577148438 774.662109375 670.577148438 783.37109375 666.061523438 c 128,-1,22
 792.080078125 661.544921875 792.080078125 661.544921875 800.508789062 656.694335938 c 128,-1,23
 809.002929688 651.806640625 809.002929688 651.806640625 818.14453125 645.647460938 c 128,-1,24
 827.286132812 639.48828125 827.286132812 639.48828125 837.03515625 632.092773438 c 128,-1,25
 846.78515625 624.697265625 846.78515625 624.697265625 857.212890625 616.018554688 c 0,26,27
 888.690429688 589.822265625 888.690429688 589.822265625 911.0546875 559.057617188 c 128,-1,28
 933.501953125 528.1796875 933.501953125 528.1796875 948.743164062 482.809570312 c 128,-1,29
 964 437.39453125 964 437.39453125 964 385.984375 c 0,30,31
 964 279.565429688 964 279.565429688 923.412109375 204.052734375 c 0,32,33
 903.072265625 166.212890625 903.072265625 166.212890625 872.6640625 136.166015625 c 128,-1,34
 842.255859375 106.120117188 842.255859375 106.120117188 801.920898438 83.9697265625 c 0,35,36
 721.719726562 39.9248046875 721.719726562 39.9248046875 612.62634813 19.931640625 c 0,37,38
 503.773091727 0 503.773091727 0 357.415848068 0 c 2,39,-1
 101 0 l 1,40,-1
 96 0 l 1,41,-1
 96 5 l 1,42,-1
 96 1275 l 1,43,-1
 96 1280 l 1,0,-1
563.002585833 1057.11328125 m 0,44,45
 494.094125617 1093.30566406 494.094125617 1093.30566406 362.552281161 1094 c 1,46,-1
 362.552281161 778.02734375 l 1,47,48
 494.094125617 778.720703125 494.094125617 778.720703125 563.002585833 814.9140625 c 0,49,50
 585.989127135 826.987304688 585.989127135 826.987304688 601.217848689 844.311523438 c 128,-1,51
 616.446570243 861.635742188 616.446570243 861.635742188 624.073972744 884.525390625 c 128,-1,52
 631.701375246 907.416015625 631.701375246 907.416015625 631.701375246 936.013671875 c 0,53,54
 631.701375246 1021.03027344 631.701375246 1021.03027344 563.002585833 1057.11328125 c 0,44,45
607.742723853 529.561523438 m 0,55,56
 525.937001167 571.3203125 525.937001167 571.3203125 362.552281161 571.979492188 c 1,57,-1
 362.552281161 186 l 1,58,59
 525.937001167 186.659179688 525.937001167 186.659179688 607.742723853 228.41796875 c 0,60,61
 648.546267446 249.247070312 648.546267446 249.247070312 668.888348273 286.67578125 c 128,-1,62
 689.22942589 324.104492188 689.22942589 324.104492188 689.22942589 378.990234375 c 0,63,64
 689.22942589 487.965820312 689.22942589 487.965820312 607.742723853 529.561523438 c 0,55,56
EndSplineSet
EndChar

StartChar: C
Encoding: 67 67 38
Width: 1024
VWidth: 0
GlyphClass: 2
Flags: W
LayerCount: 2
Fore
SplineSet
271.298828125 1113.70605469 m 0,0,1
 433.200379467 1288 433.200379467 1288 715 1288 c 0,2,3
 769.185546875 1288 769.185546875 1288 818.407226562 1283.98339844 c 0,4,5
 843.0546875 1281.97167969 843.0546875 1281.97167969 860.870117188 1279.96386719 c 128,-1,6
 878.685546875 1277.95703125 878.685546875 1277.95703125 889.89453125 1275.91894531 c 2,7,-1
 911.89453125 1272.12792969 l 1,8,-1
 916 1271.41992188 l 1,9,-1
 916 1267.46484375 l 1,10,-1
 916 1098.73925781 l 1,11,-1
 916 1094 l 1,12,-1
 911 1094 l 1,13,-1
 715 1094 l 2,14,15
 568.343598647 1094 568.343598647 1094 482.075014774 973.3046875 c 0,16,17
 395.198095742 851.756835938 395.198095742 851.756835938 395.198095742 640 c 0,18,19
 395.198095742 393.993164062 395.198095742 393.993164062 477.286014778 289.693359375 c 0,20,21
 558.896748855 186 558.896748855 186 715 186 c 2,22,-1
 911 186 l 1,23,-1
 916 186 l 1,24,-1
 916 181.245117188 l 1,25,-1
 916 11.970703125 l 1,26,-1
 916 8.123046875 l 1,27,-1
 912.04296875 7.3203125 l 2,28,29
 836.52734375 -8 836.52734375 -8 715 -8 c 0,30,31
 570.014250426 -8 570.014250426 -8 460.777231139 25.478515625 c 128,-1,32
 351.397460938 59.064453125 351.397460938 59.064453125 272.0703125 133.271484375 c 128,-1,33
 192.622070312 207.591796875 192.622070312 207.591796875 152.23046875 334.852539062 c 0,34,35
 112 461.607421875 112 461.607421875 112 640 c 0,36,37
 112 939.619140625 112 939.619140625 271.298828125 1113.70605469 c 0,0,1
EndSplineSet
EndChar

StartChar: D
Encoding: 68 68 39
Width: 1024
VWidth: 0
GlyphClass: 2
Flags: W
LayerCount: 2
Fore
SplineSet
96 1280 m 1,0,-1
 101 1280 l 1,1,-1
 357.415848068 1280 l 2,2,3
 504.075057814 1280 504.075057814 1280 613.202190433 1247.02929688 c 0,4,5
 722.567382812 1213.95214844 722.567382812 1213.95214844 802.89453125 1140.26269531 c 128,-1,6
 883.361328125 1066.44628906 883.361328125 1066.44628906 923.76171875 941.170898438 c 0,7,8
 964 816.40234375 964 816.40234375 964 640 c 128,-1,9
 964 463.59765625 964 463.59765625 923.76171875 338.829101562 c 0,10,11
 903.587890625 276.272460938 903.587890625 276.272460938 873.374023438 226.473632812 c 128,-1,12
 843.16015625 176.674804688 843.16015625 176.674804688 802.89453125 139.737304688 c 0,13,14
 722.567382812 66.0478515625 722.567382812 66.0478515625 613.202190433 32.970703125 c 0,15,16
 504.075057814 0 504.075057814 0 357.415848068 0 c 2,17,-1
 101 0 l 1,18,-1
 96 0 l 1,19,-1
 96 5 l 1,20,-1
 96 1275 l 1,21,-1
 96 1280 l 1,0,-1
598.373749505 990.303710938 m 0,22,23
 517.637448241 1092.20214844 517.637448241 1092.20214844 362.552281161 1094 c 1,24,-1
 362.552281161 186 l 1,25,26
 517.637448241 187.797851562 517.637448241 187.797851562 598.373749505 289.696289062 c 0,27,28
 681.01113294 393.995117188 681.01113294 393.995117188 681.01113294 640 c 0,29,30
 681.01113294 722.16796875 681.01113294 722.16796875 671.721412151 788.672851562 c 128,-1,31
 662.431691361 855.177734375 662.431691361 855.177734375 644.087000825 905.46875 c 128,-1,32
 625.743313499 955.759765625 625.743313499 955.759765625 598.373749505 990.303710938 c 0,22,23
EndSplineSet
EndChar

StartChar: E
Encoding: 69 69 40
Width: 1024
VWidth: 0
GlyphClass: 2
Flags: W
LayerCount: 2
Fore
SplineSet
128 1280 m 1,0,-1
 133 1280 l 1,1,-1
 943 1280 l 1,2,-1
 948 1280 l 1,3,-1
 948 1275 l 1,4,-1
 948 1098.73828125 l 1,5,-1
 948 1094 l 1,6,-1
 943 1094 l 1,7,-1
 394.635518714 1094 l 1,8,-1
 394.635518714 773 l 1,9,-1
 911 773 l 1,10,-1
 916 773 l 1,11,-1
 916 768 l 1,12,-1
 916 582 l 1,13,-1
 916 577 l 1,14,-1
 911 577 l 1,15,-1
 394.635518714 577 l 1,16,-1
 394.635518714 186 l 1,17,-1
 943 186 l 1,18,-1
 948 186 l 1,19,-1
 948 181.26171875 l 1,20,-1
 948 5 l 1,21,-1
 948 0 l 1,22,-1
 943 0 l 1,23,-1
 133 0 l 1,24,-1
 128 0 l 1,25,-1
 128 5 l 1,26,-1
 128 1275 l 1,27,-1
 128 1280 l 1,0,-1
EndSplineSet
EndChar

StartChar: F
Encoding: 70 70 41
Width: 1024
VWidth: 0
GlyphClass: 2
Flags: W
LayerCount: 2
Fore
SplineSet
128 1280 m 1,0,-1
 133 1280 l 1,1,-1
 943 1280 l 1,2,-1
 948 1280 l 1,3,-1
 948 1275 l 1,4,-1
 948 1098.73828125 l 1,5,-1
 948 1094 l 1,6,-1
 943 1094 l 1,7,-1
 394.635518714 1094 l 1,8,-1
 394.635518714 773 l 1,9,-1
 911 773 l 1,10,-1
 916 773 l 1,11,-1
 916 768 l 1,12,-1
 916 582 l 1,13,-1
 916 577 l 1,14,-1
 911 577 l 1,15,-1
 394.635518714 577 l 1,16,-1
 394.635518714 5 l 1,17,-1
 394.635518714 0 l 1,18,-1
 389.478522984 0 l 1,19,-1
 133 0 l 1,20,-1
 128 0 l 1,21,-1
 128 5 l 1,22,-1
 128 1275 l 1,23,-1
 128 1280 l 1,0,-1
EndSplineSet
EndChar

StartChar: G
Encoding: 71 71 42
Width: 1024
VWidth: 0
GlyphClass: 2
Flags: W
LayerCount: 2
Fore
SplineSet
244.350585938 1113.76660156 m 0,0,1
 411.099789296 1288 411.099789296 1288 703 1288 c 0,2,3
 760.17578125 1288 760.17578125 1288 812.383789062 1283.98535156 c 0,4,5
 838.516601562 1281.97460938 838.516601562 1281.97460938 857.3359375 1279.96777344 c 128,-1,6
 876.15625 1277.9609375 876.15625 1277.9609375 887.83984375 1275.92871094 c 2,7,-1
 911.822265625 1272.140625 l 1,8,-1
 916 1271.48046875 l 1,9,-1
 916 1267.46484375 l 1,10,-1
 916 1098.73925781 l 1,11,-1
 916 1094 l 1,12,-1
 911 1094 l 1,13,-1
 703 1094 l 2,14,15
 545.351302851 1094 545.351302851 1094 454.435433891 974.5234375 c 0,16,17
 362.98886706 854.349609375 362.98886706 854.349609375 362.98886706 645 c 0,18,19
 362.98886706 397.125 362.98886706 397.125 414.371255764 291.642578125 c 0,20,21
 464.857778306 188 464.857778306 188 561.255184458 188 c 0,22,23
 591.345452856 188 591.345452856 188 613.873527375 194.068359375 c 128,-1,24
 636.402605105 200.13671875 636.402605105 200.13671875 651.474825963 212.052734375 c 0,25,26
 681.447718839 235.748046875 681.447718839 235.748046875 681.447718839 291.66796875 c 2,27,-1
 681.447718839 577 l 1,28,-1
 522.218292949 577 l 1,29,-1
 517.081859856 577 l 1,30,-1
 517.081859856 582 l 1,31,-1
 517.081859856 768 l 1,32,-1
 517.081859856 773 l 1,33,-1
 522.218292949 773 l 1,34,-1
 943 773 l 1,35,-1
 948 773 l 1,36,-1
 948 768.032226562 l 1,37,-1
 948 291.084960938 l 2,38,39
 948 130.530273438 948 130.530273438 849.39453125 60.9814453125 c 0,40,41
 751.59375 -8 751.59375 -8 561.255184458 -8 c 0,42,43
 522.281495153 -8 522.281495153 -8 486.678590066 -4.2509765625 c 128,-1,44
 451.076688189 -0.5302734375 451.076688189 -0.5302734375 418.752272037 6.9404296875 c 128,-1,45
 386.426852676 14.41015625 386.426852676 14.41015625 357.481246419 25.6279296875 c 0,46,47
 271.993164062 59.3271484375 271.993164062 59.3271484375 208.192382812 133.69140625 c 128,-1,48
 144.436523438 208.004882812 144.436523438 208.004882812 112.151367188 335.15234375 c 0,49,50
 80 461.7734375 80 461.7734375 80 640.014648438 c 0,51,52
 80 939.671875 80 939.671875 244.350585938 1113.76660156 c 0,0,1
EndSplineSet
EndChar

StartChar: H
Encoding: 72 72 43
Width: 1024
VWidth: 0
GlyphClass: 2
Flags: W
LayerCount: 2
Fore
SplineSet
96 1280 m 1,0,-1
 101 1280 l 1,1,-1
 357.43483223 1280 l 1,2,-1
 362.577493723 1280 l 1,3,-1
 362.577493723 1275 l 1,4,-1
 362.577493723 773 l 1,5,-1
 681.422506277 773 l 1,6,-1
 681.422506277 1275 l 1,7,-1
 681.422506277 1280 l 1,8,-1
 686.56516777 1280 l 1,9,-1
 943 1280 l 1,10,-1
 948 1280 l 1,11,-1
 948 1275 l 1,12,-1
 948 5 l 1,13,-1
 948 0 l 1,14,-1
 943 0 l 1,15,-1
 686.56516777 0 l 1,16,-1
 681.422506277 0 l 1,17,-1
 681.422506277 5 l 1,18,-1
 681.422506277 577 l 1,19,-1
 362.577493723 577 l 1,20,-1
 362.577493723 5 l 1,21,-1
 362.577493723 0 l 1,22,-1
 357.43483223 0 l 1,23,-1
 101 0 l 1,24,-1
 96 0 l 1,25,-1
 96 5 l 1,26,-1
 96 1275 l 1,27,-1
 96 1280 l 1,0,-1
EndSplineSet
EndChar

StartChar: I
Encoding: 73 73 44
Width: 1024
VWidth: 0
GlyphClass: 2
Flags: W
LayerCount: 2
Fore
SplineSet
160 1280 m 1,0,-1
 165 1280 l 1,1,-1
 879 1280 l 1,2,-1
 884 1280 l 1,3,-1
 884 1275 l 1,4,-1
 884 1098.73828125 l 1,5,-1
 884 1094 l 1,6,-1
 879 1094 l 1,7,-1
 660 1094 l 1,8,-1
 660 186 l 1,9,-1
 879 186 l 1,10,-1
 884 186 l 1,11,-1
 884 181.26171875 l 1,12,-1
 884 5 l 1,13,-1
 884 0 l 1,14,-1
 879 0 l 1,15,-1
 165 0 l 1,16,-1
 160 0 l 1,17,-1
 160 5 l 1,18,-1
 160 181.26171875 l 1,19,-1
 160 186 l 1,20,-1
 165 186 l 1,21,-1
 384 186 l 1,22,-1
 384 1094 l 1,23,-1
 165 1094 l 1,24,-1
 160 1094 l 1,25,-1
 160 1098.73828125 l 1,26,-1
 160 1275 l 1,27,-1
 160 1280 l 1,0,-1
EndSplineSet
EndChar

StartChar: J
Encoding: 74 74 45
Width: 1024
VWidth: 0
GlyphClass: 2
Flags: W
LayerCount: 2
Fore
SplineSet
196 1280 m 1,0,-1
 201 1280 l 1,1,-1
 879 1280 l 1,2,-1
 884 1280 l 1,3,-1
 884 1275 l 1,4,-1
 884 526.831054688 l 2,5,6
 884 379.112304688 884 379.112304688 846.206054688 274.608398438 c 0,7,8
 808.241210938 169.631835938 808.241210938 169.631835938 733.180664062 108.236328125 c 0,9,10
 658.364257812 47.0400390625 658.364257812 47.0400390625 555.724824274 19.4697265625 c 0,11,12
 452.668088479 -8 452.668088479 -8 316 -8 c 0,13,14
 265.799804688 -8 265.799804688 -8 219.56640625 -3.9814453125 c 128,-1,15
 173.313476562 0.041015625 173.313476562 0.041015625 152.041992188 4.0927734375 c 2,16,-1
 132.01953125 7.888671875 l 1,17,-1
 128 8.650390625 l 1,18,-1
 128 12.5361328125 l 1,19,-1
 128 181.260742188 l 1,20,-1
 128 186 l 1,21,-1
 133 186 l 1,22,-1
 316 186 l 2,23,24
 463.255914635 186 463.255914635 186 540.189178668 263.823242188 c 0,25,26
 578.495958057 302.572265625 578.495958057 302.572265625 597.849797872 367.783203125 c 128,-1,27
 617.204652625 432.994140625 617.204652625 432.994140625 617.204652625 524.73046875 c 2,28,-1
 617.204652625 1094 l 1,29,-1
 201 1094 l 1,30,-1
 196 1094 l 1,31,-1
 196 1098.73828125 l 1,32,-1
 196 1275 l 1,33,-1
 196 1280 l 1,0,-1
EndSplineSet
EndChar

StartChar: K
Encoding: 75 75 46
Width: 1024
VWidth: 0
GlyphClass: 2
Flags: W
LayerCount: 2
Fore
SplineSet
674.549002477 1280 m 1,0,-1
 677.473400159 1280 l 1,1,-1
 943 1280 l 1,2,-1
 951.783203125 1280 l 1,3,-1
 947.298828125 1272.50585938 l 1,4,-1
 583.915716859 671.732421875 l 1,5,-1
 979.31640625 7.4658203125 l 1,6,-1
 983.716796875 0 l 1,7,-1
 975 0 l 1,8,-1
 711.32788679 0 l 1,9,-1
 708.384453974 0 l 1,10,-1
 706.898711678 2.4775390625 l 1,11,-1
 333 626.534179688 l 1,12,-1
 333 5 l 1,13,-1
 333 0 l 1,14,-1
 328 0 l 1,15,-1
 101 0 l 1,16,-1
 96 0 l 1,17,-1
 96 5 l 1,18,-1
 96 1275 l 1,19,-1
 96 1280 l 1,20,-1
 101 1280 l 1,21,-1
 328 1280 l 1,22,-1
 333 1280 l 1,23,-1
 333 1275 l 1,24,-1
 333 717.260742188 l 1,25,-1
 673.059252784 1277.546875 l 1,26,-1
 674.549002477 1280 l 1,0,-1
EndSplineSet
EndChar

StartChar: L
Encoding: 76 76 47
Width: 1024
VWidth: 0
GlyphClass: 2
Flags: W
LayerCount: 2
Fore
SplineSet
128 1280 m 1,0,-1
 133 1280 l 1,1,-1
 389.478522984 1280 l 1,2,-1
 394.635518714 1280 l 1,3,-1
 394.635518714 1275 l 1,4,-1
 394.635518714 186 l 1,5,-1
 943 186 l 1,6,-1
 948 186 l 1,7,-1
 948 181.26171875 l 1,8,-1
 948 5 l 1,9,-1
 948 0 l 1,10,-1
 943 0 l 1,11,-1
 133 0 l 1,12,-1
 128 0 l 1,13,-1
 128 5 l 1,14,-1
 128 1275 l 1,15,-1
 128 1280 l 1,0,-1
EndSplineSet
EndChar

StartChar: M
Encoding: 77 77 48
Width: 1024
VWidth: 0
GlyphClass: 2
Flags: W
LayerCount: 2
Fore
SplineSet
745.21875 1280 m 1,0,-1
 748 1280 l 1,1,-1
 975 1280 l 1,2,-1
 980 1280 l 1,3,-1
 980 1275 l 1,4,-1
 980 5 l 1,5,-1
 980 0 l 1,6,-1
 975 0 l 1,7,-1
 748 0 l 1,8,-1
 743 0 l 1,9,-1
 743 5 l 1,10,-1
 743 645 l 1,11,-1
 743.0234375 645.48828125 l 1,12,-1
 775.590820312 977.666992188 l 1,13,-1
 592.053660988 642.631835938 l 1,14,-1
 590.604481821 640 l 1,15,-1
 587.544103455 640 l 1,16,-1
 456.455896545 640 l 1,17,-1
 453.395518179 640 l 1,18,-1
 451.946339012 642.631835938 l 1,19,-1
 268.409179688 977.666992188 l 1,20,-1
 300.9765625 645.48828125 l 1,21,-1
 301 645 l 1,22,-1
 301 5 l 1,23,-1
 301 0 l 1,24,-1
 296 0 l 1,25,-1
 69 0 l 1,26,-1
 64 0 l 1,27,-1
 64 5 l 1,28,-1
 64 1275 l 1,29,-1
 64 1280 l 1,30,-1
 69 1280 l 1,31,-1
 296 1280 l 1,32,-1
 298.78125 1280 l 1,33,-1
 300.248046875 1277.63671875 l 1,34,-1
 522 928.48046875 l 1,35,-1
 743.751953125 1277.63671875 l 1,36,-1
 745.21875 1280 l 1,0,-1
EndSplineSet
EndChar

StartChar: N
Encoding: 78 78 49
Width: 1024
VWidth: 0
GlyphClass: 2
Flags: W
LayerCount: 2
Fore
SplineSet
96 1280 m 1,0,-1
 101 1280 l 1,1,-1
 328 1280 l 1,2,-1
 331.168945312 1280 l 1,3,-1
 332.521484375 1277.13378906 l 1,4,-1
 642.874642455 637.133789062 l 1,5,-1
 643.016266531 636.814453125 l 1,6,-1
 727.389648438 424.328125 l 1,7,-1
 711.014648438 634.612304688 l 1,8,-1
 711 635 l 1,9,-1
 711 1275 l 1,10,-1
 711 1280 l 1,11,-1
 716 1280 l 1,12,-1
 943 1280 l 1,13,-1
 948 1280 l 1,14,-1
 948 1275 l 1,15,-1
 948 5 l 1,16,-1
 948 0 l 1,17,-1
 943 0 l 1,18,-1
 716 0 l 1,19,-1
 712.831054688 0 l 1,20,-1
 711.478515625 2.8662109375 l 1,21,-1
 401.125357545 642.866210938 l 1,22,-1
 400.983733469 643.185546875 l 1,23,-1
 316.610351562 855.671875 l 1,24,-1
 332.985351562 645.387695312 l 1,25,-1
 333 645 l 1,26,-1
 333 5 l 1,27,-1
 333 0 l 1,28,-1
 328 0 l 1,29,-1
 101 0 l 1,30,-1
 96 0 l 1,31,-1
 96 5 l 1,32,-1
 96 1275 l 1,33,-1
 96 1280 l 1,0,-1
EndSplineSet
EndChar

StartChar: O
Encoding: 79 79 50
Width: 1024
VWidth: 0
GlyphClass: 2
Flags: W
LayerCount: 2
Fore
SplineSet
87.400390625 472.918945312 m 128,-1,1
 80 549.966796875 80 549.966796875 80 640.033203125 c 0,2,3
 80 820.216796875 80 820.216796875 109.626953125 948.286132812 c 0,4,5
 139.370117188 1076.86035156 139.370117188 1076.86035156 197.532226562 1152.14550781 c 128,-1,6
 255.810546875 1227.58203125 255.810546875 1227.58203125 334.195394204 1261.8359375 c 0,7,8
 414.198641105 1296 414.198641105 1296 522 1296 c 128,-1,9
 629.801358895 1296 629.801358895 1296 709.804605796 1261.8359375 c 0,10,11
 736.088867188 1250.41308594 736.088867188 1250.41308594 759.96484375 1234.38867188 c 128,-1,12
 783.840820312 1218.36523438 783.840820312 1218.36523438 805.458007812 1197.80664062 c 128,-1,13
 827.075195312 1177.24804688 827.075195312 1177.24804688 846.467773438 1152.14550781 c 128,-1,14
 865.909179688 1126.98046875 865.909179688 1126.98046875 882.162109375 1095.89160156 c 128,-1,15
 898.415039062 1064.80273438 898.415039062 1064.80273438 911.444335938 1027.93945312 c 128,-1,16
 924.474609375 991.076171875 924.474609375 991.076171875 934.373046875 948.286132812 c 0,17,18
 964 820.216796875 964 820.216796875 964 640.033203125 c 0,19,20
 964 549.966796875 964 549.966796875 956.599609375 472.918945312 c 128,-1,21
 949.200195312 395.87109375 949.200195312 395.87109375 934.373046875 331.779296875 c 0,22,23
 904.629882812 203.205078125 904.629882812 203.205078125 846.467773438 127.919921875 c 128,-1,24
 788.189453125 52.4833984375 788.189453125 52.4833984375 709.804605796 18.2294921875 c 0,25,26
 669.754881791 1.126953125 669.754881791 1.126953125 622.796715678 -7.404296875 c 128,-1,27
 575.83754747 -16 575.83754747 -16 522 -16 c 128,-1,28
 468.16245253 -16 468.16245253 -16 421.203284322 -7.404296875 c 128,-1,29
 374.245118209 1.126953125 374.245118209 1.126953125 334.195394204 18.2294921875 c 0,30,31
 255.810546875 52.4833984375 255.810546875 52.4833984375 197.532226562 127.919921875 c 128,-1,32
 139.370117188 203.205078125 139.370117188 203.205078125 109.626953125 331.779296875 c 0,33,0
 94.7998046875 395.87109375 94.7998046875 395.87109375 87.400390625 472.918945312 c 128,-1,1
553.988872784 1095.53027344 m 128,-1,35
 539.041625543 1100 539.041625543 1100 522 1100 c 0,36,37
 471.124644998 1100 471.124644998 1100 437.77592946 1059.34082031 c 0,38,39
 420.920693566 1038.79003906 420.920693566 1038.79003906 407.226064925 1002.37402344 c 128,-1,40
 393.532438379 965.95703125 393.532438379 965.95703125 383.381217237 914.09375 c 0,41,42
 362.947500523 809.688476562 362.947500523 809.688476562 362.947500523 640 c 0,43,44
 362.947500523 583.416992188 362.947500523 583.416992188 365.225262187 534.045898438 c 128,-1,45
 367.504025946 484.674804688 367.504025946 484.674804688 372.043515756 442.658203125 c 128,-1,46
 376.583005566 400.641601562 376.583005566 400.641601562 383.381217237 365.90625 c 0,47,48
 403.670632288 262.2421875 403.670632288 262.2421875 437.77592946 220.659179688 c 0,49,50
 471.124644998 180 471.124644998 180 522 180 c 0,51,52
 539.041625543 180 539.041625543 180 553.989874879 184.469726562 c 128,-1,53
 568.937122121 188.939453125 568.937122121 188.939453125 581.977382804 197.967773438 c 128,-1,54
 595.016641393 206.995117188 595.016641393 206.995117188 606.22407054 220.659179688 c 0,55,56
 640.329367712 262.2421875 640.329367712 262.2421875 660.618782763 365.90625 c 0,57,58
 670.820108649 418.028320312 670.820108649 418.028320312 675.935803016 486.584960938 c 128,-1,59
 681.052499477 555.142578125 681.052499477 555.142578125 681.052499477 640 c 0,60,61
 681.052499477 809.688476562 681.052499477 809.688476562 660.618782763 914.09375 c 0,62,63
 640.329367712 1017.7578125 640.329367712 1017.7578125 606.22407054 1059.34082031 c 0,64,65
 595.016641393 1073.00488281 595.016641393 1073.00488281 581.977382804 1082.03222656 c 128,-1,34
 568.937122121 1091.06054688 568.937122121 1091.06054688 553.988872784 1095.53027344 c 128,-1,35
EndSplineSet
EndChar

StartChar: P
Encoding: 80 80 51
Width: 1024
VWidth: 0
GlyphClass: 2
Flags: W
LayerCount: 2
Fore
SplineSet
96 1280 m 1,0,-1
 101 1280 l 1,1,-1
 565.955031652 1280 l 2,2,3
 628.125936272 1280 628.125936272 1280 681.729431006 1268.50195312 c 0,4,5
 734.87890625 1257.00390625 734.87890625 1257.00390625 778.772460938 1233.92480469 c 128,-1,6
 822.665039062 1210.84570312 822.665039062 1210.84570312 858.009765625 1176.23242188 c 0,7,8
 911.017578125 1124.32128906 911.017578125 1124.32128906 937.508789062 1053.54492188 c 128,-1,9
 964 982.767578125 964 982.767578125 964 893.5 c 0,10,11
 964 714.30078125 964 714.30078125 837.1796875 610.471679688 c 0,12,13
 710.591770867 507 710.591770867 507 485.826675398 507 c 2,14,-1
 362.552281161 507 l 1,15,-1
 362.552281161 5 l 1,16,-1
 362.552281161 0 l 1,17,-1
 357.415848068 0 l 1,18,-1
 101 0 l 1,19,-1
 96 0 l 1,20,-1
 96 5 l 1,21,-1
 96 1275 l 1,22,-1
 96 1280 l 1,0,-1
565.955031652 1094 m 2,23,-1
 362.552281161 1094 l 1,24,-1
 362.552281161 703 l 1,25,-1
 485.826675398 703 l 2,26,27
 580.291899882 703 580.291899882 703 634.780225473 755.7421875 c 128,-1,28
 689.22942589 808.446289062 689.22942589 808.446289062 689.22942589 898.5 c 0,29,30
 689.22942589 916.731445312 689.22942589 916.731445312 687.866064059 933.451171875 c 128,-1,31
 686.502702228 950.171875 686.502702228 950.171875 683.797045968 965.286132812 c 128,-1,32
 681.091389707 980.400390625 681.091389707 980.400390625 677.042435808 994.005859375 c 128,-1,33
 672.993481909 1007.61230469 672.993481909 1007.61230469 667.636342706 1019.63769531 c 128,-1,34
 662.279203504 1031.6640625 662.279203504 1031.6640625 655.598830854 1042.18359375 c 0,35,36
 639.002734631 1068.31835938 639.002734631 1068.31835938 616.727468927 1081.15917969 c 128,-1,37
 594.453206434 1094 594.453206434 1094 565.955031652 1094 c 2,23,-1
EndSplineSet
EndChar

StartChar: Q
Encoding: 81 81 52
Width: 1024
VWidth: 0
GlyphClass: 2
Flags: W
LayerCount: 2
Fore
SplineSet
295.883431579 1265.42675781 m 0,0,1
 385.146514122 1296 385.146514122 1296 522 1296 c 128,-1,2
 658.853485878 1296 658.853485878 1296 748.116568421 1265.42675781 c 0,3,4
 836.071289062 1234.64257812 836.071289062 1234.64257812 892.977539062 1160.46582031 c 0,5,6
 949.674804688 1086.56054688 949.674804688 1086.56054688 972.90234375 971.724609375 c 0,7,8
 996 857.525390625 996 857.525390625 996 682.23828125 c 0,9,10
 996 395.87890625 996 395.87890625 919.83203125 264.625976562 c 0,11,12
 844.040039062 134.021484375 844.040039062 134.021484375 657.978856836 105.911132812 c 1,13,-1
 657.978856836 -152 l 1,14,-1
 657.978856836 -157 l 1,15,-1
 652.866869737 -157 l 1,16,-1
 391.133130263 -157 l 1,17,-1
 386.021143164 -157 l 1,18,-1
 386.021143164 -152 l 1,19,-1
 386.021143164 105.911132812 l 1,20,21
 199.959960938 134.021484375 199.959960938 134.021484375 124.16796875 264.625976562 c 0,22,23
 48 395.87890625 48 395.87890625 48 682.23828125 c 0,24,25
 48 857.525390625 48 857.525390625 71.09765625 971.724609375 c 0,26,27
 82.697265625 1029.0703125 82.697265625 1029.0703125 102.666015625 1076.26757812 c 128,-1,28
 122.635742188 1123.46386719 122.635742188 1123.46386719 151.022460938 1160.46582031 c 128,-1,29
 179.444335938 1197.51367188 179.444335938 1197.51367188 215.684570312 1223.78125 c 128,-1,30
 251.92578125 1250.04980469 251.92578125 1250.04980469 295.883431579 1265.42675781 c 0,0,1
620.752208596 1077.3984375 m 128,-1,32
 580.591159948 1100 580.591159948 1100 522 1100 c 0,33,34
 498.525795178 1100 498.525795178 1100 478.038907818 1096.37695312 c 128,-1,35
 457.552020457 1092.75488281 457.552020457 1092.75488281 440.007520984 1085.51660156 c 128,-1,36
 422.46302151 1078.27832031 422.46302151 1078.27832031 407.793016345 1067.38476562 c 128,-1,37
 393.122012744 1056.49121094 393.122012744 1056.49121094 381.313522232 1041.99414062 c 128,-1,38
 369.50503172 1027.49804688 369.50503172 1027.49804688 360.457213929 1009.3125 c 0,39,40
 337.631991845 963.434570312 337.631991845 963.434570312 326.042158593 880.399414062 c 128,-1,41
 314.453323777 797.365234375 314.453323777 797.365234375 314.453323777 678 c 0,42,43
 314.453323777 486.717773438 314.453323777 486.717773438 342.873775491 391.907226562 c 0,44,45
 356.160948209 347.58203125 356.160948209 347.58203125 377.995722793 318.225585938 c 128,-1,46
 399.831495812 288.868164062 399.831495812 288.868164062 429.984232216 273.853515625 c 1,47,-1
 429.984232216 678 l 1,48,-1
 429.984232216 683 l 1,49,-1
 435.096219316 683 l 1,50,-1
 608.903780684 683 l 1,51,-1
 614.015767784 683 l 1,52,-1
 614.015767784 678 l 1,53,-1
 614.015767784 273.853515625 l 1,54,55
 674.813469038 304.127929688 674.813469038 304.127929688 701.126224509 391.907226562 c 0,56,57
 729.546676223 486.717773438 729.546676223 486.717773438 729.546676223 678 c 0,58,59
 729.546676223 717.865234375 729.546676223 717.865234375 728.245715444 753.759765625 c 128,-1,60
 726.943756229 789.654296875 726.943756229 789.654296875 724.35780963 821.345703125 c 128,-1,61
 721.771863031 853.037109375 721.771863031 853.037109375 717.916905572 880.6875 c 128,-1,62
 714.061948114 908.337890625 714.061948114 908.337890625 708.94696571 931.829101562 c 128,-1,63
 703.830984871 955.3203125 703.830984871 955.3203125 697.479939961 974.69140625 c 128,-1,64
 691.129893486 994.063476562 691.129893486 994.063476562 683.542786071 1009.3125 c 0,65,31
 660.913257243 1054.79589844 660.913257243 1054.79589844 620.752208596 1077.3984375 c 128,-1,32
EndSplineSet
EndChar

StartChar: R
Encoding: 82 82 53
Width: 1024
VWidth: 0
GlyphClass: 2
Flags: W
LayerCount: 2
Fore
SplineSet
96 1280 m 1,0,-1
 101 1280 l 1,1,-1
 577.987055315 1280 l 2,2,3
 641.700472482 1280 641.700472482 1280 695.263067504 1271.0625 c 0,4,5
 748.508789062 1262.125 748.508789062 1262.125 791.072265625 1244.09667969 c 128,-1,6
 833.635742188 1226.06933594 833.635742188 1226.06933594 866.212890625 1198.96484375 c 0,7,8
 915.249023438 1158.1640625 915.249023438 1158.1640625 939.625 1090.51464844 c 128,-1,9
 964 1022.86425781 964 1022.86425781 964 928.744140625 c 0,10,11
 964 692.361328125 964 692.361328125 761.365234375 616.206054688 c 1,12,-1
 979.7109375 6.623046875 l 1,13,-1
 982.083007812 0 l 1,14,-1
 975 0 l 1,15,-1
 718.549540453 0 l 1,16,-1
 714.840297183 0 l 1,17,-1
 713.678027546 3.43359375 l 1,18,-1
 517.847617281 582 l 1,19,-1
 333 582 l 1,20,-1
 333 5 l 1,21,-1
 333 0 l 1,22,-1
 328 0 l 1,23,-1
 101 0 l 1,24,-1
 96 0 l 1,25,-1
 96 5 l 1,26,-1
 96 1275 l 1,27,-1
 96 1280 l 1,0,-1
577.987055315 1094 m 2,28,-1
 333 1094 l 1,29,-1
 333 773 l 1,30,-1
 481.542722447 773 l 2,31,32
 603.232353385 773 603.232353385 773 665.620181992 810.360351562 c 0,33,34
 726.757568783 846.971679688 726.757568783 846.971679688 726.757568783 933.5 c 0,35,36
 726.757568783 1020.76855469 726.757568783 1020.76855469 689.296416052 1057.37011719 c 0,37,38
 676.880170073 1069.50195312 676.880170073 1069.50195312 660.517217113 1077.6171875 c 128,-1,39
 644.154264154 1085.73242188 644.154264154 1085.73242188 623.476886147 1089.86621094 c 128,-1,40
 602.799508141 1094 602.799508141 1094 577.987055315 1094 c 2,28,-1
EndSplineSet
EndChar

StartChar: S
Encoding: 83 83 54
Width: 1024
VWidth: 0
GlyphClass: 2
Flags: W
LayerCount: 2
Fore
SplineSet
263.072265625 1204.87109375 m 0,0,1
 414.639926207 1288 414.639926207 1288 708.747871644 1288 c 0,2,3
 765.178710938 1288 765.178710938 1288 815.89453125 1283.984375 c 128,-1,4
 866.626953125 1279.96582031 866.626953125 1279.96582031 889.875976562 1275.92285156 c 2,5,-1
 911.89453125 1272.12792969 l 1,6,-1
 916 1271.41992188 l 1,7,-1
 916 1267.46484375 l 1,8,-1
 916 1098.73925781 l 1,9,-1
 916 1094 l 1,10,-1
 911 1094 l 1,11,-1
 708.747871644 1094 l 2,12,13
 654.601640523 1094 654.601640523 1094 608.969649179 1089.78417969 c 128,-1,14
 563.337657836 1085.56835938 563.337657836 1085.56835938 526.594103447 1077.23144531 c 128,-1,15
 489.849545848 1068.89355469 489.849545848 1068.89355469 461.75867416 1056.44921875 c 0,16,17
 378.98886706 1019.78222656 378.98886706 1019.78222656 378.98886706 935 c 0,18,19
 378.98886706 906.750976562 378.98886706 906.750976562 386.927264534 882.962890625 c 128,-1,20
 394.866665217 859.17578125 394.866665217 859.17578125 410.75549868 839.599609375 c 0,21,22
 442.858205513 800.048828125 442.858205513 800.048828125 493.605562548 777.549804688 c 0,23,24
 545.201634895 754.674804688 545.201634895 754.674804688 608.084818322 735.266601562 c 0,25,26
 671.507728508 715.690429688 671.507728508 715.690429688 734.478515625 689.091796875 c 0,27,28
 765.477539062 675.734375 765.477539062 675.734375 793.724609375 659.719726562 c 128,-1,29
 821.970703125 643.705078125 821.970703125 643.705078125 847.455078125 625.033203125 c 0,30,31
 873.250976562 606.133789062 873.250976562 606.133789062 894.268554688 579.3828125 c 128,-1,32
 915.287109375 552.6328125 915.287109375 552.6328125 931.524414062 518.12890625 c 128,-1,33
 947.784179688 483.575195312 947.784179688 483.575195312 955.892578125 442.783203125 c 128,-1,34
 964 401.991210938 964 401.991210938 964 355 c 0,35,36
 964 254.600585938 964 254.600585938 920.774414062 183.405273438 c 128,-1,37
 877.518554688 112.161132812 877.518554688 112.161132812 793.21484375 70.517578125 c 0,38,39
 709.314685061 29.189453125 709.314685061 29.189453125 594.536472829 10.568359375 c 0,40,41
 480.088316552 -8 480.088316552 -8 327 -8 c 0,42,43
 264.838867188 -8 264.838867188 -8 208.146484375 -3.9873046875 c 128,-1,44
 151.428710938 0.0283203125 151.428710938 0.0283203125 126.239257812 4.05859375 c 2,45,-1
 100.239257812 7.849609375 l 1,46,-1
 96 8.4677734375 l 1,47,-1
 96 12.5341796875 l 1,48,-1
 96 181.260742188 l 1,49,-1
 96 186 l 1,50,-1
 101 186 l 1,51,-1
 327 186 l 2,52,53
 387.614463102 186 387.614463102 186 438.983810082 190.21875 c 128,-1,54
 490.353157062 194.438476562 490.353157062 194.438476562 531.703449881 202.794921875 c 128,-1,55
 573.05474591 211.15234375 573.05474591 211.15234375 604.598665002 223.631835938 c 0,56,57
 697.447718839 260.365234375 697.447718839 260.365234375 697.447718839 345 c 0,58,59
 697.447718839 373.249023438 697.447718839 373.249023438 689.509321365 397.037109375 c 128,-1,60
 681.569920681 420.82421875 681.569920681 420.82421875 665.681087218 440.400390625 c 0,61,62
 659.261549061 448.30859375 659.261549061 448.30859375 652.107661486 455.528320312 c 128,-1,63
 644.95377391 462.747070312 644.95377391 462.747070312 637.047479143 469.29296875 c 128,-1,64
 629.141184376 475.837890625 629.141184376 475.837890625 620.487498465 481.700195312 c 128,-1,65
 611.834815764 487.5625 611.834815764 487.5625 602.419693776 492.750976562 c 128,-1,66
 593.004571788 497.939453125 593.004571788 497.939453125 582.831023351 502.450195312 c 128,-1,67
 572.51903199 507.021484375 572.51903199 507.021484375 561.754593105 511.455078125 c 128,-1,68
 550.99115743 515.888671875 550.99115743 515.888671875 539.768251763 520.1875 c 128,-1,69
 528.546349306 524.485351562 528.546349306 524.485351562 516.873002534 528.64453125 c 128,-1,70
 505.198652553 532.803710938 505.198652553 532.803710938 493.066838999 536.827148438 c 128,-1,71
 480.934022235 540.849609375 480.934022235 540.849609375 468.351767576 544.733398438 c 0,72,73
 404.92885739 564.309570312 404.92885739 564.309570312 341.521484375 590.908203125 c 0,74,75
 310.522460938 604.265625 310.522460938 604.265625 282.275390625 620.280273438 c 128,-1,76
 254.029296875 636.294921875 254.029296875 636.294921875 228.544921875 654.966796875 c 0,77,78
 177.017578125 692.71875 177.017578125 692.71875 144.475585938 761.87109375 c 128,-1,79
 112 830.881835938 112 830.881835938 112 925 c 0,80,81
 112 1120.94238281 112 1120.94238281 263.072265625 1204.87109375 c 0,0,1
EndSplineSet
EndChar

StartChar: T
Encoding: 84 84 55
Width: 1024
VWidth: 0
GlyphClass: 2
Flags: W
LayerCount: 2
Fore
SplineSet
64 1280 m 1,0,-1
 69 1280 l 1,1,-1
 975 1280 l 1,2,-1
 980 1280 l 1,3,-1
 980 1275 l 1,4,-1
 980 1098.73828125 l 1,5,-1
 980 1094 l 1,6,-1
 975 1094 l 1,7,-1
 658.208839992 1094 l 1,8,-1
 658.208839992 5 l 1,9,-1
 658.208839992 0 l 1,10,-1
 653.08820691 0 l 1,11,-1
 390.91179309 0 l 1,12,-1
 385.791160008 0 l 1,13,-1
 385.791160008 5 l 1,14,-1
 385.791160008 1094 l 1,15,-1
 69 1094 l 1,16,-1
 64 1094 l 1,17,-1
 64 1098.73828125 l 1,18,-1
 64 1275 l 1,19,-1
 64 1280 l 1,0,-1
EndSplineSet
EndChar

StartChar: U
Encoding: 85 85 56
Width: 1024
VWidth: 0
GlyphClass: 2
Flags: W
LayerCount: 2
Fore
SplineSet
96 1280 m 1,0,-1
 101 1280 l 1,1,-1
 357.43483223 1280 l 1,2,-1
 362.577493723 1280 l 1,3,-1
 362.577493723 1275 l 1,4,-1
 362.577493723 577.37109375 l 2,5,6
 362.577493723 351.387695312 362.577493723 351.387695312 398.215535212 264.56640625 c 0,7,8
 432.928500289 180 432.928500289 180 522 180 c 0,9,10
 566.80945596 180 566.80945596 180 597.546902641 200.966796875 c 128,-1,11
 628.284349321 221.93359375 628.284349321 221.93359375 645.784464788 264.56640625 c 0,12,13
 663.466381373 307.642578125 663.466381373 307.642578125 672.443941612 386.059570312 c 128,-1,14
 681.422506277 464.4765625 681.422506277 464.4765625 681.422506277 577.37109375 c 2,15,-1
 681.422506277 1275 l 1,16,-1
 681.422506277 1280 l 1,17,-1
 686.56516777 1280 l 1,18,-1
 943 1280 l 1,19,-1
 948 1280 l 1,20,-1
 948 1275 l 1,21,-1
 948 576.411132812 l 2,22,23
 948 407.250976562 948 407.250976562 926.912109375 297.140625 c 0,24,25
 905.28125 186.272460938 905.28125 186.272460938 855.6015625 115.125 c 0,26,27
 805.216796875 43.41015625 805.216796875 43.41015625 725.768554688 13.59375 c 0,28,29
 645.335486333 -16 645.335486333 -16 522 -16 c 128,-1,30
 398.664513667 -16 398.664513667 -16 318.231445312 13.59375 c 0,31,32
 238.783203125 43.41015625 238.783203125 43.41015625 188.3984375 115.125 c 0,33,34
 138.287109375 186.448242188 138.287109375 186.448242188 117.087890625 297.140625 c 0,35,36
 106.530273438 352.265625 106.530273438 352.265625 101.265625 422.056640625 c 128,-1,37
 96 491.848632812 96 491.848632812 96 576.411132812 c 2,38,-1
 96 1275 l 1,39,-1
 96 1280 l 1,0,-1
EndSplineSet
EndChar

StartChar: V
Encoding: 86 86 57
Width: 1024
VWidth: 0
GlyphClass: 2
Flags: W
LayerCount: 2
Fore
SplineSet
32 1280 m 1,0,-1
 38.560546875 1280 l 1,1,-1
 273.560546875 1280 l 1,2,-1
 277.3671875 1280 l 1,3,-1
 278.392754104 1276.33007812 l 1,4,-1
 494.794737462 508.330078125 l 1,5,-1
 494.908377213 507.830078125 l 1,6,-1
 523.560546875 341.115234375 l 1,7,-1
 552.212716537 507.830078125 l 1,8,-1
 552.326356288 508.330078125 l 1,9,-1
 768.728339646 1276.33007812 l 1,10,-1
 769.75390625 1280 l 1,11,-1
 773.560546875 1280 l 1,12,-1
 1008.56054688 1280 l 1,13,-1
 1015.12109375 1280 l 1,14,-1
 1013.38183594 1273.72363281 l 1,15,-1
 659.139746806 3.673828125 l 1,16,-1
 658.108017494 0 l 1,17,-1
 654.218348148 0 l 1,18,-1
 392.902745602 0 l 1,19,-1
 389.013076256 0 l 1,20,-1
 387.981346944 3.673828125 l 1,21,-1
 33.7392578125 1273.72363281 l 1,22,-1
 32 1280 l 1,0,-1
EndSplineSet
EndChar

StartChar: W
Encoding: 87 87 58
Width: 1024
VWidth: 0
GlyphClass: 2
Flags: W
LayerCount: 2
Fore
SplineSet
32 1280 m 1,0,-1
 37.388671875 1280 l 1,1,-1
 242.388671875 1280 l 1,2,-1
 247.033203125 1280 l 1,3,-1
 247.375 1275.36816406 l 1,4,-1
 300.846874958 558.368164062 l 1,5,-1
 300.859835166 558.092773438 l 1,6,-1
 304.436852431 369.802734375 l 1,7,-1
 452.260978992 764.721679688 l 1,8,-1
 453.488210947 768 l 1,9,-1
 457.053264944 768 l 1,10,-1
 587.72405843 768 l 1,11,-1
 591.289112427 768 l 1,12,-1
 592.516344382 764.721679688 l 1,13,-1
 740.341467881 369.802734375 l 1,14,-1
 743.917488207 558.092773438 l 1,15,-1
 743.930448415 558.368164062 l 1,16,-1
 797.40234375 1275.36816406 l 1,17,-1
 797.745117188 1280 l 1,18,-1
 802.388671875 1280 l 1,19,-1
 1007.38867188 1280 l 1,20,-1
 1012.77832031 1280 l 1,21,-1
 1012.375 1274.66796875 l 1,22,-1
 916.375 4.6259765625 l 1,23,-1
 916.028320312 -0 l 1,24,-1
 911.388671875 0 l 1,25,-1
 706.144465026 0 l 1,26,-1
 702.729948824 0 l 1,27,-1
 701.426949502 3.091796875 l 1,28,-1
 522.388661687 427.897460938 l 1,29,-1
 343.35137081 3.091796875 l 1,30,-1
 342.048371489 0 l 1,31,-1
 338.632858347 0 l 1,32,-1
 133.388671875 0 l 1,33,-1
 128.75 0 l 1,34,-1
 128.403320312 4.6259765625 l 1,35,-1
 32.4033203125 1274.66796875 l 1,36,-1
 32 1280 l 1,0,-1
EndSplineSet
EndChar

StartChar: X
Encoding: 88 88 59
Width: 1024
VWidth: 0
GlyphClass: 2
Flags: W
LayerCount: 2
Fore
SplineSet
32 1280 m 1,0,-1
 40.4443359375 1280 l 1,1,-1
 299.891095145 1280 l 1,2,-1
 303.009714608 1280 l 1,3,-1
 304.431980499 1277.28125 l 1,4,-1
 525.444325878 854.958007812 l 1,5,-1
 746.456671256 1277.28125 l 1,6,-1
 747.87993383 1280 l 1,7,-1
 750.99755661 1280 l 1,8,-1
 1010.44433594 1280 l 1,9,-1
 1018.88964844 1280 l 1,10,-1
 1014.82910156 1272.65332031 l 1,11,-1
 662.922719694 640 l 1,12,-1
 1014.82910156 7.3466796875 l 1,13,-1
 1018.88964844 0 l 1,14,-1
 1010.44433594 0 l 1,15,-1
 750.99755661 0 l 1,16,-1
 747.87993383 0 l 1,17,-1
 746.456671256 2.71875 l 1,18,-1
 525.444325878 425.041992188 l 1,19,-1
 304.431980499 2.71875 l 1,20,-1
 303.009714608 0 l 1,21,-1
 299.891095145 0 l 1,22,-1
 40.4443359375 0 l 1,23,-1
 32 0 l 1,24,-1
 36.060546875 7.3466796875 l 1,25,-1
 387.966928743 640 l 1,26,-1
 36.060546875 1272.65332031 l 1,27,-1
 32 1280 l 1,0,-1
EndSplineSet
EndChar

StartChar: Y
Encoding: 89 89 60
Width: 1024
VWidth: 0
GlyphClass: 2
Flags: W
LayerCount: 2
Fore
SplineSet
32 1280 m 1,0,-1
 39.7919921875 1280 l 1,1,-1
 290.040554208 1280 l 1,2,-1
 293.318821359 1280 l 1,3,-1
 294.681360488 1277.07910156 l 1,4,-1
 524.791992188 784.0234375 l 1,5,-1
 754.902623887 1277.07910156 l 1,6,-1
 756.265163016 1280 l 1,7,-1
 759.543430167 1280 l 1,8,-1
 1009.79199219 1280 l 1,9,-1
 1017.58398438 1280 l 1,10,-1
 1014.33691406 1272.97167969 l 1,11,-1
 660.539562845 511.932617188 l 1,12,-1
 660.539562845 5 l 1,13,-1
 660.539562845 0 l 1,14,-1
 655.436270715 0 l 1,15,-1
 394.14771366 0 l 1,16,-1
 389.04442153 0 l 1,17,-1
 389.04442153 5 l 1,18,-1
 389.04442153 511.932617188 l 1,19,-1
 35.24609375 1272.97167969 l 1,20,-1
 32 1280 l 1,0,-1
EndSplineSet
EndChar

StartChar: Z
Encoding: 90 90 61
Width: 1024
VWidth: 0
GlyphClass: 2
Flags: W
LayerCount: 2
Fore
SplineSet
128 1280 m 1,0,-1
 133 1280 l 1,1,-1
 911 1280 l 1,2,-1
 916 1280 l 1,3,-1
 916 1275 l 1,4,-1
 916 1089 l 1,5,-1
 916 1087.63476562 l 1,6,-1
 915.305664062 1086.45800781 l 1,7,-1
 374.67078364 186 l 1,8,-1
 943 186 l 1,9,-1
 948 186 l 1,10,-1
 948 181.26171875 l 1,11,-1
 948 5 l 1,12,-1
 948 0 l 1,13,-1
 943 0 l 1,14,-1
 101 0 l 1,15,-1
 96 0 l 1,16,-1
 96 5 l 1,17,-1
 96 191 l 1,18,-1
 96 192.365234375 l 1,19,-1
 96.6943359375 193.541992188 l 1,20,-1
 636.416182806 1094 l 1,21,-1
 133 1094 l 1,22,-1
 128 1094 l 1,23,-1
 128 1098.73828125 l 1,24,-1
 128 1275 l 1,25,-1
 128 1280 l 1,0,-1
EndSplineSet
EndChar

StartChar: bracketleft
Encoding: 91 91 62
Width: 1024
VWidth: 0
GlyphClass: 2
Flags: W
LayerCount: 2
Fore
SplineSet
822 1236 m 1,0,-1
 527 1236 l 1,1,-1
 527 -55 l 1,2,-1
 822 -55 l 1,3,-1
 827 -55 l 1,4,-1
 832 -55 l 1,5,-1
 837 -55 l 1,6,-1
 837 -60 l 1,7,-1
 837 -65 l 1,8,-1
 837 -70 l 1,9,-1
 837 -256 l 1,10,-1
 837 -261 l 1,11,-1
 837 -266 l 1,12,-1
 837 -271 l 1,13,-1
 832 -271 l 1,14,-1
 827 -271 l 1,15,-1
 822 -271 l 1,16,-1
 256 -271 l 1,17,-1
 251 -271 l 1,18,-1
 246 -271 l 1,19,-1
 241 -271 l 1,20,-1
 241 -266 l 1,21,-1
 241 -261 l 1,22,-1
 241 -256 l 1,23,-1
 241 1437 l 1,24,-1
 241 1442 l 1,25,-1
 241 1447 l 1,26,-1
 241 1452 l 1,27,-1
 246 1452 l 1,28,-1
 251 1452 l 1,29,-1
 256 1452 l 1,30,-1
 822 1452 l 1,31,-1
 827 1452 l 1,32,-1
 832 1452 l 1,33,-1
 837 1452 l 1,34,-1
 837 1447 l 1,35,-1
 837 1442 l 1,36,-1
 837 1437 l 1,37,-1
 837 1251 l 1,38,-1
 837 1246 l 1,39,-1
 837 1241 l 1,40,-1
 837 1236 l 1,41,-1
 832 1236 l 1,42,-1
 827 1236 l 1,43,-1
 822 1236 l 1,0,-1
EndSplineSet
EndChar

StartChar: backslash
Encoding: 92 92 63
Width: 1024
VWidth: 0
GlyphClass: 2
Flags: W
LayerCount: 2
Fore
SplineSet
399.794475963 1438.4188024 m 1,0,-1
 900.794475963 -254.581197603 l 1,1,-1
 902.693956176 -261 l 1,2,-1
 896 -261 l 1,3,-1
 629 -261 l 1,4,-1
 625.26528777 -261 l 1,5,-1
 624.205524037 -257.418802397 l 1,6,-1
 123.205524037 1435.5811976 l 1,7,-1
 121.306043824 1442 l 1,8,-1
 128 1442 l 1,9,-1
 395 1442 l 1,10,-1
 398.73471223 1442 l 1,11,-1
 399.794475963 1438.4188024 l 1,0,-1
EndSplineSet
EndChar

StartChar: bracketright
Encoding: 93 93 64
Width: 1024
VWidth: 0
GlyphClass: 2
Flags: W
LayerCount: 2
Fore
SplineSet
187 1251 m 1,0,-1
 187 1437 l 1,1,-1
 187 1442 l 1,2,-1
 187 1447 l 1,3,-1
 187 1452 l 1,4,-1
 192 1452 l 1,5,-1
 197 1452 l 1,6,-1
 202 1452 l 1,7,-1
 768 1452 l 1,8,-1
 773 1452 l 1,9,-1
 778 1452 l 1,10,-1
 783 1452 l 1,11,-1
 783 1447 l 1,12,-1
 783 1442 l 1,13,-1
 783 1437 l 1,14,-1
 783 -256 l 1,15,-1
 783 -261 l 1,16,-1
 783 -266 l 1,17,-1
 783 -271 l 1,18,-1
 778 -271 l 1,19,-1
 773 -271 l 1,20,-1
 768 -271 l 1,21,-1
 202 -271 l 1,22,-1
 197 -271 l 1,23,-1
 192 -271 l 1,24,-1
 187 -271 l 1,25,-1
 187 -266 l 1,26,-1
 187 -261 l 1,27,-1
 187 -256 l 1,28,-1
 187 -70 l 1,29,-1
 187 -65 l 1,30,-1
 187 -60 l 1,31,-1
 187 -55 l 1,32,-1
 192 -55 l 1,33,-1
 197 -55 l 1,34,-1
 202 -55 l 1,35,-1
 497 -55 l 1,36,-1
 497 1236 l 1,37,-1
 202 1236 l 1,38,-1
 197 1236 l 1,39,-1
 192 1236 l 1,40,-1
 187 1236 l 1,41,-1
 187 1241 l 1,42,-1
 187 1246 l 1,43,-1
 187 1251 l 1,0,-1
EndSplineSet
EndChar

StartChar: asciicircum
Encoding: 94 94 65
Width: 1024
VWidth: 0
GlyphClass: 2
Flags: W
LayerCount: 2
Fore
SplineSet
384 1285 m 1,0,-1
 640 1285 l 1,1,-1
 643.090169944 1285 l 1,2,-1
 644.472135955 1282.23606798 l 1,3,-1
 964.472135955 642.236067977 l 1,4,-1
 968.090169944 635 l 1,5,-1
 960 635 l 1,6,-1
 706 635 l 1,7,-1
 702.881728296 635 l 1,8,-1
 701.509869297 637.800289504 l 1,9,-1
 512 1024.63486807 l 1,10,-1
 322.490130703 637.800289504 l 1,11,-1
 321.118271704 635 l 1,12,-1
 318 635 l 1,13,-1
 64 635 l 1,14,-1
 55.9098300563 635 l 1,15,-1
 59.527864045 642.236067977 l 1,16,-1
 379.527864045 1282.23606798 l 1,17,-1
 380.909830056 1285 l 1,18,-1
 384 1285 l 1,0,-1
EndSplineSet
EndChar

StartChar: underscore
Encoding: 95 95 66
Width: 1024
VWidth: 0
GlyphClass: 2
Flags: W
LayerCount: 2
Fore
SplineSet
85 -47 m 1,0,-1
 939 -47 l 1,1,-1
 944 -47 l 1,2,-1
 944 -52 l 1,3,-1
 944 -256 l 1,4,-1
 944 -261 l 1,5,-1
 939 -261 l 1,6,-1
 85 -261 l 1,7,-1
 80 -261 l 1,8,-1
 80 -256 l 1,9,-1
 80 -52 l 1,10,-1
 80 -47 l 1,11,-1
 85 -47 l 1,0,-1
EndSplineSet
EndChar

StartChar: grave
Encoding: 96 96 67
Width: 1024
VWidth: 0
GlyphClass: 2
Flags: W
LayerCount: 2
Fore
SplineSet
249.464466094 1105.53553391 m 1,0,-1
 430.464466094 1286.53553391 l 1,1,-1
 434.252587848 1290.32365566 l 1,2,-1
 437.770719292 1286.28354626 l 1,3,-1
 774.770719292 899.283546257 l 1,4,-1
 777.835322247 895.764254436 l 1,5,-1
 774.535533906 892.464466094 l 1,6,-1
 643.535533906 761.464466094 l 1,7,-1
 640.235745564 758.164677753 l 1,8,-1
 636.716453743 761.229280708 l 1,9,-1
 249.716453743 1098.22928071 l 1,10,-1
 245.67634434 1101.74741215 l 1,11,-1
 249.464466094 1105.53553391 l 1,0,-1
EndSplineSet
EndChar

StartChar: a
Encoding: 97 97 68
Width: 1024
VWidth: 0
GlyphClass: 2
Flags: W
LayerCount: 2
Fore
SplineSet
195.885742188 1016.66503906 m 2,0,1
 266.435546875 1032 266.435546875 1032 381.480026195 1032 c 0,2,3
 521.251198906 1032 521.251198906 1032 627.628534043 1012.5859375 c 0,4,5
 733.162109375 993.170898438 733.162109375 993.170898438 804.419921875 954.129882812 c 0,6,7
 876.099609375 914.858398438 876.099609375 914.858398438 912.049804688 849.203125 c 128,-1,8
 948 783.547851562 948 783.547851562 948 692.291992188 c 2,9,-1
 958 258.495117188 l 2,10,11
 958 230.907226562 958 230.907226562 955.356445312 206.443359375 c 128,-1,12
 952.713867188 181.978515625 952.713867188 181.978515625 947.375 160.485351562 c 128,-1,13
 942.037109375 138.9921875 942.037109375 138.9921875 934.010742188 120.66015625 c 128,-1,14
 925.983398438 102.328125 925.983398438 102.328125 915.182617188 87.0546875 c 128,-1,15
 904.380859375 71.78125 904.380859375 71.78125 890.846679688 59.7060546875 c 0,16,17
 823.919921875 0 823.919921875 0 687 0 c 2,18,-1
 479 0 l 2,19,20
 288.180664062 0 288.180664062 0 184.286132812 86.4609375 c 0,21,22
 80 173.248046875 80 173.248046875 80 326.325195312 c 0,23,24
 80 455.786132812 80 455.786132812 185.528320312 533.150390625 c 0,25,26
 290.352539062 610 290.352539062 610 472.908535254 610 c 2,27,-1
 681.447718839 610 l 1,28,-1
 681.447718839 695.883789062 l 2,29,30
 681.447718839 772.288085938 681.447718839 772.288085938 606.966429358 804.688476562 c 0,31,32
 530.390438257 838 530.390438257 838 381.480026195 838 c 2,33,-1
 197 838 l 1,34,-1
 192 838 l 1,35,-1
 192 842.754882812 l 1,36,-1
 192 1012.02929688 l 1,37,-1
 192 1015.8203125 l 1,38,-1
 195.885742188 1016.66503906 l 2,0,1
682 414 m 1,39,-1
 479 414 l 2,40,41
 448.709877489 414 448.709877489 414 424.688189948 407.458007812 c 128,-1,42
 400.665457667 400.916015625 400.665457667 400.916015625 382.736688916 387.942382812 c 128,-1,43
 364.911349342 375.043945312 364.911349342 375.043945312 356.161658864 358.6796875 c 128,-1,44
 347.413013125 342.315429688 347.413013125 342.315429688 347.413013125 321.982421875 c 0,45,46
 347.413013125 256.53515625 347.413013125 256.53515625 382.326106425 221.205078125 c 128,-1,47
 417.116965244 186 417.116965244 186 479 186 c 2,48,-1
 608 186 l 2,49,50
 682 186 682 186 682 252.45703125 c 2,51,-1
 682 414 l 1,39,-1
EndSplineSet
EndChar

StartChar: b
Encoding: 98 98 69
Width: 1024
VWidth: 0
GlyphClass: 2
Flags: W
LayerCount: 2
Fore
SplineSet
96 1280 m 1,0,-1
 101 1280 l 1,1,-1
 357.415848068 1280 l 1,2,-1
 362.552281161 1280 l 1,3,-1
 362.552281161 1275 l 1,4,-1
 362.552281161 1010.04492188 l 1,5,6
 439.751265417 1024 439.751265417 1024 521.781707051 1024 c 0,7,8
 718.204125225 1024 718.204125225 1024 841.19140625 890.674804688 c 128,-1,9
 964 757.541992188 964 757.541992188 964 535.767578125 c 0,10,11
 974 290.274414062 974 290.274414062 844.748046875 145.272460938 c 0,12,13
 714.674236878 0 714.674236878 0 495 0 c 2,14,-1
 367 0 l 2,15,16
 230.080078125 0 230.080078125 0 163.153320312 59.8154296875 c 0,17,18
 96 119.834960938 96 119.834960938 96 258.96875 c 2,19,-1
 96 1275 l 1,20,-1
 96 1280 l 1,0,-1
650.942935153 763.759765625 m 0,21,22
 605.18855224 838 605.18855224 838 521.781707051 838 c 0,23,24
 442.275340742 838 442.275340742 838 362.552281161 817.822265625 c 1,25,-1
 372 252.012695312 l 2,26,27
 372 186 372 186 495 186 c 0,28,29
 595.508447327 186 595.508447327 186 650.921345511 273.959960938 c 0,30,31
 707.093352446 363.125976562 707.093352446 363.125976562 697.447718839 536.374023438 c 0,32,33
 697.447718839 688.30078125 697.447718839 688.30078125 650.942935153 763.759765625 c 0,21,22
EndSplineSet
EndChar

StartChar: c
Encoding: 99 99 70
Width: 1024
VWidth: 0
GlyphClass: 2
Flags: W
LayerCount: 2
Fore
SplineSet
264.607421875 892.529296875 m 0,0,1
 419.235750448 1032 419.235750448 1032 690 1032 c 0,2,3
 742.192382812 1032 742.192382812 1032 789.423828125 1027.98242188 c 0,4,5
 795.321289062 1027.48046875 795.321289062 1027.48046875 800.799804688 1026.97949219 c 128,-1,6
 806.278320312 1026.47851562 806.278320312 1026.47851562 811.365234375 1025.9765625 c 128,-1,7
 816.453125 1025.47460938 816.453125 1025.47460938 821.127929688 1024.97363281 c 128,-1,8
 825.802734375 1024.47167969 825.802734375 1024.47167969 830.083984375 1023.96777344 c 128,-1,9
 834.365234375 1023.46484375 834.365234375 1023.46484375 838.241210938 1022.95996094 c 128,-1,10
 842.116210938 1022.45605469 842.116210938 1022.45605469 845.594726562 1021.94921875 c 128,-1,11
 849.07421875 1021.44335938 849.07421875 1021.44335938 852.154296875 1020.93457031 c 128,-1,12
 855.234375 1020.42578125 855.234375 1020.42578125 857.915039062 1019.91601562 c 2,13,-1
 879.89453125 1016.12792969 l 1,14,-1
 884 1015.41992188 l 1,15,-1
 884 1011.46484375 l 1,16,-1
 884 842.739257812 l 1,17,-1
 884 838 l 1,18,-1
 879 838 l 1,19,-1
 690 838 l 2,20,21
 546.901703684 838 546.901703684 838 462.88576154 750.731445312 c 128,-1,22
 378.74829932 663.3359375 378.74829932 663.3359375 378.74829932 512 c 0,23,24
 378.74829932 452.890625 378.74829932 452.890625 387.671923525 405.162109375 c 128,-1,25
 396.59554773 357.43359375 396.59554773 357.43359375 414.185578647 321.458984375 c 128,-1,26
 431.775609564 285.484375 431.775609564 285.484375 458.0411612 260.750976562 c 0,27,28
 537.419087132 186 537.419087132 186 690 186 c 2,29,-1
 879 186 l 1,30,-1
 884 186 l 1,31,-1
 884 181.245117188 l 1,32,-1
 884 11.970703125 l 1,33,-1
 884 8.15625 l 1,34,-1
 880.084960938 7.3291015625 l 2,35,36
 807.548828125 -8 807.548828125 -8 690 -8 c 0,37,38
 644.810546875 -8 644.810546875 -8 602.182198661 -4.98828125 c 0,39,40
 559.310928719 -1.9775390625 559.310928719 -1.9775390625 520.337415197 4.0625 c 128,-1,41
 481.364914342 10.044921875 481.364914342 10.044921875 446.362069284 19.025390625 c 0,42,43
 341.703125 46.03125 341.703125 46.03125 265.892578125 105.595703125 c 0,44,45
 189.813476562 165.370117188 189.813476562 165.370117188 150.825195312 267.166992188 c 0,46,47
 112 368.538085938 112 368.538085938 112 512.05859375 c 0,48,49
 112 752.903320312 112 752.903320312 264.607421875 892.529296875 c 0,0,1
EndSplineSet
EndChar

StartChar: d
Encoding: 100 100 71
Width: 1024
VWidth: 0
GlyphClass: 2
Flags: W
LayerCount: 2
Fore
SplineSet
948 1280 m 1,0,-1
 948 1275 l 1,1,-1
 958 258.96875 l 2,2,3
 958 231.331054688 958 231.331054688 955.356445312 206.821289062 c 128,-1,4
 952.713867188 182.311523438 952.713867188 182.311523438 947.375 160.779296875 c 128,-1,5
 942.037109375 139.247070312 942.037109375 139.247070312 934.010742188 120.880859375 c 128,-1,6
 925.983398438 102.515625 925.983398438 102.515625 915.182617188 87.2138671875 c 128,-1,7
 904.380859375 71.912109375 904.380859375 71.912109375 890.846679688 59.8154296875 c 0,8,9
 823.919921875 0 823.919921875 0 687 0 c 2,10,-1
 559 0 l 2,11,12
 339.471667089 0 339.471667089 0 209.41015625 132.227539062 c 0,13,14
 80 264.391601562 80 264.391601562 80 488.232421875 c 0,15,16
 80 731.663085938 80 731.663085938 202.65625 877.627929688 c 0,17,18
 325.65625 1024 325.65625 1024 522.218292949 1024 c 0,19,20
 604.248734583 1024 604.248734583 1024 681.447718839 1010.04492188 c 1,21,-1
 681.447718839 1275 l 1,22,-1
 681.447718839 1280 l 1,23,-1
 686.584151932 1280 l 1,24,-1
 943 1280 l 1,25,-1
 948 1280 l 1,0,-1
681.447718839 817.822265625 m 1,26,27
 601.724659258 838 601.724659258 838 522.218292949 838 c 0,28,29
 441.154945359 838 441.154945359 838 394.29201585 745.342773438 c 0,30,31
 346.552281161 650.951171875 346.552281161 650.951171875 346.906647554 487.625976562 c 0,32,33
 346.906647554 347.018554688 346.906647554 347.018554688 403.978565669 266.053710938 c 0,34,35
 460.407690084 186 460.407690084 186 559 186 c 0,36,37
 682 186 682 186 682 252.012695312 c 2,38,-1
 681.447718839 817.822265625 l 1,26,27
EndSplineSet
EndChar

StartChar: e
Encoding: 101 101 72
Width: 1024
VWidth: 0
GlyphClass: 2
Flags: W
LayerCount: 2
Fore
SplineSet
203.185546875 895.609375 m 0,0,1
 326.70673916 1040 326.70673916 1040 522 1040 c 0,2,3
 716.798225969 1040 716.798225969 1040 840.234375 936.161132812 c 0,4,5
 964 832.014648438 964 832.014648438 964 658.120117188 c 2,6,-1
 964 589.678710938 l 2,7,8
 964 499.244140625 964 499.244140625 925.41015625 463.552734375 c 128,-1,9
 886.969726562 428 886.969726562 428 789 428 c 2,10,-1
 353.579917577 428 l 1,11,12
 360.094536397 389.762695312 360.094536397 389.762695312 371.705809781 357.626953125 c 128,-1,13
 383.317083164 325.491210938 383.317083164 325.491210938 400.009979688 299.165039062 c 128,-1,14
 416.703878307 272.837890625 416.703878307 272.837890625 438.864204501 251.440429688 c 0,15,16
 506.635881288 186 506.635881288 186 612.300773897 186 c 2,17,-1
 879 186 l 1,18,-1
 884 186 l 1,19,-1
 884 181.245117188 l 1,20,-1
 884 11.970703125 l 1,21,-1
 884 7.8515625 l 1,22,-1
 879.712890625 7.2646484375 l 2,23,24
 768.358398438 -8 768.358398438 -8 612.300773897 -8 c 0,25,26
 362.874347597 -8 362.874347597 -8 220.96484375 131.631835938 c 0,27,28
 185.701171875 166.561523438 185.701171875 166.561523438 159.249023438 207.8671875 c 128,-1,29
 132.796875 249.171875 132.796875 249.171875 115.196289062 296.75390625 c 128,-1,30
 97.595703125 344.334960938 97.595703125 344.334960938 88.7978515625 398.15625 c 128,-1,31
 80 451.977539062 80 451.977539062 80 512.038085938 c 0,32,33
 80 751.584960938 80 751.584960938 203.185546875 895.609375 c 0,0,1
650.599838145 794.611328125 m 128,-1,35
 603.895202037 844 603.895202037 844 522 844 c 0,36,37
 451.917492418 844 451.917492418 844 406.747063572 776.76171875 c 0,38,39
 384.471496467 743.603515625 384.471496467 743.603515625 370.203669555 696.762695312 c 128,-1,40
 355.936844737 649.922851562 355.936844737 649.922851562 350.102648341 591 c 1,41,-1
 697.470822004 591 l 1,42,-1
 697.470822004 655 l 2,43,34
 697.470822004 745.047851562 697.470822004 745.047851562 650.599838145 794.611328125 c 128,-1,35
EndSplineSet
EndChar

StartChar: f
Encoding: 102 102 73
Width: 1024
VWidth: 0
GlyphClass: 2
Flags: W
LayerCount: 2
Fore
SplineSet
948 1271.13769531 m 1,0,-1
 948 1267 l 1,1,-1
 948 1089 l 1,2,-1
 948 1084 l 1,3,-1
 943 1084 l 1,4,-1
 754 1084 l 2,5,6
 642.312163854 1084 642.312163854 1084 603.682941519 1048.84960938 c 0,7,8
 596.364693153 1042.19042969 596.364693153 1042.19042969 590.378313759 1033.02636719 c 128,-1,9
 584.390929939 1023.95019531 584.390929939 1023.95019531 579.795680656 1012.45703125 c 128,-1,10
 575.200431373 1000.96484375 575.200431373 1000.96484375 572.026444983 987.202148438 c 128,-1,11
 568.851454166 973.439453125 568.851454166 973.439453125 567.138907712 957.3359375 c 128,-1,12
 565.426361258 941.232421875 565.426361258 941.232421875 565.224471617 923.069335938 c 1,13,-1
 943 923.069335938 l 1,14,-1
 948 923.069335938 l 1,15,-1
 948 918.118164062 l 1,16,-1
 948 733.909179688 l 1,17,-1
 948 728.958007812 l 1,18,-1
 943 728.958007812 l 1,19,-1
 565.19835654 728.958007812 l 1,20,-1
 565.19835654 5 l 1,21,-1
 565.19835654 0 l 1,22,-1
 560.055695047 0 l 1,23,-1
 298 0 l 1,24,-1
 293 0 l 1,25,-1
 293 5 l 1,26,-1
 293 729.338867188 l 1,27,-1
 101 729.338867188 l 1,28,-1
 96 729.338867188 l 1,29,-1
 96 734.29296875 l 1,30,-1
 96 918.59765625 l 1,31,-1
 96 923.552734375 l 1,32,-1
 101 923.552734375 l 1,33,-1
 293.009765625 923.552734375 l 1,34,35
 293.54296875 1027.20996094 293.54296875 1027.20996094 312.189453125 1092.36425781 c 0,36,37
 331.59765625 1160.8046875 331.59765625 1160.8046875 385.442248844 1206.28320312 c 128,-1,38
 439.411066163 1251.62304688 439.411066163 1251.62304688 527.613737321 1269.890625 c 0,39,40
 571.424793765 1278.96386719 571.424793765 1278.96386719 628.354659146 1283.48144531 c 128,-1,41
 685.283520101 1288 685.283520101 1288 754 1288 c 0,42,43
 806.192382812 1288 806.192382812 1288 853.919921875 1283.98242188 c 128,-1,44
 901.6796875 1279.9609375 901.6796875 1279.9609375 922.935546875 1275.91210938 c 2,45,-1
 943.935546875 1271.91210938 l 1,46,-1
 948 1271.13769531 l 1,0,-1
EndSplineSet
EndChar

StartChar: g
Encoding: 103 103 74
Width: 1024
VWidth: 0
GlyphClass: 2
Flags: W
LayerCount: 2
Fore
SplineSet
206.28515625 919.008789062 m 0,0,1
 332.467256372 1024 332.467256372 1024 559 1024 c 2,2,-1
 687 1024 l 2,3,4
 760.251953125 1024 760.251953125 1024 808.765625 1009.09960938 c 128,-1,5
 857.280273438 994.19921875 857.280273438 994.19921875 890.846679688 964.21484375 c 0,6,7
 913.376953125 944.087890625 913.376953125 944.087890625 928.33203125 915.07421875 c 128,-1,8
 943.287109375 886.060546875 943.287109375 886.060546875 950.643554688 848.66015625 c 128,-1,9
 958 811.258789062 958 811.258789062 958 765.163085938 c 2,10,-1
 958 122.532226562 l 2,11,12
 958 -81.55078125 958 -81.55078125 809.127929688 -172.75390625 c 0,13,14
 658.646505693 -264 658.646505693 -264 362.923160882 -264 c 0,15,16
 306.814453125 -264 306.814453125 -264 257.592773438 -259.983398438 c 128,-1,17
 208.34765625 -255.963867188 208.34765625 -255.963867188 186.10546875 -251.918945312 c 2,18,-1
 164.10546875 -247.918945312 l 1,19,-1
 160 -247.172851562 l 1,20,-1
 160 -243 l 1,21,-1
 160 -65 l 1,22,-1
 160 -60 l 1,23,-1
 165 -60 l 1,24,-1
 362.923160882 -60 l 2,25,26
 525.048348264 -60 525.048348264 -60 608.76848711 -17.1015625 c 0,27,28
 690.895437677 24.2109375 690.895437677 24.2109375 690.895437677 122.3984375 c 2,29,-1
 690.895437677 251 l 1,30,-1
 527.436585898 251 l 2,31,32
 315.12109375 251 315.12109375 251 197.70703125 353.077148438 c 0,33,34
 80 455.409179688 80 455.409179688 80 631.538085938 c 0,35,36
 80 813.69140625 80 813.69140625 206.28515625 919.008789062 c 0,0,1
682 772.158203125 m 2,37,38
 682 838 682 838 559 838 c 0,39,40
 544.738142316 838 544.738142316 838 531.375175505 836.895507812 c 128,-1,41
 518.013229001 835.791015625 518.013229001 835.791015625 505.573640442 833.588867188 c 128,-1,42
 493.13507219 831.387695312 493.13507219 831.387695312 481.579069891 828.083984375 c 128,-1,43
 470.023067593 824.78125 470.023067593 824.78125 459.373098319 820.391601562 c 128,-1,44
 448.724149353 816.002929688 448.724149353 816.002929688 438.941441421 810.514648438 c 128,-1,45
 429.157713181 805.02734375 429.157713181 805.02734375 420.264713355 798.46484375 c 128,-1,46
 411.372733836 791.903320312 411.372733836 791.903320312 403.328629817 784.245117188 c 0,47,48
 375.134473759 757.40234375 375.134473759 757.40234375 361.020560656 720.541992188 c 128,-1,49
 346.906647554 683.682617188 346.906647554 683.682617188 346.906647554 636.421875 c 0,50,51
 346.906647554 548.233398438 346.906647554 548.233398438 395.291556241 497.516601562 c 0,52,53
 443.288026674 447 443.288026674 447 527.436585898 447 c 2,54,-1
 690.895437677 447 l 1,55,-1
 682 772.158203125 l 2,37,38
EndSplineSet
EndChar

StartChar: h
Encoding: 104 104 75
Width: 1024
VWidth: 0
GlyphClass: 2
Flags: W
LayerCount: 2
Fore
SplineSet
96 1280 m 1,0,-1
 101 1280 l 1,1,-1
 357.43483223 1280 l 1,2,-1
 362.577493723 1280 l 1,3,-1
 362.577493723 1275 l 1,4,-1
 362.577493723 1010.04492188 l 1,5,6
 439.870088878 1024 439.870088878 1024 522 1024 c 0,7,8
 732.749023438 1024 732.749023438 1024 840.1171875 939.241210938 c 0,9,10
 948 854.076171875 948 854.076171875 948 656.60546875 c 2,11,-1
 948 5 l 1,12,-1
 948 0 l 1,13,-1
 943 0 l 1,14,-1
 686.56516777 0 l 1,15,-1
 681.422506277 0 l 1,16,-1
 681.422506277 5 l 1,17,-1
 681.422506277 663 l 2,18,19
 681.422506277 757.946289062 681.422506277 757.946289062 640.737223772 797.986328125 c 128,-1,20
 600.077051918 838 600.077051918 838 522 838 c 0,21,22
 442.397224877 838 442.397224877 838 362.577493723 818.131835938 c 1,23,-1
 362.577493723 5 l 1,24,-1
 362.577493723 0 l 1,25,-1
 357.43483223 0 l 1,26,-1
 101 0 l 1,27,-1
 96 0 l 1,28,-1
 96 5 l 1,29,-1
 96 1275 l 1,30,-1
 96 1280 l 1,0,-1
EndSplineSet
EndChar

StartChar: i
Encoding: 105 105 76
Width: 1024
VWidth: 0
GlyphClass: 2
Flags: W
LayerCount: 2
Fore
SplineSet
341 1394 m 1,0,-1
 346 1394 l 1,1,-1
 698 1394 l 1,2,-1
 703 1394 l 1,3,-1
 703 1389 l 1,4,-1
 703 1161 l 1,5,-1
 703 1156 l 1,6,-1
 698 1156 l 1,7,-1
 346 1156 l 1,8,-1
 341 1156 l 1,9,-1
 341 1161 l 1,10,-1
 341 1389 l 1,11,-1
 341 1394 l 1,0,-1
160 922 m 1,12,-1
 165 922 l 1,13,-1
 654.468025691 922 l 1,14,-1
 659.642557945 922 l 1,15,-1
 659.642557945 917 l 1,16,-1
 659.642557945 186 l 1,17,-1
 911 186 l 1,18,-1
 916 186 l 1,19,-1
 916 181.26171875 l 1,20,-1
 916 5 l 1,21,-1
 916 0 l 1,22,-1
 911 0 l 1,23,-1
 133 0 l 1,24,-1
 128 0 l 1,25,-1
 128 5 l 1,26,-1
 128 181.26171875 l 1,27,-1
 128 186 l 1,28,-1
 133 186 l 1,29,-1
 384.357442055 186 l 1,30,-1
 384.357442055 726 l 1,31,-1
 165 726 l 1,32,-1
 160 726 l 1,33,-1
 160 731 l 1,34,-1
 160 917 l 1,35,-1
 160 922 l 1,12,-1
EndSplineSet
EndChar

StartChar: j
Encoding: 106 106 77
Width: 1024
VWidth: 0
GlyphClass: 2
Flags: W
LayerCount: 2
Fore
SplineSet
506.449717321 1394 m 1,0,-1
 511.663868426 1394 l 1,1,-1
 858 1394 l 1,2,-1
 863 1394 l 1,3,-1
 863 1389 l 1,4,-1
 863 1161 l 1,5,-1
 863 1156 l 1,6,-1
 858 1156 l 1,7,-1
 511.663868426 1156 l 1,8,-1
 506.449717321 1156 l 1,9,-1
 506.449717321 1161 l 1,10,-1
 506.449717321 1389 l 1,11,-1
 506.449717321 1394 l 1,0,-1
192 932 m 1,12,-1
 197 932 l 1,13,-1
 815 932 l 1,14,-1
 820 932 l 1,15,-1
 820 927 l 1,16,-1
 820 125 l 2,17,18
 820 -84.65625 820 -84.65625 686.798828125 -174.643554688 c 0,19,20
 551.84440199 -264 551.84440199 -264 292 -264 c 0,21,22
 247.747070312 -264 247.747070312 -264 207.99609375 -259.974609375 c 128,-1,23
 168.203125 -255.9453125 168.203125 -255.9453125 149.915039062 -251.880859375 c 2,24,-1
 131.915039062 -247.880859375 l 1,25,-1
 128 -247.010742188 l 1,26,-1
 128 -243 l 1,27,-1
 128 -65 l 1,28,-1
 128 -60 l 1,29,-1
 133 -60 l 1,30,-1
 292 -60 l 2,31,32
 355.3828125 -60 355.3828125 -60 404.117928329 -49.7607421875 c 0,33,34
 453.641161549 -39.5205078125 453.641161549 -39.5205078125 486.422081455 -19.294921875 c 0,35,36
 551.291416824 20.728515625 551.291416824 20.728515625 551.291416824 125 c 2,37,-1
 551.291416824 736 l 1,38,-1
 197 736 l 1,39,-1
 192 736 l 1,40,-1
 192 741 l 1,41,-1
 192 927 l 1,42,-1
 192 932 l 1,12,-1
EndSplineSet
EndChar

StartChar: k
Encoding: 107 107 78
Width: 1024
VWidth: 0
GlyphClass: 2
Flags: W
LayerCount: 2
Fore
SplineSet
614.478637722 1024 m 1,0,-1
 616.942153205 1024 l 1,1,-1
 911 1024 l 1,2,-1
 921.431640625 1024 l 1,3,-1
 914.897460938 1015.94726562 l 1,4,-1
 594.473970306 625.499023438 l 1,5,-1
 979.266601562 7.533203125 l 1,6,-1
 983.913085938 -0 l 1,7,-1
 975 0 l 1,8,-1
 708.24550705 0 l 1,9,-1
 705.366229498 0 l 1,10,-1
 703.866480544 2.3955078125 l 1,11,-1
 333 595.20703125 l 1,12,-1
 333 5 l 1,13,-1
 333 0 l 1,14,-1
 328 0 l 1,15,-1
 101 0 l 1,16,-1
 96 0 l 1,17,-1
 96 5 l 1,18,-1
 96 1275 l 1,19,-1
 96 1280 l 1,20,-1
 101 1280 l 1,21,-1
 328 1280 l 1,22,-1
 333 1280 l 1,23,-1
 333 1275 l 1,24,-1
 333 681.23828125 l 1,25,-1
 612.938815315 1022.12597656 l 1,26,-1
 614.478637722 1024 l 1,0,-1
EndSplineSet
EndChar

StartChar: l
Encoding: 108 108 79
Width: 1024
VWidth: 0
GlyphClass: 2
Flags: W
LayerCount: 2
Fore
SplineSet
160 1280 m 1,0,-1
 165 1280 l 1,1,-1
 654.468025691 1280 l 1,2,-1
 659.642557945 1280 l 1,3,-1
 659.642557945 1275 l 1,4,-1
 659.642557945 186 l 1,5,-1
 911 186 l 1,6,-1
 916 186 l 1,7,-1
 916 181.26171875 l 1,8,-1
 916 5 l 1,9,-1
 916 0 l 1,10,-1
 911 0 l 1,11,-1
 133 0 l 1,12,-1
 128 0 l 1,13,-1
 128 5 l 1,14,-1
 128 181.26171875 l 1,15,-1
 128 186 l 1,16,-1
 133 186 l 1,17,-1
 384.357442055 186 l 1,18,-1
 384.357442055 1084 l 1,19,-1
 165 1084 l 1,20,-1
 160 1084 l 1,21,-1
 160 1089 l 1,22,-1
 160 1275 l 1,23,-1
 160 1280 l 1,0,-1
EndSplineSet
EndChar

StartChar: m
Encoding: 109 109 80
Width: 1024
VWidth: 0
GlyphClass: 2
Flags: W
LayerCount: 2
Fore
SplineSet
285.91796875 1029.34082031 m 128,-1,1
 308.711914062 1032 308.711914062 1032 332.536575951 1032 c 0,2,3
 345.757210466 1032 345.757210466 1032 358.337765845 1031.47558594 c 128,-1,4
 370.918321225 1030.95214844 370.918321225 1030.95214844 382.890801426 1029.90039062 c 128,-1,5
 394.862281503 1028.84960938 394.862281503 1028.84960938 406.198683064 1027.27148438 c 128,-1,6
 417.5340845 1025.69238281 417.5340845 1025.69238281 428.259410511 1023.58203125 c 128,-1,7
 438.984736522 1021.47070312 438.984736522 1021.47070312 449.076984263 1018.82910156 c 0,8,9
 456.277874536 1016.94433594 456.277874536 1016.94433594 462.713670216 1015.09082031 c 128,-1,10
 469.150466021 1013.23632812 469.150466021 1013.23632812 475.018191469 1011.34863281 c 128,-1,11
 480.886917041 1009.4609375 480.886917041 1009.4609375 486.024552225 1007.578125 c 128,-1,12
 491.16218741 1005.69628906 491.16218741 1005.69628906 495.708749517 1003.76855469 c 128,-1,13
 500.256311749 1001.84082031 500.256311749 1001.84082031 504.111788416 999.892578125 c 128,-1,14
 507.967265082 997.944335938 507.967265082 997.944335938 511.208665828 995.938476562 c 128,-1,15
 514.450066574 993.931640625 514.450066574 993.931640625 517.03638633 991.880859375 c 2,16,-1
 530.362033829 981.307617188 l 1,17,18
 534.620560326 984.251953125 534.620560326 984.251953125 539.305139497 987.211914062 c 128,-1,19
 543.990718792 990.171875 543.990718792 990.171875 550.066469959 993.774414062 c 0,20,21
 555.254111326 996.849609375 555.254111326 996.849609375 564.024195604 1000.47460938 c 128,-1,22
 572.794279881 1004.09960938 572.794279881 1004.09960938 584.888775167 1008.22363281 c 128,-1,23
 596.98227033 1012.34765625 596.98227033 1012.34765625 613.159270351 1017.2734375 c 0,24,25
 661.525250012 1032 661.525250012 1032 711.463424049 1032 c 0,26,27
 837.060546875 1032 837.060546875 1032 908.522460938 961.732421875 c 128,-1,28
 980 891.450195312 980 891.450195312 980 765.59375 c 2,29,-1
 980 5 l 1,30,-1
 980 0 l 1,31,-1
 975 0 l 1,32,-1
 771 0 l 1,33,-1
 766 0 l 1,34,-1
 766 5 l 1,35,-1
 766 763.868164062 l 2,36,37
 766 797.537109375 766 797.537109375 748.291992188 816.875976562 c 0,38,39
 730.697802065 836 730.697802065 836 699.173904652 836 c 0,40,41
 679.611486079 836 679.611486079 836 662.552376999 829.88671875 c 0,42,43
 654.002319925 826.822265625 654.002319925 826.822265625 647.810554415 823.658203125 c 128,-1,44
 641.619789028 820.494140625 641.619789028 820.494140625 638.026344757 817.459960938 c 0,45,-1
 637.726307663 817.225585938 l 1,46,-1
 631.581547964 812.779296875 l 1,47,-1
 631.581547964 5 l 1,48,-1
 631.581547964 0 l 1,49,-1
 626.460914881 0 l 1,50,-1
 417.539085119 0 l 1,51,-1
 412.418452036 0 l 1,52,-1
 412.418452036 5 l 1,53,-1
 412.418452036 763.868164062 l 2,54,55
 412.418452036 836 412.418452036 836 344.826095348 836 c 0,56,57
 337.584200007 836 337.584200007 836 330.85636822 835.313476562 c 128,-1,58
 324.128536434 834.625976562 324.128536434 834.625976562 317.971775252 833.270507812 c 128,-1,59
 311.815014069 831.9140625 311.815014069 831.9140625 306.241210938 829.88671875 c 0,60,61
 289.763671875 823.838867188 289.763671875 823.838867188 283.53515625 817.684570312 c 2,62,-1
 283.399414062 817.55078125 l 1,63,-1
 278 812.977539062 l 1,64,-1
 278 5 l 1,65,-1
 278 0 l 1,66,-1
 273 0 l 1,67,-1
 69 0 l 1,68,-1
 64 0 l 1,69,-1
 64 5 l 1,70,-1
 64 931.880859375 l 1,71,-1
 64 933.931640625 l 1,72,-1
 65.46484375 935.381835938 l 2,73,74
 69.5908203125 939.467773438 69.5908203125 939.467773438 77.2255859375 946.01953125 c 128,-1,75
 85.0224609375 952.711914062 85.0224609375 952.711914062 111.857421875 969.256835938 c 128,-1,76
 138.662109375 985.784179688 138.662109375 985.784179688 167.491210938 998.305664062 c 0,77,78
 174.756835938 1001.4609375 174.756835938 1001.4609375 182.9765625 1004.47949219 c 128,-1,79
 191.196289062 1007.49707031 191.196289062 1007.49707031 200.366210938 1010.37695312 c 128,-1,80
 209.536132812 1013.25683594 209.536132812 1013.25683594 219.642578125 1016 c 128,-1,81
 229.75 1018.74316406 229.75 1018.74316406 240.83984375 1021.36328125 c 0,82,0
 263.124023438 1026.68164062 263.124023438 1026.68164062 285.91796875 1029.34082031 c 128,-1,1
EndSplineSet
EndChar

StartChar: n
Encoding: 110 110 81
Width: 1024
VWidth: 0
GlyphClass: 2
Flags: W
LayerCount: 2
Fore
SplineSet
948 0 m 1,0,-1
 943 0 l 1,1,-1
 686.56516777 0 l 1,2,-1
 681.422506277 0 l 1,3,-1
 681.422506277 5 l 1,4,-1
 681.422506277 655.25 l 2,5,6
 681.422506277 706.875976562 681.422506277 706.875976562 671.110063788 743.357421875 c 128,-1,7
 660.796616872 779.837890625 660.796616872 779.837890625 640.593590843 801.143554688 c 0,8,9
 630.469980455 811.819335938 630.469980455 811.819335938 618.076367143 819.826171875 c 128,-1,10
 605.683758257 827.83203125 605.683758257 827.83203125 590.900615317 833.217773438 c 128,-1,11
 576.117472377 838.603515625 576.117472377 838.603515625 558.88855195 841.301757812 c 128,-1,12
 541.658627097 844 541.658627097 844 522 844 c 0,13,14
 477.253822882 844 477.253822882 844 436.611730698 836.190429688 c 128,-1,15
 396.029904078 828.391601562 396.029904078 828.391601562 378.03661541 820.708984375 c 0,16,-1
 377.812628395 820.619140625 l 1,17,-1
 362.577493723 814.92578125 l 1,18,-1
 362.577493723 5 l 1,19,-1
 362.577493723 0 l 1,20,-1
 357.43483223 0 l 1,21,-1
 101 0 l 1,22,-1
 96 0 l 1,23,-1
 96 5 l 1,24,-1
 96 931.947265625 l 1,25,-1
 96 934.59765625 l 1,26,-1
 98.2265625 936.067382812 l 2,27,28
 104.387695312 940.134765625 104.387695312 940.134765625 117.056640625 947.161132812 c 0,29,30
 119.670898438 948.610351562 119.670898438 948.610351562 123.412109375 950.475585938 c 128,-1,31
 127.154296875 952.33984375 127.154296875 952.33984375 131.999023438 954.610351562 c 128,-1,32
 136.84375 956.880859375 136.84375 956.880859375 142.875 959.595703125 c 128,-1,33
 148.90625 962.311523438 148.90625 962.311523438 156.026367188 965.4296875 c 128,-1,34
 163.145507812 968.548828125 163.145507812 968.548828125 171.510742188 972.141601562 c 0,35,36
 213.267578125 990.078125 213.267578125 990.078125 258.514648438 1004.01757812 c 128,-1,37
 303.86328125 1017.98925781 303.86328125 1017.98925781 375.149894876 1028.93945312 c 0,38,39
 411.347401688 1034.46972656 411.347401688 1034.46972656 448.061183502 1037.23535156 c 128,-1,40
 484.774965315 1040 484.774965315 1040 522 1040 c 0,41,42
 627.644529913 1040 627.644529913 1040 708.041015625 1017.97851562 c 0,43,44
 786.369140625 995.95703125 786.369140625 995.95703125 840.193359375 951.700195312 c 0,45,46
 948 863.057617188 948 863.057617188 948 656.703125 c 2,47,-1
 948 5 l 1,48,-1
 948 0 l 1,0,-1
EndSplineSet
EndChar

StartChar: o
Encoding: 111 111 82
Width: 1024
VWidth: 0
GlyphClass: 2
Flags: W
LayerCount: 2
Fore
SplineSet
109.693359375 263.971679688 m 0,0,1
 80 366.673828125 80 366.673828125 80 512 c 128,-1,2
 80 657.326171875 80 657.326171875 109.693359375 760.028320312 c 0,3,4
 113.413085938 772.892578125 113.413085938 772.892578125 117.575195312 785.098632812 c 128,-1,5
 121.737304688 797.3046875 121.737304688 797.3046875 126.348632812 808.868164062 c 128,-1,6
 130.959960938 820.431640625 130.959960938 820.431640625 136.01953125 831.337890625 c 128,-1,7
 141.078125 842.244140625 141.078125 842.244140625 146.5859375 852.5 c 128,-1,8
 152.09375 862.756835938 152.09375 862.756835938 158.053710938 872.356445312 c 128,-1,9
 164.013671875 881.95703125 164.013671875 881.95703125 170.421875 890.899414062 c 128,-1,10
 176.830078125 899.841796875 176.830078125 899.841796875 183.696289062 908.130859375 c 128,-1,11
 190.561523438 916.418945312 190.561523438 916.418945312 197.875976562 924.04296875 c 0,12,13
 256.196289062 984.830078125 256.196289062 984.830078125 334.542119032 1012.46972656 c 0,14,15
 414.392045417 1040 414.392045417 1040 522 1040 c 0,16,17
 539.90543133 1040 539.90543133 1040 557.039249601 1039.23144531 c 128,-1,18
 574.174069968 1038.46191406 574.174069968 1038.46191406 590.559323363 1036.92285156 c 128,-1,19
 606.944576759 1035.3828125 606.944576759 1035.3828125 622.56523176 1033.06933594 c 128,-1,20
 638.185886762 1030.75585938 638.185886762 1030.75585938 653.047955939 1027.66894531 c 128,-1,21
 667.909023021 1024.58203125 667.909023021 1024.58203125 682.015512658 1020.71679688 c 128,-1,22
 696.121000199 1016.88769531 696.121000199 1016.88769531 709.457880968 1012.29003906 c 0,23,24
 787.803710938 984.65625 787.803710938 984.65625 846.124023438 923.87890625 c 128,-1,25
 904.46875 863.076171875 904.46875 863.076171875 934.306640625 759.892578125 c 0,26,27
 944.220703125 725.609375 944.220703125 725.609375 950.821289062 686.602539062 c 128,-1,28
 957.421875 647.595703125 957.421875 647.595703125 960.7109375 603.951171875 c 128,-1,29
 964 560.305664062 964 560.305664062 964 511.908203125 c 0,30,31
 964 366.607421875 964 366.607421875 934.306640625 263.922851562 c 0,32,33
 904.46875 160.739257812 904.46875 160.739257812 846.124023438 99.9375 c 0,34,35
 816.986328125 69.572265625 816.986328125 69.572265625 782.85546875 47.4541015625 c 128,-1,36
 748.723632812 25.3359375 748.723632812 25.3359375 709.457880968 11.525390625 c 0,37,38
 629.607954583 -16 629.607954583 -16 522 -16 c 128,-1,39
 414.392045417 -16 414.392045417 -16 334.542119032 11.5302734375 c 0,40,41
 256.196289062 39.169921875 256.196289062 39.169921875 197.875976562 99.95703125 c 128,-1,42
 139.53125 160.770507812 139.53125 160.770507812 109.693359375 263.971679688 c 0,0,1
574.390522462 835.704101562 m 128,-1,44
 550.554693628 844 550.554693628 844 522 844 c 0,45,46
 479.180485744 844 479.180485744 844 446.851902796 825.283203125 c 128,-1,47
 414.523319847 806.565429688 414.523319847 806.565429688 392.033304437 768.66015625 c 128,-1,48
 369.456106774 730.608398438 369.456106774 730.608398438 357.993143432 666.3125 c 128,-1,49
 346.529177996 602.017578125 346.529177996 602.017578125 346.529177996 512 c 0,50,51
 346.529177996 332.034179688 346.529177996 332.034179688 392.033304437 255.33984375 c 0,52,53
 436.733750784 180 436.733750784 180 522 180 c 128,-1,54
 607.266249216 180 607.266249216 180 651.966695563 255.33984375 c 0,55,56
 697.470822004 332.034179688 697.470822004 332.034179688 697.470822004 512 c 0,57,58
 697.470822004 572.068359375 697.470822004 572.068359375 692.332079455 620.837890625 c 128,-1,59
 687.193336907 669.607421875 687.193336907 669.607421875 677.092220508 706.47265625 c 128,-1,60
 666.99110411 743.336914062 666.99110411 743.336914062 651.966695563 768.66015625 c 128,-1,61
 636.960324723 793.953125 636.960324723 793.953125 617.592836962 810.680664062 c 128,-1,43
 598.225349201 827.409179688 598.225349201 827.409179688 574.390522462 835.704101562 c 128,-1,44
EndSplineSet
EndChar

StartChar: p
Encoding: 112 112 83
Width: 1024
VWidth: 0
GlyphClass: 2
Flags: W
LayerCount: 2
Fore
SplineSet
163.153320312 964.184570312 m 0,0,1
 230.080078125 1024 230.080078125 1024 367 1024 c 2,2,-1
 527 1024 l 2,3,4
 738.87890625 1024 738.87890625 1024 856.29296875 921.922851562 c 0,5,6
 974 819.590820312 974 819.590820312 974 643.461914062 c 0,7,8
 974 461.30859375 974 461.30859375 847.71484375 355.991210938 c 0,9,10
 721.469969371 251 721.469969371 251 492.817070509 251 c 2,11,-1
 363.104562323 251 l 1,12,-1
 363.104562323 -251 l 1,13,-1
 363.104562323 -256 l 1,14,-1
 357.831696136 -256 l 1,15,-1
 101 -256 l 1,16,-1
 96 -256 l 1,17,-1
 96 -251 l 1,18,-1
 96 765.03125 l 2,19,20
 96 904.165039062 96 904.165039062 163.153320312 964.184570312 c 0,0,1
658.858964439 787.483398438 m 0,21,22
 610.966395914 838 610.966395914 838 527 838 c 0,23,24
 372 838 372 838 372 772.158203125 c 2,25,-1
 363.104562323 447 l 1,26,-1
 492.817070509 447 l 2,27,28
 517.996036405 447 517.996036405 447 540.395419131 450.375 c 128,-1,29
 562.794801857 453.75 562.794801857 453.75 582.402243131 460.4921875 c 128,-1,30
 602.010714261 467.234375 602.010714261 467.234375 618.869468064 477.290039062 c 128,-1,31
 635.728221867 487.345703125 635.728221867 487.345703125 649.945393294 500.754882812 c 0,32,33
 706.941644008 554.471679688 706.941644008 554.471679688 706.941644008 648.578125 c 0,34,35
 706.941644008 736.766601562 706.941644008 736.766601562 658.858964439 787.483398438 c 0,21,22
EndSplineSet
EndChar

StartChar: q
Encoding: 113 113 84
Width: 1024
VWidth: 0
GlyphClass: 2
Flags: W
LayerCount: 2
Fore
SplineSet
206.28515625 919.008789062 m 0,0,1
 332.467256372 1024 332.467256372 1024 559 1024 c 2,2,-1
 687 1024 l 2,3,4
 760.251953125 1024 760.251953125 1024 808.765625 1009.09179688 c 128,-1,5
 857.280273438 994.184570312 857.280273438 994.184570312 890.846679688 964.184570312 c 0,6,7
 913.376953125 944.047851562 913.376953125 944.047851562 928.33203125 915.018554688 c 128,-1,8
 943.287109375 885.990234375 943.287109375 885.990234375 950.643554688 848.5703125 c 128,-1,9
 958 811.151367188 958 811.151367188 958 765.03125 c 2,10,-1
 958 -251 l 1,11,-1
 958 -256 l 1,12,-1
 953 -256 l 1,13,-1
 696.168303864 -256 l 1,14,-1
 690.895437677 -256 l 1,15,-1
 690.895437677 -251 l 1,16,-1
 690.895437677 251 l 1,17,-1
 527.436585898 251 l 2,18,19
 315.12109375 251 315.12109375 251 197.70703125 353.077148438 c 0,20,21
 80 455.409179688 80 455.409179688 80 631.538085938 c 0,22,23
 80 813.69140625 80 813.69140625 206.28515625 919.008789062 c 0,0,1
682 772.158203125 m 2,24,25
 682 838 682 838 559 838 c 0,26,27
 544.738142316 838 544.738142316 838 531.375175505 836.895507812 c 128,-1,28
 518.013229001 835.791015625 518.013229001 835.791015625 505.573640442 833.588867188 c 128,-1,29
 493.13507219 831.387695312 493.13507219 831.387695312 481.579069891 828.083984375 c 128,-1,30
 470.023067593 824.78125 470.023067593 824.78125 459.373098319 820.391601562 c 128,-1,31
 448.724149353 816.002929688 448.724149353 816.002929688 438.941441421 810.514648438 c 128,-1,32
 429.157713181 805.02734375 429.157713181 805.02734375 420.264713355 798.46484375 c 128,-1,33
 411.372733836 791.903320312 411.372733836 791.903320312 403.328629817 784.245117188 c 0,34,35
 375.134473759 757.40234375 375.134473759 757.40234375 361.020560656 720.541992188 c 128,-1,36
 346.906647554 683.682617188 346.906647554 683.682617188 346.906647554 636.421875 c 0,37,38
 346.906647554 548.233398438 346.906647554 548.233398438 395.291556241 497.516601562 c 0,39,40
 443.288026674 447 443.288026674 447 527.436585898 447 c 2,41,-1
 690.895437677 447 l 1,42,-1
 682 772.158203125 l 2,24,25
EndSplineSet
EndChar

StartChar: r
Encoding: 114 114 85
Width: 1024
VWidth: 0
GlyphClass: 2
Flags: W
LayerCount: 2
Fore
SplineSet
948 648 m 1,0,-1
 943 648 l 1,1,-1
 686.56516777 648 l 1,2,-1
 681.422506277 648 l 1,3,-1
 681.422506277 653 l 2,4,5
 681.422506277 705.241210938 681.422506277 705.241210938 671.110063788 742.157226562 c 128,-1,6
 660.796616872 779.073242188 660.796616872 779.073242188 640.593590843 800.6328125 c 0,7,8
 630.469980455 811.435546875 630.469980455 811.435546875 618.076367143 819.538085938 c 128,-1,9
 605.683758257 827.639648438 605.683758257 827.639648438 590.900615317 833.08984375 c 128,-1,10
 576.117472377 838.5390625 576.117472377 838.5390625 558.88855195 841.26953125 c 128,-1,11
 541.658627097 844 541.658627097 844 522 844 c 0,12,13
 477.253822882 844 477.253822882 844 436.611730698 836.190429688 c 128,-1,14
 396.029904078 828.391601562 396.029904078 828.391601562 378.03661541 820.708984375 c 0,15,-1
 377.812628395 820.619140625 l 1,16,-1
 362.577493723 814.92578125 l 1,17,-1
 362.577493723 5 l 1,18,-1
 362.577493723 0 l 1,19,-1
 357.43483223 0 l 1,20,-1
 101 0 l 1,21,-1
 96 0 l 1,22,-1
 96 5 l 1,23,-1
 96 931.947265625 l 1,24,-1
 96 934.59765625 l 1,25,-1
 98.2265625 936.067382812 l 2,26,27
 104.387695312 940.134765625 104.387695312 940.134765625 117.056640625 947.161132812 c 0,28,29
 119.670898438 948.610351562 119.670898438 948.610351562 123.412109375 950.475585938 c 128,-1,30
 127.154296875 952.33984375 127.154296875 952.33984375 131.999023438 954.610351562 c 128,-1,31
 136.84375 956.880859375 136.84375 956.880859375 142.875 959.595703125 c 128,-1,32
 148.90625 962.311523438 148.90625 962.311523438 156.026367188 965.4296875 c 128,-1,33
 163.145507812 968.548828125 163.145507812 968.548828125 171.510742188 972.141601562 c 0,34,35
 213.267578125 990.078125 213.267578125 990.078125 258.514648438 1004.01757812 c 128,-1,36
 303.86328125 1017.98925781 303.86328125 1017.98925781 375.149894876 1028.93945312 c 0,37,38
 411.347401688 1034.46972656 411.347401688 1034.46972656 448.061183502 1037.23535156 c 128,-1,39
 484.774965315 1040 484.774965315 1040 522 1040 c 0,40,41
 627.644529913 1040 627.644529913 1040 708.041015625 1017.765625 c 0,42,43
 786.369140625 995.53125 786.369140625 995.53125 840.193359375 950.846679688 c 0,44,45
 948 861.34765625 948 861.34765625 948 653 c 2,46,-1
 948 648 l 1,0,-1
EndSplineSet
EndChar

StartChar: s
Encoding: 115 115 86
Width: 1024
VWidth: 0
GlyphClass: 2
Flags: W
LayerCount: 2
Fore
SplineSet
280.19140625 961.934570312 m 0,0,1
 415.759405823 1032 415.759405823 1032 682 1032 c 0,2,3
 727.22265625 1032 727.22265625 1032 768.979492188 1027.9765625 c 0,4,5
 789.922851562 1025.95800781 789.922851562 1025.95800781 805.103515625 1023.95117188 c 128,-1,6
 820.284179688 1021.94433594 820.284179688 1021.94433594 830.057617188 1019.88671875 c 2,7,-1
 848.084960938 1016.08984375 l 1,8,-1
 852 1015.26464844 l 1,9,-1
 852 1011.46289062 l 1,10,-1
 852 842.739257812 l 1,11,-1
 852 838 l 1,12,-1
 847 838 l 1,13,-1
 682 838 l 2,14,15
 547.867707556 838 547.867707556 838 478.064378217 813.306640625 c 0,16,17
 410.795347375 789.510742188 410.795347375 789.510742188 410.795347375 736 c 0,18,19
 410.795347375 693.869140625 410.795347375 693.869140625 437.062940236 664.779296875 c 0,20,21
 463.797404266 635.172851562 463.797404266 635.172851562 506.829731831 618.123046875 c 0,22,23
 515.607924739 614.645507812 515.607924739 614.645507812 524.738300898 611.266601562 c 128,-1,24
 533.869691994 607.887695312 533.869691994 607.887695312 543.359355966 604.60546875 c 128,-1,25
 552.849019938 601.323242188 552.849019938 601.323242188 562.691882098 598.139648438 c 128,-1,26
 572.534744258 594.956054688 572.534744258 594.956054688 582.735879293 591.870117188 c 128,-1,27
 592.938029266 588.783203125 592.938029266 588.783203125 603.492362489 585.796875 c 0,28,29
 656.600585938 570.741210938 656.600585938 570.741210938 707.786132812 551.169921875 c 0,30,31
 733.5390625 541.323242188 733.5390625 541.323242188 757.166992188 529.193359375 c 128,-1,32
 780.793945312 517.064453125 780.793945312 517.064453125 802.28515625 502.65234375 c 0,33,34
 845.846679688 473.440429688 845.846679688 473.440429688 872.936523438 421.305664062 c 128,-1,35
 900 369.221679688 900 369.221679688 900 297 c 0,36,37
 900 212.561523438 900 212.561523438 862.236328125 152.34375 c 128,-1,38
 824.454101562 92.09765625 824.454101562 92.09765625 750.623046875 57.47265625 c 0,39,40
 714.018554688 40.306640625 714.018554688 40.306640625 671.311523438 27.8349609375 c 0,41,42
 627.598138852 15.36328125 627.598138852 15.36328125 576.863451941 7.5625 c 128,-1,43
 526.21604964 -0.224609375 526.21604964 -0.224609375 467.04114395 -4.1123046875 c 128,-1,44
 407.86623826 -8 407.86623826 -8 342 -8 c 0,45,46
 293.791992188 -8 293.791992188 -8 249.052734375 -3.9794921875 c 128,-1,47
 204.284179688 0.0439453125 204.284179688 0.0439453125 184.01953125 4.0966796875 c 2,48,-1
 164.01953125 7.888671875 l 1,49,-1
 160 8.650390625 l 1,50,-1
 160 12.5361328125 l 1,51,-1
 160 181.260742188 l 1,52,-1
 160 186 l 1,53,-1
 165 186 l 1,54,-1
 342 186 l 2,55,56
 485.815454554 186 485.815454554 186 560.879204039 210.240234375 c 0,57,58
 633.204652625 233.595703125 633.204652625 233.595703125 633.204652625 287 c 0,59,60
 633.204652625 329.154296875 633.204652625 329.154296875 606.909656456 358.750976562 c 0,61,62
 580.20056586 388.815429688 580.20056586 388.815429688 537.217970224 405.357421875 c 0,63,64
 493.276258817 422.26953125 493.276258817 422.26953125 440.507637511 437.203125 c 0,65,66
 387.37890625 452.264648438 387.37890625 452.264648438 336.174804688 472.344726562 c 0,67,68
 323.310546875 477.389648438 323.310546875 477.389648438 310.978515625 482.94140625 c 128,-1,69
 298.646484375 488.4921875 298.646484375 488.4921875 286.841796875 494.551757812 c 128,-1,70
 275.038085938 500.611328125 275.038085938 500.611328125 263.763671875 507.180664062 c 128,-1,71
 252.489257812 513.749023438 252.489257812 513.749023438 241.749023438 520.82421875 c 0,72,73
 198.154296875 549.545898438 198.154296875 549.545898438 171.053710938 602.211914062 c 0,74,75
 157.506835938 628.5390625 157.506835938 628.5390625 150.75390625 659.50390625 c 128,-1,76
 144 690.46875 144 690.46875 144 726 c 0,77,78
 144 891.034179688 144 891.034179688 280.19140625 961.934570312 c 0,0,1
EndSplineSet
EndChar

StartChar: t
Encoding: 116 116 87
Width: 1024
VWidth: 0
GlyphClass: 2
Flags: W
LayerCount: 2
Fore
SplineSet
884 8.744140625 m 1,0,-1
 880.288085938 7.8046875 l 2,1,2
 865.060546875 3.9521484375 865.060546875 3.9521484375 847.549804688 1.0712890625 c 128,-1,3
 830.0390625 -1.9658203125 830.0390625 -1.9658203125 810.25 -3.98046875 c 128,-1,4
 790.4609375 -5.994140625 790.4609375 -5.994140625 768.420898438 -6.9970703125 c 128,-1,5
 746.380859375 -8 746.380859375 -8 722 -8 c 0,6,7
 512.358292019 -8 512.358292019 -8 402.674998938 79.9658203125 c 0,8,9
 293 168.27734375 293 168.27734375 293 374.022460938 c 2,10,-1
 293 730.24609375 l 1,11,-1
 69 730.24609375 l 1,12,-1
 64 730.24609375 l 1,13,-1
 64 735.20703125 l 1,14,-1
 64 919.768554688 l 1,15,-1
 64 924.73046875 l 1,16,-1
 69 924.73046875 l 1,17,-1
 293 924.73046875 l 1,18,-1
 293 1275 l 1,19,-1
 293 1280 l 1,20,-1
 298 1280 l 1,21,-1
 560.38569337 1280 l 1,22,-1
 565.516419159 1280 l 1,23,-1
 565.516419159 1275 l 1,24,-1
 565.516419159 922 l 1,25,-1
 943 922 l 1,26,-1
 948 922 l 1,27,-1
 948 917 l 1,28,-1
 948 731 l 1,29,-1
 948 726 l 1,30,-1
 943 726 l 1,31,-1
 565.516419159 726 l 1,32,-1
 565.516419159 367 l 2,33,34
 565.516419159 267.982421875 565.516419159 267.982421875 605.167309402 226.926757812 c 128,-1,35
 644.693939879 186 644.693939879 186 722 186 c 2,36,-1
 879 186 l 1,37,-1
 884 186 l 1,38,-1
 884 181.256835938 l 1,39,-1
 884 12.3876953125 l 1,40,-1
 884 8.744140625 l 1,0,-1
EndSplineSet
EndChar

StartChar: u
Encoding: 117 117 88
Width: 1024
VWidth: 0
GlyphClass: 2
Flags: W
LayerCount: 2
Fore
SplineSet
96 1024 m 1,0,-1
 101 1024 l 1,1,-1
 357.43483223 1024 l 1,2,-1
 362.577493723 1024 l 1,3,-1
 362.577493723 1019 l 1,4,-1
 362.577493723 368.75 l 2,5,6
 362.577493723 265.912109375 362.577493723 265.912109375 403.406409157 222.856445312 c 128,-1,7
 444.046492489 180 444.046492489 180 522 180 c 0,8,9
 544.383635033 180 544.383635033 180 565.729697932 181.953125 c 128,-1,10
 587.075760832 183.90625 587.075760832 183.90625 607.388269302 187.809570312 c 0,11,12
 647.970095922 195.608398438 647.970095922 195.608398438 665.96338459 203.291015625 c 0,13,-1
 666.187371605 203.380859375 l 1,14,-1
 681.422506277 209.07421875 l 1,15,-1
 681.422506277 1019 l 1,16,-1
 681.422506277 1024 l 1,17,-1
 686.56516777 1024 l 1,18,-1
 943 1024 l 1,19,-1
 948 1024 l 1,20,-1
 948 1019 l 1,21,-1
 948 92.052734375 l 1,22,-1
 948 89.40234375 l 1,23,-1
 945.7734375 87.9326171875 l 2,24,25
 939.612304688 83.865234375 939.612304688 83.865234375 926.943359375 76.8388671875 c 0,26,27
 922.595703125 74.427734375 922.595703125 74.427734375 915.08984375 70.8505859375 c 128,-1,28
 907.583984375 67.2724609375 907.583984375 67.2724609375 897.021484375 62.5654296875 c 128,-1,29
 886.458007812 57.8583984375 886.458007812 57.8583984375 872.489257812 51.8583984375 c 0,30,31
 830.732421875 33.921875 830.732421875 33.921875 785.485351562 19.982421875 c 128,-1,32
 740.13671875 6.0107421875 740.13671875 6.0107421875 668.850105124 -4.939453125 c 0,33,34
 596.456095926 -16 596.456095926 -16 522 -16 c 0,35,36
 311.1953125 -16 311.1953125 -16 203.806640625 72.2998046875 c 0,37,38
 149.76171875 116.737304688 149.76171875 116.737304688 122.880859375 190.583984375 c 128,-1,39
 96 264.430664062 96 264.430664062 96 367.296875 c 2,40,-1
 96 1019 l 1,41,-1
 96 1024 l 1,0,-1
EndSplineSet
EndChar

StartChar: v
Encoding: 118 118 89
Width: 1024
VWidth: 0
GlyphClass: 2
Flags: W
LayerCount: 2
Fore
SplineSet
705.193401162 1024 m 1,0,-1
 709.019146145 1024 l 1,1,-1
 976.6875 1024 l 1,2,-1
 983.375 1024 l 1,3,-1
 981.483398438 1017.64746094 l 1,4,-1
 678.092207676 3.5859375 l 1,5,-1
 677.009279862 0 l 1,6,-1
 673.181535012 0 l 1,7,-1
 374.193464988 0 l 1,8,-1
 370.365720138 0 l 1,9,-1
 369.282792324 3.5859375 l 1,10,-1
 65.8916015625 1017.64746094 l 1,11,-1
 64 1024 l 1,12,-1
 70.6875 1024 l 1,13,-1
 338.355853855 1024 l 1,14,-1
 342.181598838 1024 l 1,15,-1
 343.265526585 1020.41699219 l 1,16,-1
 457.945882211 641.416992188 l 1,17,-1
 458.042875746 641.044921875 l 1,18,-1
 523.6875 340.93359375 l 1,19,-1
 589.332124254 641.044921875 l 1,20,-1
 589.429117789 641.416992188 l 1,21,-1
 704.109473415 1020.41699219 l 1,22,-1
 705.193401162 1024 l 1,0,-1
EndSplineSet
EndChar

StartChar: w
Encoding: 119 119 90
Width: 1024
VWidth: 0
GlyphClass: 2
Flags: W
LayerCount: 2
Fore
SplineSet
32 1024 m 1,0,-1
 37.630859375 1024 l 1,1,-1
 266.630859375 1024 l 1,2,-1
 271.072265625 1024 l 1,3,-1
 271.595703125 1019.58984375 l 1,4,-1
 317.405215861 640.58984375 l 1,5,-1
 317.423160394 640.44921875 l 1,6,-1
 335.227127981 358.78125 l 1,7,-1
 386.939284691 640.883789062 l 1,8,-1
 387.144649904 641.650390625 l 1,9,-1
 431.040965532 764.650390625 l 1,10,-1
 432.23627082 768 l 1,11,-1
 435.859072668 768 l 1,12,-1
 609.402646082 768 l 1,13,-1
 613.02544793 768 l 1,14,-1
 614.220753218 764.650390625 l 1,15,-1
 658.117068846 641.650390625 l 1,16,-1
 658.251652845 641.274414062 l 1,17,-1
 710.035587687 358.78125 l 1,18,-1
 727.830583008 640.30859375 l 1,19,-1
 727.856502889 640.58984375 l 1,20,-1
 773.666015625 1019.58984375 l 1,21,-1
 774.189453125 1024 l 1,22,-1
 778.630859375 1024 l 1,23,-1
 1007.63085938 1024 l 1,24,-1
 1013.26171875 1024 l 1,25,-1
 1012.59570312 1018.46289062 l 1,26,-1
 890.595703125 4.408203125 l 1,27,-1
 890.0703125 0 l 1,28,-1
 885.630859375 0 l 1,29,-1
 679.840919997 0 l 1,30,-1
 676.206155126 0 l 1,31,-1
 675.017828268 3.365234375 l 1,32,-1
 522.630859375 434.7109375 l 1,33,-1
 370.244887401 3.365234375 l 1,34,-1
 369.055563624 0 l 1,35,-1
 365.420798753 0 l 1,36,-1
 159.630859375 0 l 1,37,-1
 155.19140625 0 l 1,38,-1
 154.666015625 4.408203125 l 1,39,-1
 32.666015625 1018.46289062 l 1,40,-1
 32 1024 l 1,0,-1
EndSplineSet
EndChar

StartChar: x
Encoding: 120 120 91
Width: 1024
VWidth: 0
GlyphClass: 2
Flags: W
LayerCount: 2
Fore
SplineSet
64 1024 m 1,0,-1
 72.724609375 1024 l 1,1,-1
 371.145810058 1024 l 1,2,-1
 374.390861166 1024 l 1,3,-1
 375.775456294 1021.13378906 l 1,4,-1
 525.724609375 710.716796875 l 1,5,-1
 675.674762164 1021.13378906 l 1,6,-1
 677.059357292 1024 l 1,7,-1
 680.303408692 1024 l 1,8,-1
 978.724609375 1024 l 1,9,-1
 987.44921875 1024 l 1,10,-1
 983.0390625 1016.54492188 l 1,11,-1
 683.164572054 512 l 1,12,-1
 983.0390625 7.455078125 l 1,13,-1
 987.44921875 0 l 1,14,-1
 978.724609375 0 l 1,15,-1
 680.303408692 0 l 1,16,-1
 677.059357292 0 l 1,17,-1
 675.674762164 2.8662109375 l 1,18,-1
 525.724609375 313.283203125 l 1,19,-1
 375.775456294 2.8662109375 l 1,20,-1
 374.390861166 0 l 1,21,-1
 371.145810058 0 l 1,22,-1
 72.724609375 0 l 1,23,-1
 64 0 l 1,24,-1
 68.4111328125 7.455078125 l 1,25,-1
 368.284646696 512 l 1,26,-1
 68.4111328125 1016.54492188 l 1,27,-1
 64 1024 l 1,0,-1
EndSplineSet
EndChar

StartChar: y
Encoding: 121 121 92
Width: 1024
VWidth: 0
GlyphClass: 2
Flags: W
LayerCount: 2
Fore
SplineSet
96 1024 m 1,0,-1
 101 1024 l 1,1,-1
 357.43483223 1024 l 1,2,-1
 362.577493723 1024 l 1,3,-1
 362.577493723 1019 l 1,4,-1
 362.577493723 564.96875 l 2,5,6
 362.577493723 543.064453125 362.577493723 543.064453125 367.046185321 525.639648438 c 128,-1,7
 371.514876919 508.21484375 371.514876919 508.21484375 380.237312935 495.396484375 c 128,-1,8
 388.959748951 482.577148438 388.959748951 482.577148438 402.015279046 473.877929688 c 0,9,10
 442.351021278 447 442.351021278 447 522 447 c 2,11,-1
 681.422506277 447 l 1,12,-1
 681.422506277 1019 l 1,13,-1
 681.422506277 1024 l 1,14,-1
 686.56516777 1024 l 1,15,-1
 943 1024 l 1,16,-1
 948 1024 l 1,17,-1
 948 1019 l 1,18,-1
 948 123.750976562 l 2,19,20
 948 88.4267578125 948 88.4267578125 943.623046875 56.5107421875 c 128,-1,21
 939.24609375 24.595703125 939.24609375 24.595703125 930.447265625 -4.01171875 c 0,22,23
 921.6484375 -32.8974609375 921.6484375 -32.8974609375 908.436523438 -58.306640625 c 0,24,25
 868.764648438 -134.59765625 868.764648438 -134.59765625 791.504882812 -179.327148438 c 0,26,27
 753.11328125 -201.5546875 753.11328125 -201.5546875 708.096679688 -217.694335938 c 0,28,29
 661.963759968 -233.834960938 661.963759968 -233.834960938 608.867788907 -243.907226562 c 0,30,31
 502.955077233 -264 502.955077233 -264 361.548961424 -264 c 0,32,33
 306.814453125 -264 306.814453125 -264 257.592773438 -259.983398438 c 128,-1,34
 208.34765625 -255.963867188 208.34765625 -255.963867188 186.10546875 -251.918945312 c 2,35,-1
 164.10546875 -247.918945312 l 1,36,-1
 160 -247.172851562 l 1,37,-1
 160 -243 l 1,38,-1
 160 -65 l 1,39,-1
 160 -60 l 1,40,-1
 165 -60 l 1,41,-1
 361.548961424 -60 l 2,42,43
 519.670735937 -60 519.670735937 -60 601.323544674 -17.1015625 c 0,44,45
 681.422506277 24.2109375 681.422506277 24.2109375 681.422506277 122.3984375 c 2,46,-1
 681.422506277 251 l 1,47,-1
 522 251 l 2,48,49
 322.34375 251 322.34375 251 209.514648438 334.446289062 c 0,50,51
 96 418.3984375 96 418.3984375 96 563.962890625 c 2,52,-1
 96 1019 l 1,53,-1
 96 1024 l 1,0,-1
EndSplineSet
EndChar

StartChar: z
Encoding: 122 122 93
Width: 1024
VWidth: 0
GlyphClass: 2
Flags: W
LayerCount: 2
Fore
SplineSet
160 1024 m 1,0,-1
 165 1024 l 1,1,-1
 879 1024 l 1,2,-1
 884 1024 l 1,3,-1
 884 1019 l 1,4,-1
 884 833 l 1,5,-1
 884 831.502929688 l 1,6,-1
 883.176757812 830.251953125 l 1,7,-1
 451.911364886 186 l 1,8,-1
 911 186 l 1,9,-1
 916 186 l 1,10,-1
 916 181.26171875 l 1,11,-1
 916 5 l 1,12,-1
 916 0 l 1,13,-1
 911 0 l 1,14,-1
 133 0 l 1,15,-1
 128 0 l 1,16,-1
 128 5 l 1,17,-1
 128 191 l 1,18,-1
 128 192.497070312 l 1,19,-1
 128.823242188 193.748046875 l 1,20,-1
 558.971628691 838 l 1,21,-1
 165 838 l 1,22,-1
 160 838 l 1,23,-1
 160 842.73828125 l 1,24,-1
 160 1019 l 1,25,-1
 160 1024 l 1,0,-1
EndSplineSet
EndChar

StartChar: braceleft
Encoding: 123 123 94
Width: 1024
VWidth: 0
GlyphClass: 2
Flags: W
LayerCount: 2
Fore
SplineSet
696 1452 m 2,0,-1
 822 1452 l 1,1,-1
 827 1452 l 1,2,-1
 832 1452 l 1,3,-1
 837 1452 l 1,4,-1
 837 1447 l 1,5,-1
 837 1442 l 1,6,-1
 837 1437 l 1,7,-1
 837 1251 l 1,8,-1
 837 1246 l 1,9,-1
 837 1241 l 1,10,-1
 837 1236 l 1,11,-1
 832 1236 l 1,12,-1
 827 1236 l 1,13,-1
 822 1236 l 1,14,-1
 696 1236 l 2,15,16
 685.184490173 1236 685.184490173 1236 675.50141759 1235.18761221 c 128,-1,17
 665.818345008 1234.37522442 665.818345008 1234.37522442 657.288375022 1232.76144631 c 0,18,19
 649.544190525 1231.29633033 649.544190525 1231.29633033 643.117152667 1228.76509627 c 128,-1,20
 636.690114808 1226.23386221 636.690114808 1226.23386221 631.538149682 1222.66711713 c 0,21,22
 629.456177765 1221.22575195 629.456177765 1221.22575195 627.471151314 1219.81364459 c 128,-1,23
 625.486090827 1218.40153135 625.486090827 1218.40153135 623.604235859 1217.0233382 c 128,-1,24
 621.722105462 1215.64496739 621.722105462 1215.64496739 619.939598394 1214.29848474 c 128,-1,25
 618.157215558 1212.95212385 618.157215558 1212.95212385 616.476632114 1211.63935591 c 128,-1,26
 614.795752626 1210.32639251 614.795752626 1210.32639251 613.217584468 1209.04842269 c 128,-1,27
 611.639439037 1207.77051601 611.639439037 1207.77051601 610.162036187 1206.52633203 c 0,28,29
 608.428509891 1205.06652041 608.428509891 1205.06652041 606.778664399 1202.78073311 c 0,30,31
 606.492064464 1202.38366169 606.492064464 1202.38366169 606.202460171 1201.94897005 c 128,-1,32
 605.912855878 1201.51427842 605.912855878 1201.51427842 605.621723952 1201.04312009 c 0,33,34
 605.029957056 1200.08542403 605.029957056 1200.08542403 604.423493041 1198.95361354 c 128,-1,35
 603.807909183 1197.80478319 603.807909183 1197.80478319 603.208475319 1196.52500804 c 128,-1,36
 602.599926226 1195.22577213 602.599926226 1195.22577213 602.025220958 1193.80999767 c 128,-1,37
 601.45051569 1192.39422321 601.45051569 1192.39422321 600.902646945 1190.83920745 c 128,-1,38
 600.354778201 1189.28419168 600.354778201 1189.28419168 599.845273566 1187.61672197 c 0,39,40
 597.107411752 1178.65644694 597.107411752 1178.65644694 594.870244478 1171.1992528 c 128,-1,41
 592.634308573 1163.74620082 592.634308573 1163.74620082 590.9 1157.8 c 0,42,43
 589.497673219 1152.99202247 589.497673219 1152.99202247 588.489883813 1144.39219138 c 0,44,45
 587.456116922 1135.57068503 587.456116922 1135.57068503 586.988917619 1123.42350317 c 0,46,47
 585.990477069 1097.46404885 585.990477069 1097.46404885 585.492201715 1082.01638059 c 0,48,49
 585.369743712 1078.22018248 585.369743712 1078.22018248 585.277594786 1073.31823576 c 128,-1,50
 585.185445861 1068.41628905 585.185445861 1068.41628905 585.123721793 1062.41480536 c 128,-1,51
 585.061997726 1056.41332167 585.061997726 1056.41332167 585.030998863 1049.30172777 c 128,-1,52
 585 1042.19013387 585 1042.19013387 585 1034 c 2,53,-1
 585 693 l 1,54,-1
 585 688.786757659 l 1,55,-1
 585 684.573515318 l 1,56,-1
 585 680.360272976 l 1,57,-1
 580.847760203 679.64590914 l 1,58,-1
 576.695520405 678.931545304 l 1,59,-1
 572.543280608 678.217181468 l 1,60,-1
 399 648.360272976 l 1,61,-1
 399 532.639727024 l 1,62,-1
 572.543280608 502.782818532 l 1,63,-1
 576.695520405 502.068454696 l 1,64,-1
 580.847760203 501.35409086 l 1,65,-1
 585 500.639727024 l 1,66,-1
 585 496.426484682 l 1,67,-1
 585 492.213242341 l 1,68,-1
 585 488 l 1,69,-1
 585 147 l 2,70,71
 585 141.52980137 585 141.52980137 585.01383327 136.543050862 c 128,-1,72
 585.027664704 131.556352507 585.027664704 131.556352507 585.055283343 127.05819151 c 128,-1,73
 585.082898725 122.560112601 585.082898725 122.560112601 585.124273364 118.548393059 c 0,74,75
 585.18612272 112.550752299 585.18612272 112.550752299 585.278258 107.655216606 c 128,-1,76
 585.37039328 102.759680913 585.37039328 102.759680913 585.492201715 98.9836194102 c 0,77,78
 585.990382378 83.5400188541 585.990382378 83.5400188541 586.988917619 57.5764968315 c 0,79,80
 587.225006407 51.438188353 587.225006407 51.438188353 587.608313393 46.137737109 c 128,-1,81
 587.99162038 40.837285865 587.99162038 40.837285865 588.517701036 36.4018322488 c 0,82,83
 589.523976431 27.9177950927 589.523976431 27.9177950927 590.9 23.2 c 0,84,85
 594.373221067 11.2918134832 594.373221067 11.2918134832 599.845273566 -6.61672196602 c 0,86,87
 604.050703254 -20.3799464008 604.050703254 -20.3799464008 610.162036187 -25.5263320282 c 0,88,89
 612.372369073 -27.3876649851 612.372369073 -27.3876649851 614.815233264 -29.3300557699 c 128,-1,90
 617.257648202 -31.2719012402 617.257648202 -31.2719012402 619.929259711 -33.2905896562 c 128,-1,91
 622.605852232 -35.3129104315 622.605852232 -35.3129104315 625.50874591 -37.4077766515 c 128,-1,92
 628.411387664 -39.502366288 628.411387664 -39.502366288 631.538149682 -41.6671171253 c 0,93,94
 641.918735774 -48.8536767272 641.918735774 -48.8536767272 657.288375022 -51.7614463145 c 0,95,96
 674.406444502 -55 674.406444502 -55 696 -55 c 2,97,-1
 822 -55 l 1,98,-1
 827 -55 l 1,99,-1
 832 -55 l 1,100,-1
 837 -55 l 1,101,-1
 837 -60 l 1,102,-1
 837 -65 l 1,103,-1
 837 -70 l 1,104,-1
 837 -256 l 1,105,-1
 837 -261 l 1,106,-1
 837 -266 l 1,107,-1
 837 -271 l 1,108,-1
 832 -271 l 1,109,-1
 827 -271 l 1,110,-1
 822 -271 l 1,111,-1
 696 -271 l 2,112,113
 479.557100046 -271 479.557100046 -271 372.12125422 -157.827288621 c 0,114,115
 263.772583198 -43.6930089519 263.772583198 -43.6930089519 302.281413487 149.89192169 c 2,116,-1
 365.765991923 473 l 1,117,-1
 64 473 l 1,118,-1
 59 473 l 1,119,-1
 54 473 l 1,120,-1
 49 473 l 1,121,-1
 49 478 l 1,122,-1
 49 483 l 1,123,-1
 49 488 l 1,124,-1
 49 693 l 1,125,-1
 49 698 l 1,126,-1
 49 703 l 1,127,-1
 49 708 l 1,128,-1
 54 708 l 1,129,-1
 59 708 l 1,130,-1
 64 708 l 1,131,-1
 365.765992998 708 l 1,132,-1
 302.290545043 1031.06199619 l 2,133,134
 283.123977668 1126.82715907 283.123977668 1126.82715907 300.399061679 1203.91111167 c 0,135,136
 317.814298589 1281.62044701 317.814298589 1281.62044701 372.12125422 1338.82728862 c 0,137,138
 408.093413917 1376.7202918 408.093413917 1376.7202918 456.367256023 1401.93620344 c 128,-1,139
 504.519191367 1427.08843691 504.519191367 1427.08843691 564.484941358 1439.56260506 c 128,-1,140
 624.273915341 1452 624.273915341 1452 696 1452 c 2,0,-1
EndSplineSet
EndChar

StartChar: bar
Encoding: 124 124 95
Width: 1024
VWidth: 0
GlyphClass: 2
Flags: W
LayerCount: 2
Fore
SplineSet
384 1442 m 1,0,-1
 640 1442 l 1,1,-1
 645 1442 l 1,2,-1
 645 1437 l 1,3,-1
 645 -256 l 1,4,-1
 645 -261 l 1,5,-1
 640 -261 l 1,6,-1
 384 -261 l 1,7,-1
 379 -261 l 1,8,-1
 379 -256 l 1,9,-1
 379 1437 l 1,10,-1
 379 1442 l 1,11,-1
 384 1442 l 1,0,-1
EndSplineSet
EndChar

StartChar: braceright
Encoding: 125 125 96
Width: 1024
VWidth: 0
GlyphClass: 2
Flags: W
LayerCount: 2
Fore
SplineSet
437.018433966 57.7676380491 m 1,0,1
 438.009296472 83.5300632078 438.009296472 83.5300632078 438.507798285 98.9836194102 c 0,2,3
 438.752979652 106.584241802 438.752979652 106.584241802 438.876489826 118.60650697 c 128,-1,4
 439 130.628772138 439 130.628772138 439 147 c 2,5,-1
 439 488 l 1,6,-1
 439 492.213242341 l 1,7,-1
 439 496.426484682 l 1,8,-1
 439 500.639727024 l 1,9,-1
 443.152239797 501.35409086 l 1,10,-1
 447.304479595 502.068454696 l 1,11,-1
 451.456719392 502.782818532 l 1,12,-1
 625 532.639727024 l 1,13,-1
 625 648.360272976 l 1,14,-1
 451.456719392 678.217181468 l 1,15,-1
 447.304479595 678.931545304 l 1,16,-1
 443.152239797 679.64590914 l 1,17,-1
 439 680.360272976 l 1,18,-1
 439 684.573515318 l 1,19,-1
 439 688.786757659 l 1,20,-1
 439 693 l 1,21,-1
 439 1034 l 2,22,23
 439 1044.9407122 439 1044.9407122 438.944524467 1053.96054812 c 128,-1,24
 438.889150962 1062.9637952 438.889150962 1062.9637952 438.779388322 1069.99099563 c 0,25,26
 438.724762785 1073.48822016 438.724762785 1073.48822016 438.656798951 1076.49622948 c 128,-1,27
 438.588835117 1079.5042388 438.588835117 1079.5042388 438.507798285 1082.01638059 c 0,28,29
 438.009617622 1097.45998115 438.009617622 1097.45998115 437.011082381 1123.42350317 c 0,30,31
 436.778359263 1129.47430422 436.778359263 1129.47430422 436.399565221 1134.76173489 c 128,-1,32
 436.020771179 1140.04916555 436.020771179 1140.04916555 435.52067556 1144.33806215 c 128,-1,33
 435.020579941 1148.62695875 435.020579941 1148.62695875 434.413413075 1152.00277159 c 128,-1,34
 433.806246208 1155.37858443 433.806246208 1155.37858443 433.1 1157.8 c 0,35,36
 431.364792734 1163.74928205 431.364792734 1163.74928205 429.127908409 1171.20542404 c 128,-1,37
 426.891024084 1178.66156602 426.891024084 1178.66156602 424.154726434 1187.61672197 c 0,38,39
 423.069169112 1191.16945502 423.069169112 1191.16945502 421.822197229 1194.19527994 c 128,-1,40
 420.575225346 1197.22110486 420.575225346 1197.22110486 419.259787258 1199.54762427 c 128,-1,41
 417.94434917 1201.87414368 417.94434917 1201.87414368 416.592492501 1203.60963911 c 128,-1,42
 415.240635832 1205.34513454 415.240635832 1205.34513454 413.837963813 1206.52633203 c 0,43,44
 409.394680743 1210.26804409 409.394680743 1210.26804409 404.114585361 1214.25746216 c 2,45,-1
 392.421718287 1222.69490084 l 2,46,47
 387.341911398 1226.21169022 387.341911398 1226.21169022 380.971626115 1228.73069295 c 0,48,49
 377.754475947 1230.00285106 377.754475947 1230.00285106 374.18930322 1231.01204681 c 128,-1,50
 370.624130493 1232.02124257 370.624130493 1232.02124257 366.711624978 1232.76144631 c 0,51,52
 361.069964092 1233.82878756 361.069964092 1233.82878756 354.928985128 1234.5453912 c 0,53,54
 351.839497205 1234.90590999 351.839497205 1234.90590999 348.611747636 1235.17781434 c 128,-1,55
 345.383998067 1235.4497187 345.383998067 1235.4497187 342.0190074 1235.63255485 c 0,56,57
 335.256398043 1236 335.256398043 1236 328 1236 c 2,58,-1
 202 1236 l 1,59,-1
 197 1236 l 1,60,-1
 192 1236 l 1,61,-1
 187 1236 l 1,62,-1
 187 1241 l 1,63,-1
 187 1246 l 1,64,-1
 187 1251 l 1,65,-1
 187 1437 l 1,66,-1
 187 1442 l 1,67,-1
 187 1447 l 1,68,-1
 187 1452 l 1,69,-1
 192 1452 l 1,70,-1
 197 1452 l 1,71,-1
 202 1452 l 1,72,-1
 328 1452 l 2,73,74
 345.865587162 1452 345.865587162 1452 362.989117917 1451.22853601 c 128,-1,75
 380.112648673 1450.45707203 380.112648673 1450.45707203 396.509169064 1448.91278468 c 128,-1,76
 412.905689456 1447.36849732 412.905689456 1447.36849732 428.572363582 1445.04845591 c 128,-1,77
 444.239037707 1442.72841449 444.239037707 1442.72841449 459.166614038 1439.63343302 c 0,78,79
 489.144221374 1433.41808117 489.144221374 1433.41808117 516.198571379 1424.02824155 c 128,-1,80
 543.252921384 1414.63840193 543.252921384 1414.63840193 567.370441161 1402.06652047 c 128,-1,81
 591.568178168 1389.4528237 591.568178168 1389.4528237 612.699666929 1373.64345938 c 0,82,83
 615.342309494 1371.66638623 615.342309494 1371.66638623 617.936570103 1369.63950203 c 128,-1,84
 620.530830712 1367.61261784 620.530830712 1367.61261784 623.076675724 1365.53595237 c 128,-1,85
 625.622520735 1363.4592869 625.622520735 1363.4592869 628.119911622 1361.33285187 c 128,-1,86
 630.617302509 1359.20641684 630.617302509 1359.20641684 633.06612144 1357.03032508 c 128,-1,87
 635.51494037 1354.85423333 635.51494037 1354.85423333 637.915238621 1352.62840795 c 128,-1,88
 640.315536871 1350.40258258 640.315536871 1350.40258258 642.667106807 1348.12722502 c 128,-1,89
 645.018676742 1345.85186747 645.018676742 1345.85186747 647.321659442 1343.52681224 c 128,-1,90
 649.624642141 1341.20175702 649.624642141 1341.20175702 651.87874578 1338.82728862 c 0,91,92
 706.119925126 1281.68973562 706.119925126 1281.68973562 723.556143805 1204.22641257 c 0,93,94
 740.92305667 1127.07099222 740.92305667 1127.07099222 721.718586513 1031.10807831 c 2,95,-1
 658.234008077 708 l 1,96,-1
 960 708 l 1,97,-1
 965 708 l 1,98,-1
 970 708 l 1,99,-1
 975 708 l 1,100,-1
 975 703 l 1,101,-1
 975 698 l 1,102,-1
 975 693 l 1,103,-1
 975 488 l 1,104,-1
 975 483 l 1,105,-1
 975 478 l 1,106,-1
 975 473 l 1,107,-1
 970 473 l 1,108,-1
 965 473 l 1,109,-1
 960 473 l 1,110,-1
 658.234007455 473 l 1,111,-1
 721.713183131 149.919283277 l 2,112,113
 734.367552458 86.0589033293 734.367552458 86.0589033293 731.054635629 30.6909562774 c 0,114,115
 727.716816845 -25.0931708981 727.716816845 -25.0931708981 707.93065381 -72.3248883089 c 0,116,117
 701.31960717 -88.106173753 701.31960717 -88.106173753 692.878264281 -102.879995529 c 128,-1,118
 684.437421079 -117.652942766 684.437421079 -117.652942766 674.18264512 -131.394648473 c 128,-1,119
 663.933411922 -145.128926713 663.933411922 -145.128926713 651.87874578 -157.827288621 c 0,120,121
 544.442899954 -271 544.442899954 -271 328 -271 c 2,122,-1
 202 -271 l 1,123,-1
 197 -271 l 1,124,-1
 192 -271 l 1,125,-1
 187 -271 l 1,126,-1
 187 -266 l 1,127,-1
 187 -261 l 1,128,-1
 187 -256 l 1,129,-1
 187 -70 l 1,130,-1
 187 -65 l 1,131,-1
 187 -60 l 1,132,-1
 187 -55 l 1,133,-1
 192 -55 l 1,134,-1
 197 -55 l 1,135,-1
 202 -55 l 1,136,-1
 328 -55 l 2,137,138
 333.446827548 -55 333.446827548 -55 338.59531608 -54.7942000085 c 128,-1,139
 343.744045252 -54.5885960927 343.744045252 -54.5885960927 348.590690006 -54.1795724755 c 0,140,141
 358.225023447 -53.3670195773 358.225023447 -53.3670195773 366.711624978 -51.7614463145 c 0,142,143
 368.697355217 -51.3857676208 368.697355217 -51.3857676208 370.589791101 -50.9416037913 c 128,-1,144
 372.482725142 -50.4974847857 372.482725142 -50.4974847857 374.27275108 -49.9885621224 c 128,-1,145
 376.065251974 -49.4791429924 376.065251974 -49.4791429924 377.757045717 -48.9074139726 c 0,146,147
 378.365549936 -48.701854879 378.365549936 -48.701854879 379.285796238 -48.3654015208 c 128,-1,148
 380.206042539 -48.0289481626 380.206042539 -48.0289481626 380.758714286 -47.8208653634 c 2,149,-1
 392.711631153 -41.4950600335 l 2,150,151
 397.038698014 -38.4817210749 397.038698014 -38.4817210749 400.394846844 -36.0239007451 c 0,152,153
 404.161949886 -33.2651248648 404.161949886 -33.2651248648 407.523799075 -30.6391549198 c 128,-1,154
 410.874295401 -28.0220527961 410.874295401 -28.0220527961 413.837963813 -25.5263320282 c 0,155,156
 419.949296746 -20.3799464008 419.949296746 -20.3799464008 424.154726434 -6.61672196601 c 0,157,158
 429.450406553 10.7145947852 429.450406553 10.7145947852 432.981514969 22.7938167695 c 2,159,-1
 437.018433966 57.7676380491 l 1,0,1
EndSplineSet
EndChar

StartChar: asciitilde
Encoding: 126 126 97
Width: 1024
VWidth: 0
GlyphClass: 2
Flags: W
LayerCount: 2
Fore
SplineSet
59 379 m 2,0,1
 59 447.492039143 59 447.492039143 61.7785310014 505.913078627 c 128,-1,2
 64.5570620028 564.334118111 64.5570620028 564.334118111 70.1395153045 612.896189146 c 128,-1,3
 75.7219686062 661.458260181 75.7219686062 661.458260181 84.1141181804 700.062148222 c 0,4,5
 109.452949082 816.620770369 109.452949082 816.620770369 167.131755945 869.195258041 c 0,6,7
 225.063171881 922 225.063171881 922 328 922 c 0,8,9
 398.773140703 922 398.773140703 922 450.01017337 905.7664847 c 0,10,11
 475.756277706 897.609303128 475.756277706 897.609303128 495.256460292 886.961864031 c 128,-1,12
 514.756642878 876.314424934 514.756642878 876.314424934 528.035533906 863.035533906 c 0,13,14
 541.078711114 849.992356698 541.078711114 849.992356698 551.700019014 835.020160226 c 128,-1,15
 562.321326914 820.047963754 562.321326914 820.047963754 570.499070536 803.181367533 c 0,16,17
 586.885148483 769.385081767 586.885148483 769.385081767 590.474467031 734.004656076 c 0,18,19
 593.969745668 699.551195224 593.969745668 699.551195224 597.96366891 666.601656838 c 0,20,21
 599.293899195 655.62725699 599.293899195 655.62725699 600.624214441 645.483814453 c 128,-1,22
 601.954529687 635.340371916 601.954529687 635.340371916 603.283138381 626.04012903 c 128,-1,23
 604.611747075 616.739886143 604.611747075 616.739886143 605.939597632 608.274838844 c 0,24,25
 609.700948763 584.296225386 609.700948763 584.296225386 623.647686021 569.419705644 c 0,26,27
 637.166160062 555 637.166160062 555 661 555 c 0,28,29
 667.058620264 555 667.058620264 555 672.648163863 556.080147892 c 128,-1,30
 678.237707463 557.160295783 678.237707463 557.160295783 683.444231588 559.350609982 c 128,-1,31
 688.650755712 561.54092418 688.650755712 561.54092418 693.39827044 564.880504341 c 128,-1,32
 698.145785167 568.220084501 698.145785167 568.220084501 702.486445547 572.714027887 c 128,-1,33
 706.827105927 577.207971272 706.827105927 577.207971272 710.72108432 582.921960101 c 128,-1,34
 714.615062713 588.635948929 714.615062713 588.635948929 718.078351885 595.548497901 c 128,-1,35
 721.541641058 602.461046872 721.541641058 602.461046872 724.570575653 610.664420767 c 128,-1,36
 727.599510248 618.867794662 727.599510248 618.867794662 730.176180894 628.315587029 c 0,37,38
 751 704.669590418 751 704.669590418 751 901 c 2,39,-1
 751 906 l 1,40,-1
 756 906 l 1,41,-1
 960 906 l 1,42,-1
 965 906 l 1,43,-1
 965 901 l 2,44,45
 965 597.842195259 965 597.842195259 906.99108361 479.30223568 c 0,46,47
 848.119776788 359 848.119776788 359 696 359 c 0,48,49
 660.654224607 359 660.654224607 359 630.162048496 363.04863159 c 128,-1,50
 599.669872384 367.09726318 599.669872384 367.09726318 573.98982663 375.2335153 c 0,51,52
 522.326994978 391.60193721 522.326994978 391.60193721 495.964466094 417.964466094 c 0,53,54
 469.868580987 444.060351201 469.868580987 444.060351201 453.500929464 477.818632467 c 128,-1,55
 437.114851517 511.614918233 437.114851517 511.614918233 433.525532969 546.995343924 c 0,56,57
 430.030254332 581.448804776 430.030254332 581.448804776 426.03633109 614.398343162 c 0,58,59
 425.038596776 622.629651255 425.038596776 622.629651255 424.040831502 630.393430146 c 128,-1,60
 423.043066227 638.157209037 423.043066227 638.157209037 422.046003985 645.448039724 c 128,-1,61
 421.048941743 652.73887041 421.048941743 652.73887041 420.052582581 659.557836184 c 128,-1,62
 419.056223419 666.376801959 419.056223419 666.376801959 418.060402368 672.725161156 c 0,63,64
 414.299051237 696.703774614 414.299051237 696.703774614 400.352313979 711.580294356 c 0,65,66
 386.833839938 726 386.833839938 726 363 726 c 0,67,68
 313.825468996 726 313.825468996 726 293.825968151 652.192318308 c 0,69,70
 273 575.334578704 273 575.334578704 273 379 c 2,71,-1
 273 374 l 1,72,-1
 268 374 l 1,73,-1
 64 374 l 1,74,-1
 59 374 l 1,75,-1
 59 379 l 2,0,1
EndSplineSet
EndChar

StartChar: cent
Encoding: 162 162 100
Width: 1024
VWidth: 0
GlyphClass: 2
Flags: W
LayerCount: 2
Fore
SplineSet
512 1285 m 1,0,-1
 682 1285 l 1,1,-1
 687 1285 l 1,2,-1
 687 1280 l 1,3,-1
 687 1035.99126697 l 1,4,5
 711.084152005 1035.90211357 711.084152005 1035.90211357 733.57092117 1035.03314655 c 128,-1,6
 756.057690336 1034.16417952 756.057690336 1034.16417952 777.883482494 1032.48527243 c 0,7,8
 789.334315205 1031.60443914 789.334315205 1031.60443914 799.186916125 1030.69870486 c 128,-1,9
 809.039517046 1029.79297057 809.039517046 1029.79297057 817.424516964 1028.84841005 c 128,-1,10
 825.809516882 1027.90384952 825.809516882 1027.90384952 832.685079381 1026.91966819 c 128,-1,11
 839.56064188 1025.93548686 839.56064188 1025.93548686 844.958090766 1024.90740136 c 2,12,-1
 864.980580676 1020.90290338 l 1,13,-1
 869 1020.09901951 l 1,14,-1
 869 1016 l 1,15,-1
 869 867 l 1,16,-1
 869 862 l 1,17,-1
 864 862 l 1,18,-1
 666 862 l 1,19,-1
 666 418 l 1,20,-1
 864 418 l 1,21,-1
 869 418 l 1,22,-1
 869 413 l 1,23,-1
 869 264 l 1,24,-1
 869 260.013907694 l 1,25,-1
 865.114124008 259.125707467 l 2,26,27
 796.486453445 243.439382767 796.486453445 243.439382767 687 243.007611286 c 1,28,-1
 687 0 l 1,29,-1
 687 -5 l 1,30,-1
 682 -5 l 1,31,-1
 512 -5 l 1,32,-1
 507 -5 l 1,33,-1
 507 0 l 1,34,-1
 507 249.527886535 l 1,35,36
 316.602189388 271.330157481 316.602189388 271.330157481 212.687130589 363.255017188 c 0,37,38
 177.407530637 394.463894068 177.407530637 394.463894068 153.894133657 435.762193435 c 128,-1,39
 130.380736676 477.060492803 130.380736676 477.060492803 118.690368338 528.096376292 c 128,-1,40
 107 579.132259782 107 579.132259782 107 640 c 0,41,42
 107 795.155637389 107 795.155637389 216.067378893 898.13553467 c 0,43,44
 323.409320853 999.486298474 323.409320853 999.486298474 507 1027.31180772 c 1,45,-1
 507 1280 l 1,46,-1
 507 1285 l 1,47,-1
 512 1285 l 1,0,-1
528 853.151739149 m 1,48,49
 415.256913006 834.612226456 415.256913006 834.612226456 351.770319948 779.717803887 c 0,50,51
 287 723.713391902 287 723.713391902 287 640 c 0,52,53
 287 590.424652118 287 590.424652118 302.547868284 553.012385513 c 128,-1,54
 318.095736567 515.600118909 318.095736567 515.600118909 349.189069856 489.850952279 c 0,55,56
 410.501369241 439.07670435 410.501369241 439.07670435 528 424.625127172 c 1,57,-1
 528 853.151739149 l 1,48,49
EndSplineSet
EndChar

StartChar: sterling
Encoding: 163 163 101
Width: 1024
VWidth: 0
GlyphClass: 2
Flags: W
LayerCount: 2
Fore
SplineSet
618 1293 m 0,0,1
 645.360091764 1293 645.360091764 1293 672.102415958 1289.07103266 c 128,-1,2
 698.844740153 1285.14206532 698.844740153 1285.14206532 724.941003444 1277.28785015 c 0,3,4
 777.097554301 1261.59024747 777.097554301 1261.59024747 813.176675363 1238.72319891 c 0,5,6
 848.932120436 1216.0612971 848.932120436 1216.0612971 876.666188951 1193.3697865 c 0,7,8
 885.922591521 1185.79636621 885.922591521 1185.79636621 893.535900659 1179.08123244 c 128,-1,9
 901.149209797 1172.36609868 901.149209797 1172.36609868 907.223449057 1166.40538499 c 128,-1,10
 913.297688317 1160.4446713 913.297688317 1160.4446713 917.762883474 1155.29252304 c 2,11,-1
 931.762883474 1139.29252304 l 1,12,-1
 934.614313715 1136.03374562 l 1,13,-1
 931.796283012 1132.74604313 l 1,14,-1
 835.796283012 1020.74604313 l 1,15,-1
 831.739848152 1016.0135358 l 1,16,-1
 828 1021 l 2,17,18
 826.585455373 1022.8860595 826.585455373 1022.8860595 824.246530259 1025.71759731 c 128,-1,19
 821.907605146 1028.54913512 821.907605146 1028.54913512 818.721554586 1032.22534731 c 0,20,21
 812.461305183 1039.448712 812.461305183 1039.448712 791.238790427 1057.70994563 c 128,-1,22
 770.049795381 1075.94233672 770.049795381 1075.94233672 747.400265266 1089.72900722 c 128,-1,23
 724.910037971 1103.41871079 724.910037971 1103.41871079 689.47852182 1114.73711179 c 0,24,25
 677.716602967 1118.49439142 677.716602967 1118.49439142 665.856366369 1120.99725981 c 128,-1,26
 653.996129771 1123.50012821 653.996129771 1123.50012821 642.036027846 1124.7500641 c 128,-1,27
 630.075925921 1126 630.075925921 1126 618 1126 c 0,28,29
 520.966179348 1125.27180796 520.966179348 1125.27180796 465.035533906 1069.96446609 c 0,30,31
 437.032813022 1041.96174521 437.032813022 1041.96174521 423.016406511 1003.81246228 c 128,-1,32
 409 965.663179358 409 965.663179358 409 917 c 2,33,-1
 409 724 l 1,34,-1
 832 724 l 1,35,-1
 837 724 l 1,36,-1
 837 719 l 1,37,-1
 837 561 l 1,38,-1
 837 556 l 1,39,-1
 832 556 l 1,40,-1
 409 556 l 1,41,-1
 409 162 l 1,42,-1
 928 162 l 1,43,-1
 933 162 l 1,44,-1
 933 157 l 1,45,-1
 933 0 l 1,46,-1
 933 -5 l 1,47,-1
 928 -5 l 1,48,-1
 64 -5 l 1,49,-1
 59 -5 l 1,50,-1
 59 0 l 1,51,-1
 59 157 l 1,52,-1
 59 162 l 1,53,-1
 64 162 l 1,54,-1
 229 162 l 1,55,-1
 229 556 l 1,56,-1
 64 556 l 1,57,-1
 59 556 l 1,58,-1
 59 561 l 1,59,-1
 59 719 l 1,60,-1
 59 724 l 1,61,-1
 64 724 l 1,62,-1
 229 724 l 1,63,-1
 229 917 l 2,64,65
 229 1091.12186939 229 1091.12186939 333.526092937 1192.0961048 c 128,-1,66
 437.979371387 1293 437.979371387 1293 618 1293 c 0,0,1
EndSplineSet
EndChar

StartChar: currency
Encoding: 164 164 102
Width: 1024
VWidth: 0
GlyphClass: 2
Flags: W
LayerCount: 2
Fore
SplineSet
200.260052885 1250.61762286 m 1,0,-1
 350.933828939 1005.4034383 l 1,1,2
 420.671620795 1037 420.671620795 1037 512 1037 c 0,3,4
 602.345022169 1037 602.345022169 1037 673.054300609 1005.38411972 c 1,5,-1
 823.739947115 1250.61762286 l 1,6,-1
 826.399116945 1254.9452914 l 1,7,-1
 830.684377461 1252.21830744 l 1,8,-1
 962.684377461 1168.21830744 l 1,9,-1
 966.973951222 1165.48857868 l 1,10,-1
 964.172747263 1161.24533481 l 1,11,-1
 797.139397736 908.224402988 l 1,12,13
 837.129022288 855.759054222 837.129022288 855.759054222 857.064511144 788.685553211 c 128,-1,14
 877 721.612052199 877 721.612052199 877 640 c 0,15,16
 877 476.55063297 877 476.55063297 797.139397736 371.775597012 c 1,17,-1
 964.172747263 118.754665185 l 1,18,-1
 966.973951222 114.511421318 l 1,19,-1
 962.684377461 111.781692561 l 1,20,-1
 830.684377461 27.7816925613 l 1,21,-1
 826.399116945 25.0547085967 l 1,22,-1
 823.739947115 29.3823771432 l 1,23,-1
 673.054300609 274.615880281 l 1,24,25
 637.453138209 258.697713484 637.453138209 258.697713484 597.364200779 250.848856742 c 128,-1,26
 557.27526335 243 557.27526335 243 512 243 c 0,27,28
 489.519044719 243 489.519044719 243 467.928929475 245.04394378 c 128,-1,29
 446.338814232 247.08788756 446.338814232 247.08788756 426.136511104 251.091923089 c 128,-1,30
 405.934207976 255.095958618 405.934207976 255.095958618 387.082843457 260.991468073 c 128,-1,31
 368.231478938 266.886977529 368.231478938 266.886977529 350.945699391 274.615880281 c 1,32,-1
 200.260052885 29.3823771432 l 1,33,-1
 197.600883055 25.0547085967 l 1,34,-1
 193.315622539 27.7816925613 l 1,35,-1
 61.315622539 111.781692561 l 1,36,-1
 57.0260487783 114.511421318 l 1,37,-1
 59.8272527374 118.754665185 l 1,38,-1
 226.860602264 371.775597012 l 1,39,40
 186.870977712 424.240945778 186.870977712 424.240945778 166.935488856 491.314446789 c 128,-1,41
 147 558.387947801 147 558.387947801 147 640 c 0,42,43
 147 694.276975112 147 694.276975112 156.034401162 742.574830929 c 128,-1,44
 165.068802323 790.872686747 165.068802323 790.872686747 182.819475939 832.30234931 c 128,-1,45
 200.570149554 873.732011872 200.570149554 873.732011872 226.860602264 908.224402988 c 1,46,-1
 59.8272527374 1161.24533481 l 1,47,-1
 57.0260487783 1165.48857868 l 1,48,-1
 61.315622539 1168.21830744 l 1,49,-1
 193.315622539 1252.21830744 l 1,50,-1
 197.600883055 1254.9452914 l 1,51,-1
 200.260052885 1250.61762286 l 1,0,-1
512 881 m 0,52,53
 481.294837059 881 481.294837059 881 455.042787749 873.867511847 c 128,-1,54
 428.79073844 866.735023693 428.79073844 866.735023693 406.922313778 852.492182499 c 128,-1,55
 385.053889116 838.249341305 385.053889116 838.249341305 367.355432222 816.816347635 c 0,56,57
 354.063420399 800.719599372 354.063420399 800.719599372 344.083018793 781.675520818 c 128,-1,58
 334.102617186 762.631442264 334.102617186 762.631442264 327.407478739 740.55680058 c 128,-1,59
 320.712340292 718.482158896 320.712340292 718.482158896 317.356170146 693.329663275 c 128,-1,60
 314 668.177167655 314 668.177167655 314 640 c 0,61,62
 314 583.724993642 314 583.724993642 327.368982529 539.571321469 c 128,-1,63
 340.737965059 495.417649296 340.737965059 495.417649296 367.355432222 463.183652365 c 128,-1,64
 393.904968812 431.03191998 393.904968812 431.03191998 429.941147186 415.01595999 c 128,-1,65
 465.977325559 399 465.977325559 399 512 399 c 0,66,67
 603.644430598 399 603.644430598 399 656.644567778 463.183652365 c 0,68,69
 710 527.797570285 710 527.797570285 710 640 c 128,-1,70
 710 752.202429715 710 752.202429715 656.644567778 816.816347635 c 0,71,72
 603.644430598 881 603.644430598 881 512 881 c 0,52,53
EndSplineSet
EndChar

